<svg xmlns="http://www.w3.org/2000/svg" width="500" height="500" fill="none" viewBox="0 0 500 500"><g clip-path="url(#Base_62_svg_clip0_70_791)"><path fill="#995300" d="M250.51 406.425c-99.719 0-181.757-75.71-191.886-172.832a193 193 0 0 0-1.058 20.297c0 106.667 86.38 193.129 192.944 193.129s192.943-86.462 192.943-193.129c0-6.852-.371-13.63-1.057-20.297-10.13 97.122-92.168 172.832-191.886 172.832"/><path fill="#ffb600" d="M473.118 233.668 250.509 53 27.901 233.668C10.703 246.481 1 260.966 1 276.323c0 52.107 111.703 94.354 249.509 94.354s249.51-42.247 249.51-94.354c0-15.357-9.703-29.842-26.901-42.655"/></g><defs><clipPath id="Base_62_svg_clip0_70_791"><rect width="499" height="394" fill="#fff" transform="translate(1 53)"/></clipPath></defs></svg>