<svg xmlns="http://www.w3.org/2000/svg" width="500" height="500" fill="none" viewBox="0 0 500 500"><g clip-path="url(#Base_56_svg_clip0_70_712)"><path fill="#3e962c" d="M265.456 266.637h-29.913v190.665h29.913z"/><path fill="#ffcffe" d="M148.75 204.004c56.195 0 101.75-45.668 101.75-102.002S204.945 0 148.75 0 47 45.668 47 102.002s45.555 102.002 101.75 102.002"/><path fill="#ffcffe" d="M352.25 204.004c56.195 0 101.75-45.668 101.75-102.002S408.445 0 352.25 0 250.5 45.668 250.5 102.002s45.555 102.002 101.75 102.002"/><path fill="#ffcffe" d="M148.75 408.008c56.195 0 101.75-45.668 101.75-102.002s-45.555-102.002-101.75-102.002S47 249.672 47 306.006s45.555 102.002 101.75 102.002"/><path fill="#ffcffe" d="M352.25 408.008c56.195 0 101.75-45.668 101.75-102.002s-45.555-102.002-101.75-102.002S250.5 249.672 250.5 306.006s45.555 102.002 101.75 102.002"/><path fill="#ffcffe" d="M250.5 317.942c62.771 0 113.657-51.012 113.657-113.938S313.271 90.066 250.5 90.066s-113.656 51.012-113.656 113.938S187.73 317.942 250.5 317.942"/><path fill="#3e962c" d="M313 500H187.979L160.74 382.711h179.52z"/></g><defs><clipPath id="Base_56_svg_clip0_70_712"><rect width="407" height="500" fill="#fff" transform="translate(47)"/></clipPath></defs></svg>