<svg width="500" height="500" viewBox="0 0 500 500" fill="none" xmlns="http://www.w3.org/2000/svg">
<path d="M144.051 168.201V224.676H68.3861C52.8156 224.676 40.1485 212.009 40.1485 196.438C40.1485 180.868 52.8156 168.201 68.3861 168.201H144.051ZM170.128 137.627H68.3861C35.9081 137.627 9.57471 163.96 9.57471 196.438C9.57471 228.916 35.9081 255.25 68.3861 255.25H170.128C172.612 255.25 174.638 253.237 174.638 250.739V142.124C174.638 139.639 172.626 137.613 170.128 137.613V137.627Z" fill="#009ADA"/>
<path d="M417.27 137.627H77.947C77.947 197.316 108.777 249.794 155.367 280.044V309.051C155.367 320.084 164.307 329.024 175.34 329.024H319.877C330.91 329.024 339.85 320.084 339.85 309.051V280.044C386.44 249.794 417.27 197.316 417.27 137.627Z" fill="#0065B2"/>
</svg>
