<svg xmlns="http://www.w3.org/2000/svg" width="500" height="500" fill="none" viewBox="0 0 500 500"><g clip-path="url(#Base_53_svg_a)"><path fill="#1f69af" d="M154.765 282.529c70.562 0 127.764-57.202 127.764-127.764C282.529 84.202 225.327 27 154.765 27 84.202 27 27 84.202 27 154.765c0 70.562 57.202 127.764 127.765 127.764"/><path fill="#1f69af" d="M345.222 472.986c70.562 0 127.764-57.202 127.764-127.764 0-70.563-57.202-127.765-127.764-127.765-70.563 0-127.765 57.202-127.765 127.765 0 70.562 57.202 127.764 127.765 127.764"/><path fill="#1f69af" d="M249.999 431.495c100.237 0 181.495-81.258 181.495-181.495S350.236 68.505 249.999 68.505 68.504 149.763 68.504 250s81.258 181.495 181.495 181.495"/><path fill="#319ed7" d="M169.67 277.443c59.522 0 107.774-48.252 107.774-107.774S229.192 61.896 169.67 61.896 61.897 110.148 61.897 169.669c0 59.522 48.251 107.774 107.773 107.774"/><path fill="#319ed7" d="M330.332 438.104c59.522 0 107.774-48.252 107.774-107.773 0-59.522-48.252-107.774-107.774-107.774s-107.773 48.252-107.773 107.774 48.252 107.773 107.773 107.773"/><path fill="#319ed7" d="M250 403.1c84.555 0 153.1-68.545 153.1-153.1S334.555 96.9 250 96.9 96.9 165.445 96.9 250 165.446 403.1 250 403.1"/><path fill="#1f69af" d="M70.545 252.013c0-26.94 15.952-54.071 39.669-67.52 20.657-11.709 43.789-11.152 63.467 1.536 28.232 18.196 29.891 45.598 19.026 64.678-11.723 20.576-35.589 29.388-55.512 20.508l-.286-.136c-10.743-5.127-18.264-13.491-20.249-24.411-1.85-10.186 3.372-20.344 13.218-25.607l15.259 13.586c-3.835 3.467-2.598 10.933 5.725 14.496 9.016 3.251 16.183-2.624 20.249-9.764 5.957-10.444.585-22.67-12.362-31.02-14.755-9.519-27.864-5.834-36.269-1.061-15.054 8.541-25.58 26.478-25.58 43.64l-26.355 1.088z"/></g><defs><clipPath id="Base_53_svg_a"><path fill="#fff" d="M27 27h446v446H27z"/></clipPath></defs></svg>