<svg xmlns="http://www.w3.org/2000/svg" width="500" height="500" fill="none" viewBox="0 0 500 500"><g clip-path="url(#a)"><g clip-path="url(#b)"><path fill="#5cb94b" d="M360.287 462c-19.621 0-38.511-7.904-55.144-22.749C288.511 454.096 269.62 462 250 462s-38.511-7.904-55.143-22.749C178.224 454.082 159.334 462 139.713 462c-35.358 0-67.012-24.619-89.124-69.306C31.506 354.137 21 303.457 21 250s10.506-104.124 29.603-142.694C72.7 62.619 104.355 38 139.713 38c19.621 0 38.511 7.904 55.144 22.75C211.489 45.903 230.38 38 250 38s38.511 7.904 55.143 22.75C321.776 45.903 340.666 38 360.287 38c35.358 0 67.012 24.619 89.124 69.306 19.084 38.57 29.603 89.251 29.603 142.708s-10.506 104.123-29.603 142.694c-22.112 44.687-53.766 69.306-89.124 69.306z"/><path fill="#ffed6c" d="M360.287 65.272c-20.722 0-39.819 13.951-55.143 37.429-15.325-23.478-34.422-37.43-55.144-37.43-20.721 0-39.819 13.952-55.143 37.43-15.325-23.478-34.422-37.43-55.143-37.43-50.476 0-91.397 82.708-91.397 184.729s40.92 184.729 91.397 184.729c20.721 0 39.818-13.952 55.143-37.43 15.324 23.478 34.422 37.43 55.143 37.43s39.819-13.952 55.144-37.43c15.324 23.478 34.421 37.43 55.143 37.43 50.476 0 91.396-82.708 91.396-184.729s-40.92-184.728-91.396-184.728"/></g></g><defs><clipPath id="a"><path fill="#fff" d="M0 0h500v500H0z"/></clipPath><clipPath id="b"><path fill="#fff" d="M21 38h458v424H21z"/></clipPath></defs></svg>