<svg width="500" height="500" viewBox="0 0 500 500" fill="none" xmlns="http://www.w3.org/2000/svg">
<path d="M356.586 475C310.089 475 269.289 448.066 249.991 408.255C230.694 448.066 189.911 475 143.414 475C78.13 475 25 421.872 25 356.573C25 310.078 51.9354 269.279 91.7477 249.982C51.9354 230.703 25 189.922 25 143.409C25 78.1279 78.13 25 143.414 25C189.911 25 230.711 51.9344 249.991 91.7451C269.289 51.9344 310.089 25 356.586 25C421.888 25 475 78.1279 475 143.409C475 189.905 448.065 230.703 408.252 250C448.065 269.297 475 310.078 475 356.591C475 421.89 421.87 475 356.586 475Z" fill="white"/>
<path d="M369.057 250.741C369.057 250.494 369.075 250.247 369.075 250C369.075 249.753 369.075 249.506 369.057 249.259C422.046 243.086 463.181 198.071 463.181 143.427C463.181 84.5661 415.467 36.8356 356.586 36.8356C301.939 36.8356 256.923 77.9692 250.75 130.956C250.503 130.956 250.256 130.938 250.009 130.938C249.762 130.938 249.515 130.938 249.268 130.956C243.094 77.9692 198.078 36.8356 143.431 36.8356C84.5506 36.8356 36.8359 84.5484 36.8359 143.409C36.8359 198.054 77.9711 243.068 130.96 249.242C130.96 249.488 130.942 249.735 130.942 249.982C130.942 250.229 130.942 250.476 130.96 250.723C77.9711 256.897 36.8359 301.911 36.8359 356.556C36.8359 415.416 84.5506 463.147 143.431 463.147C198.078 463.147 243.094 422.013 249.268 369.026C249.515 369.026 249.762 369.044 250.009 369.044C250.256 369.044 250.503 369.044 250.75 369.026C256.923 422.013 301.939 463.147 356.586 463.147C415.449 463.147 463.181 415.434 463.181 356.556C463.181 301.911 422.046 256.897 369.057 250.723V250.741Z" fill="#E6499A"/>
</svg>
