<svg xmlns="http://www.w3.org/2000/svg" width="500" height="500" fill="none" viewBox="0 0 500 500"><g clip-path="url(#Base_10_svg_clip0_70_92)"><g clip-path="url(#Base_10_svg_clip1_70_92)"><path fill="#ffb600" d="M48.547 428.72c55.399 55.468 145.214 55.468 200.614 0l.035-.035a117 117 0 0 0 2.643 2.717c55.4 55.468 145.215 55.468 200.614 0 55.4-55.467 55.4-145.392 0-200.86a147 147 0 0 0-2.714-2.647l.035-.035L249.16 27 48.547 227.86c-55.4 55.468-55.4 145.392 0 200.86"/><path fill="#ffed6c" d="M74.232 377.299c48.302 48.362 126.626 48.362 174.928 0l.036-.035a85 85 0 0 0 2.303 2.364c48.303 48.363 126.626 48.363 174.929 0s48.302-126.781 0-175.143a109 109 0 0 0-2.362-2.306l.035-.035L249.172 27 74.243 202.144c-48.303 48.362-48.303 126.781 0 175.143z"/><path fill="#fbcd5b" d="M101.596 322.49c40.748 40.798 106.817 40.798 147.564 0l.024-.023c.634.67 1.281 1.341 1.939 2 40.747 40.798 106.816 40.798 147.564 0s40.748-106.948 0-147.745a104 104 0 0 0-1.998-1.942l.024-.023L249.149 27.012 101.585 174.757c-40.748 40.798-40.748 106.947 0 147.745z"/></g></g><defs><clipPath id="Base_10_svg_clip0_70_92"><rect width="500" height="500" fill="#fff"/></clipPath><clipPath id="Base_10_svg_clip1_70_92"><rect width="487" height="446" fill="#fff" transform="matrix(-1 0 0 -1 494 473)"/></clipPath></defs></svg>