<svg width="500" height="500" viewBox="0 0 500 500" fill="none" xmlns="http://www.w3.org/2000/svg">
<path d="M449.997 50H50V450H449.997V50Z" fill="#2D3791"/>
<path d="M418.134 81.8481H81.8477V418.137H418.134V81.8481Z" fill="#F8EC23"/>
<path d="M389.54 110.442H110.441V389.543H389.54V110.442Z" fill="#00A352"/>
<path d="M356.772 143.209H143.207V356.776H356.772V143.209Z" fill="#EE3B24"/>
<path d="M50 116L0 83L50 50V116Z" fill="#EE3B24"/>
<path d="M50 183L0 149.5L50 116V183Z" fill="#EE3B24"/>
<path d="M50 249L0 215.995L50 183V249Z" fill="#EE3B24"/>
<path d="M50 316L0 282.5L50 249V316Z" fill="#EE3B24"/>
<path d="M50 383L0 349.5L50 316V383Z" fill="#EE3B24"/>
<path d="M50 450L0 416.5L50 383V450Z" fill="#EE3B24"/>
</svg>
