<svg width="500" height="500" viewBox="0 0 500 500" fill="none" xmlns="http://www.w3.org/2000/svg">
<path d="M142.113 499.983V438.407H219.255V360.823C148.454 346.418 96.2749 283.338 96.2749 210.015V50H403.725V210.015C403.725 283.338 351.546 346.419 280.745 360.839V438.424H354.967V500H142.113V499.983Z" fill="white"/>
<path d="M231.086 350.964V450.254H153.944V488.153H343.153V450.254H268.931V350.964C262.74 351.782 256.433 352.25 250.009 352.25C243.584 352.25 237.277 351.782 231.086 350.947V350.964Z" fill="#9F1D20"/>
<path d="M107.104 61.8307V210.182C107.104 289.22 171.081 353.286 250.008 353.286C328.936 353.286 392.913 289.22 392.913 210.182V61.8307H107.104Z" fill="#EF3C23"/>
</svg>
