<svg width="500" height="500" viewBox="0 0 500 500" fill="none" xmlns="http://www.w3.org/2000/svg">
<path d="M142.113 469.983V408.407H219.255V330.823C148.454 316.418 96.2749 253.338 96.2749 180.015V20H403.725V180.015C403.725 253.338 351.546 316.419 280.745 330.839V408.424H354.967V470H142.113V469.983Z" fill="white"/>
<path d="M231.086 320.964V420.254H153.944V458.153H343.153V420.254H268.931V320.964C262.74 321.782 256.433 322.25 250.009 322.25C243.584 322.25 237.277 321.782 231.086 320.947V320.964Z" fill="#9F1D20"/>
<path d="M107.104 31.8307V180.182C107.104 259.22 171.081 323.286 250.008 323.286C328.936 323.286 392.913 259.22 392.913 180.182V31.8307H107.104Z" fill="#EF3C23"/>
</svg>
