<svg xmlns="http://www.w3.org/2000/svg" width="500" height="500" fill="none" viewBox="0 0 500 500"><g clip-path="url(#Base_60_svg_a)"><path fill="#5dbb4c" d="M250.011 261.328c65.383 0 118.386-53.128 118.386-118.664S315.394 24 250.011 24 131.625 77.128 131.625 142.664s53.003 118.664 118.386 118.664"/><path fill="#5dbb4c" d="M137.41 343.328c65.382 0 118.386-53.127 118.386-118.664C255.796 159.128 202.792 106 137.41 106S19.023 159.128 19.023 224.664c0 65.537 53.004 118.664 118.387 118.664"/><path fill="#5dbb4c" d="M180.429 475.976c65.383 0 118.386-53.128 118.386-118.664 0-65.537-53.003-118.664-118.386-118.664S62.043 291.775 62.043 357.312c0 65.536 53.003 118.664 118.386 118.664"/><path fill="#5dbb4c" d="M319.597 475.976c65.383 0 118.386-53.128 118.386-118.664 0-65.537-53.003-118.664-118.386-118.664s-118.386 53.127-118.386 118.664c0 65.536 53.003 118.664 118.386 118.664"/><path fill="#5dbb4c" d="M362.589 343.328c65.383 0 118.386-53.127 118.386-118.664 0-65.536-53.003-118.664-118.386-118.664s-118.386 53.128-118.386 118.664c0 65.537 53.003 118.664 118.386 118.664"/><path fill="#3e962c" d="M250.013 260.159c58.698 0 106.283-47.696 106.283-106.532S308.711 47.094 250.013 47.094 143.73 94.792 143.73 153.628 191.315 260.16 250.013 260.16"/><path fill="#3e962c" d="M148.931 333.779c58.698 0 106.283-47.696 106.283-106.532s-47.585-106.533-106.283-106.533S42.648 168.411 42.648 227.247s47.585 106.532 106.283 106.532"/><path fill="#3e962c" d="M187.525 452.881c58.698 0 106.282-47.696 106.282-106.532s-47.584-106.532-106.282-106.532S81.242 287.513 81.242 346.349s47.585 106.532 106.283 106.532"/><path fill="#3e962c" d="M312.474 452.881c58.698 0 106.283-47.696 106.283-106.532s-47.585-106.532-106.283-106.532-106.283 47.696-106.283 106.532 47.585 106.532 106.283 106.532"/><path fill="#3e962c" d="M351.095 333.779c58.698 0 106.283-47.696 106.283-106.532s-47.585-106.533-106.283-106.533-106.283 47.697-106.283 106.533 47.585 106.532 106.283 106.532"/></g><defs><clipPath id="Base_60_svg_a"><path fill="#fff" d="M19 24h462v452H19z"/></clipPath></defs></svg>