<svg width="500" height="500" viewBox="0 0 500 500" fill="none" xmlns="http://www.w3.org/2000/svg">
<path d="M275.804 438.411V258.317H224.178V438.411H275.804Z" fill="white"/>
<path d="M188.93 500L160.647 378.581H339.351L311.069 500H188.93Z" fill="white"/>
<path d="M168.434 236.917C115.251 236.917 71.9985 193.664 71.9985 140.481C71.9985 87.2985 115.251 44.0457 168.434 44.0457C221.617 44.0457 264.869 87.2985 264.869 140.481C264.869 193.664 221.617 236.917 168.434 236.917Z" fill="white"/>
<path d="M331.565 236.917C278.383 236.917 235.13 193.664 235.13 140.481C235.13 87.2985 278.383 44.0457 331.565 44.0457C384.748 44.0457 428.001 87.2985 428.001 140.481C428.001 193.664 384.748 236.917 331.565 236.917Z" fill="white"/>
<path d="M168.434 400.048C115.251 400.048 71.9985 356.795 71.9985 303.613C71.9985 250.43 115.251 207.177 168.434 207.177C221.617 207.177 264.869 250.43 264.869 303.613C264.869 356.795 221.617 400.048 168.434 400.048Z" fill="white"/>
<path d="M331.565 400.048C278.383 400.048 235.13 356.795 235.13 303.613C235.13 250.43 278.383 207.177 331.565 207.177C384.748 207.177 428.001 250.43 428.001 303.613C428.001 356.795 384.748 400.048 331.565 400.048Z" fill="white"/>
<path d="M261.989 272.132H238.01V424.596H261.989V272.132Z" fill="#5DBB4C"/>
<path d="M300.101 486.185H199.898L178.046 392.396H321.954L300.101 486.185Z" fill="#5DBB4C"/>
<path d="M168.434 222.047C213.481 222.047 250 185.529 250 140.481C250 95.4337 213.481 58.9155 168.434 58.9155C123.386 58.9155 86.8682 95.4337 86.8682 140.481C86.8682 185.529 123.386 222.047 168.434 222.047Z" fill="#F47421"/>
<path d="M331.565 222.047C376.613 222.047 413.131 185.529 413.131 140.481C413.131 95.4337 376.613 58.9155 331.565 58.9155C286.518 58.9155 250 95.4337 250 140.481C250 185.529 286.518 222.047 331.565 222.047Z" fill="#F47421"/>
<path d="M168.434 385.178C213.481 385.178 250 348.66 250 303.613C250 258.565 213.481 222.047 168.434 222.047C123.386 222.047 86.8682 258.565 86.8682 303.613C86.8682 348.66 123.386 385.178 168.434 385.178Z" fill="#F47421"/>
<path d="M331.565 385.178C376.613 385.178 413.131 348.66 413.131 303.613C413.131 258.565 376.613 222.047 331.565 222.047C286.518 222.047 250 258.565 250 303.613C250 348.66 286.518 385.178 331.565 385.178Z" fill="#F47421"/>
<path d="M250 313.157C300.319 313.157 341.111 272.366 341.111 222.047C341.111 171.728 300.319 130.936 250 130.936C199.681 130.936 158.89 171.728 158.89 222.047C158.89 272.366 199.681 313.157 250 313.157Z" fill="#F47421"/>
</svg>
