<svg width="500" height="500" viewBox="0 0 500 500" fill="none" xmlns="http://www.w3.org/2000/svg">
<path d="M261.989 248.086H238.01V400.551H261.989V248.086Z" fill="#5DBB4C"/>
<path d="M300.101 462.14H199.898L178.046 368.35H321.954L300.101 462.14Z" fill="#5DBB4C"/>
<path d="M168.434 198.001C213.481 198.001 250 161.483 250 116.435C250 71.3879 213.481 34.8697 168.434 34.8697C123.386 34.8697 86.8682 71.3879 86.8682 116.435C86.8682 161.483 123.386 198.001 168.434 198.001Z" fill="#F47421"/>
<path d="M331.565 198.001C376.613 198.001 413.131 161.483 413.131 116.435C413.131 71.3879 376.613 34.8697 331.565 34.8697C286.518 34.8697 250 71.3879 250 116.435C250 161.483 286.518 198.001 331.565 198.001Z" fill="#F47421"/>
<path d="M168.434 361.133C213.481 361.133 250 324.614 250 279.567C250 234.519 213.481 198.001 168.434 198.001C123.386 198.001 86.8682 234.519 86.8682 279.567C86.8682 324.614 123.386 361.133 168.434 361.133Z" fill="#F47421"/>
<path d="M331.565 361.133C376.613 361.133 413.131 324.614 413.131 279.567C413.131 234.519 376.613 198.001 331.565 198.001C286.518 198.001 250 234.519 250 279.567C250 324.614 286.518 361.133 331.565 361.133Z" fill="#F47421"/>
<path d="M250 289.112C300.319 289.112 341.111 248.32 341.111 198.001C341.111 147.682 300.319 106.891 250 106.891C199.681 106.891 158.89 147.682 158.89 198.001C158.89 248.32 199.681 289.112 250 289.112Z" fill="#F47421"/>
</svg>
