<svg xmlns="http://www.w3.org/2000/svg" width="500" height="500" fill="none" viewBox="0 0 500 500"><g clip-path="url(#a)"><g clip-path="url(#b)"><path fill="#df3b94" d="M48.547 427.819c55.399 55.344 145.214 55.344 200.614 0l.035-.035c.869.916 1.739 1.819 2.643 2.711 55.4 55.344 145.215 55.344 200.614.001s55.4-145.067 0-200.41a141 141 0 0 0-2.714-2.641l.035-.035L249.161 27 48.547 227.41c-55.4 55.343-55.4 145.066 0 200.409"/><path fill="#ff69ff" d="M74.232 376.514c48.302 48.253 126.626 48.253 174.928 0l.036-.036a85 85 0 0 0 2.303 2.36c48.303 48.253 126.626 48.253 174.929 0s48.303-126.497 0-174.751c-.776-.775-1.563-1.55-2.362-2.301l.035-.035L249.172 27 74.243 201.751c-48.303 48.254-48.303 126.497 0 174.751z"/><path fill="#ffcffe" d="M101.596 321.828c40.748 40.706 106.817 40.706 147.564 0l.024-.024c.634.669 1.281 1.338 1.939 1.996 40.747 40.706 106.816 40.706 147.564 0s40.748-106.708 0-147.414a101 101 0 0 0-1.998-1.937l.024-.023L249.149 27.012 101.585 174.426c-40.748 40.706-40.748 106.707 0 147.413z"/></g></g><defs><clipPath id="a"><path fill="#fff" d="M0 0h500v500H0z"/></clipPath><clipPath id="b"><path fill="#fff" d="M494 472H7V27h487z"/></clipPath></defs></svg>