<svg width="500" height="500" viewBox="0 0 500 500" fill="none" xmlns="http://www.w3.org/2000/svg">
<g clip-path="url(#clip0_70_692)">
<path d="M265.456 266.637H235.543V457.302H265.456V266.637Z" fill="#0065B1"/>
<path d="M148.75 204.004C204.945 204.004 250.5 158.336 250.5 102.002C250.5 45.6678 204.945 0 148.75 0C92.555 0 47 45.6678 47 102.002C47 158.336 92.555 204.004 148.75 204.004Z" fill="#AC75B1"/>
<path d="M352.25 204.004C408.445 204.004 454 158.336 454 102.002C454 45.6678 408.445 0 352.25 0C296.055 0 250.5 45.6678 250.5 102.002C250.5 158.336 296.055 204.004 352.25 204.004Z" fill="#AC75B1"/>
<path d="M148.75 408.008C204.945 408.008 250.5 362.34 250.5 306.006C250.5 249.672 204.945 204.004 148.75 204.004C92.555 204.004 47 249.672 47 306.006C47 362.34 92.555 408.008 148.75 408.008Z" fill="#AC75B1"/>
<path d="M352.25 408.008C408.445 408.008 454 362.34 454 306.006C454 249.672 408.445 204.004 352.25 204.004C296.055 204.004 250.5 249.672 250.5 306.006C250.5 362.34 296.055 408.008 352.25 408.008Z" fill="#AC75B1"/>
<path d="M250.5 317.942C313.271 317.942 364.157 266.93 364.157 204.004C364.157 141.078 313.271 90.0657 250.5 90.0657C187.73 90.0657 136.844 141.078 136.844 204.004C136.844 266.93 187.73 317.942 250.5 317.942Z" fill="#AC75B1"/>
<path d="M313 500H187.979L160.74 382.711H340.26L313 500Z" fill="#0065B1"/>
</g>
<defs>
<clipPath id="clip0_70_692">
<rect width="407" height="500" fill="white" transform="translate(47)"/>
</clipPath>
</defs>
</svg>
