<svg xmlns="http://www.w3.org/2000/svg" width="500" height="500" fill="none" viewBox="0 0 500 500"><g clip-path="url(#Base_20_svg_clip0_70_230)"><g clip-path="url(#Base_20_svg_clip1_70_230)"><path fill="#2d3791" d="M450.75 251.962C450.75 362.99 360.645 453 249.5 453c-50.506 0-96.675-18.582-132.011-49.286-42.416-36.859-69.239-91.177-69.239-151.738 0-111.042 90.105-201.052 201.25-201.052s201.25 90.01 201.25 201.038"/><path fill="#b1ffa1" d="M165.207 47c0 46.5 37.744 84.205 84.293 84.205S333.794 93.5 333.794 47z"/><path fill="#b1ffa1" d="M370.399 89.095c-29.772 35.75-24.895 88.843 10.892 118.584S470.228 232.548 500 196.798z"/><path fill="#b1ffa1" d="M128.601 89.095c29.772 35.75 24.895 88.843-10.892 118.584S28.772 232.548-1 196.798z"/></g></g><defs><clipPath id="Base_20_svg_clip0_70_230"><rect width="500" height="500" fill="#fff"/></clipPath><clipPath id="Base_20_svg_clip1_70_230"><rect width="501" height="406" fill="#fff" transform="translate(-1 47)"/></clipPath></defs></svg>