<svg xmlns="http://www.w3.org/2000/svg" width="500" height="500" fill="none" viewBox="0 0 500 500"><g clip-path="url(#Base_9_svg_a)"><g clip-path="url(#Base_9_svg_b)"><path fill="#ffb600" d="M452.453 71.28c-55.399-55.468-145.214-55.468-200.614 0l-.035.035a116 116 0 0 0-2.643-2.717c-55.4-55.468-145.215-55.468-200.614 0-55.4 55.467-55.4 145.392 0 200.86q1.339 1.34 2.714 2.647l-.035.035L251.839 473l200.614-200.86c55.4-55.468 55.4-145.392 0-200.86"/><path fill="#ffed6c" d="M426.768 122.701c-48.302-48.362-126.626-48.362-174.928 0l-.036.035a85 85 0 0 0-2.303-2.364c-48.303-48.363-126.626-48.363-174.929 0s-48.302 126.781 0 175.143c.776.777 1.563 1.553 2.362 2.306l-.035.035L251.828 473l174.929-175.144c48.303-48.362 48.303-126.781 0-175.143z"/><path fill="#fbcd5b" d="M399.404 177.51c-40.748-40.798-106.817-40.798-147.564 0l-.024.023c-.634-.67-1.281-1.341-1.939-2-40.747-40.798-106.816-40.798-147.564 0s-40.747 106.948 0 147.745c.658.659 1.328 1.306 1.998 1.942l-.024.023 147.564 147.745 147.564-147.745c40.748-40.798 40.748-106.947 0-147.745z"/></g></g><defs><clipPath id="Base_9_svg_a"><path fill="#fff" d="M0 0h500v500H0z"/></clipPath><clipPath id="Base_9_svg_b"><path fill="#fff" d="M7 27h487v446H7z"/></clipPath></defs></svg>