<svg width="500" height="500" viewBox="0 0 500 500" fill="none" xmlns="http://www.w3.org/2000/svg">
<g clip-path="url(#clip0_70_813)">
<path d="M250.013 0H131.38C131.38 0 214.938 76.2543 165.46 152.025C133.929 200.273 61 227.541 61 321.923C61 416.305 130.64 463 250.013 463V0Z" fill="#EE3B24"/>
<path d="M250.012 0H368.645C368.645 0 285.087 76.2543 334.564 152.025C366.096 200.298 439.024 227.541 439.024 321.923C439.024 416.305 369.384 463 250.012 463V0Z" fill="#EE3B24"/>
<path d="M248.507 446.807C295.725 446.807 334.003 435.59 334.003 421.754C334.003 407.917 295.725 396.701 248.507 396.701C201.289 396.701 163.012 407.917 163.012 421.754C163.012 435.59 201.289 446.807 248.507 446.807Z" fill="#F4A6C8"/>
</g>
<defs>
<clipPath id="clip0_70_813">
<rect width="378" height="463" fill="white" transform="translate(61)"/>
</clipPath>
</defs>
</svg>
