<svg width="500" height="500" viewBox="0 0 500 500" fill="none" xmlns="http://www.w3.org/2000/svg">
<path d="M385.835 32.3395C385.835 32.3395 311.715 25.0427 270.488 66.269C229.279 107.479 236.559 181.549 236.559 181.616C236.626 181.616 310.696 188.896 351.906 147.686C393.115 106.477 385.835 32.3896 385.835 32.3395Z" fill="#5DBB4C"/>
<path d="M329.697 136.499C299.825 136.499 272.241 146.317 250 162.898C227.759 146.317 200.174 136.499 170.319 136.499C96.599 136.499 36.8384 196.26 36.8384 269.98C36.8384 343.7 96.599 403.46 170.319 403.46C200.191 403.46 227.775 393.642 250 377.061C272.241 393.642 299.825 403.46 329.697 403.46C403.417 403.46 463.178 343.7 463.178 269.98C463.178 196.26 403.417 136.499 329.697 136.499Z" fill="#EF3C23"/>
</svg>
