<svg width="500" height="500" viewBox="0 0 500 500" fill="none" xmlns="http://www.w3.org/2000/svg">
<g clip-path="url(#clip0_70_472)">
<path d="M320.647 133.673L368.835 197.395L445.929 139.191C461.792 127.21 463.895 103.182 450.6 85.6023C437.319 68.0363 413.604 63.4885 397.74 75.4563L320.647 133.66M267.973 119.232L371.643 40.9624C404.74 15.9763 454.034 25.4309 481.754 62.0923C509.475 98.7403 505.123 148.713 472.026 173.699L368.369 251.968C365.841 253.883 362.061 253.152 359.932 250.346L267.241 127.769C265.112 124.963 265.458 121.133 267.987 119.219L267.973 119.232Z" fill="#F99D1C"/>
<path d="M1.00031 320.809L361.902 48.316C415.068 118.62 429.042 205.201 406.418 278.231L432.262 312.405C442.084 325.397 440.54 343.123 428.815 351.979L275.094 468.053C263.356 476.909 245.882 473.559 236.048 460.567L210.203 426.392C133.709 428.187 54.1794 391.114 1.00031 320.809Z" fill="#EFEB59"/>
</g>
<defs>
<clipPath id="clip0_70_472">
<rect width="499" height="446" fill="white" transform="matrix(-1 0 0 1 500 27)"/>
</clipPath>
</defs>
</svg>
