<svg width="500" height="500" viewBox="0 0 500 500" fill="none" xmlns="http://www.w3.org/2000/svg">
<path d="M329.698 395.282C301.061 395.282 273.677 387.083 250.017 371.505C226.34 387.083 198.972 395.282 170.319 395.282C90.1874 395.282 25 330.095 25 249.98C25 169.865 90.1874 104.66 170.319 104.66C189.705 104.66 208.874 108.551 226.607 115.981C230.447 90.2338 239.948 60.0779 262.139 37.8868C295.1 4.92579 345.477 0 372.56 0C376.184 0 379.657 0.0834879 382.913 0.267161C384.182 0.333952 385.15 0.400742 385.818 0.450835C395.202 1.18553 397.156 8.08163 397.557 11.0204H397.59C397.657 11.6382 403.501 67.8757 377.803 112.859C403.017 121.742 425.625 137.571 442.607 158.527C463.495 184.275 475 216.751 475 249.963C475 330.095 409.813 395.282 329.681 395.282H329.698Z" fill="white"/>
<path d="M385.835 12.3395C385.835 12.3395 311.715 5.04269 270.488 46.269C229.279 87.4787 236.559 161.549 236.559 161.616C236.626 161.616 310.696 168.896 351.906 127.686C393.115 86.4768 385.835 12.3896 385.835 12.3395Z" fill="#5DBB4C"/>
<path d="M329.697 116.499C299.825 116.499 272.241 126.317 250 142.898C227.759 126.317 200.174 116.499 170.319 116.499C96.599 116.499 36.8384 176.26 36.8384 249.98C36.8384 323.7 96.599 383.46 170.319 383.46C200.191 383.46 227.775 373.642 250 357.061C272.241 373.642 299.825 383.46 329.697 383.46C403.417 383.46 463.178 323.7 463.178 249.98C463.178 176.26 403.417 116.499 329.697 116.499Z" fill="#EF3C23"/>
</svg>
