<svg width="500" height="500" viewBox="0 0 500 500" fill="none" xmlns="http://www.w3.org/2000/svg">
<path d="M142.113 449.983V388.407H219.255V310.823C148.454 296.418 96.2749 233.338 96.2749 160.015V0H403.725V160.015C403.725 233.338 351.546 296.419 280.745 310.839V388.424H354.967V450H142.113V449.983Z" fill="white"/>
<path d="M231.086 300.964V400.254H153.944V438.153H343.153V400.254H268.931V300.964C262.74 301.782 256.433 302.25 250.009 302.25C243.584 302.25 237.277 301.782 231.086 300.947V300.964Z" fill="#9F1D20"/>
<path d="M107.104 11.8307V160.182C107.104 239.22 171.081 303.286 250.008 303.286C328.936 303.286 392.913 239.22 392.913 160.182V11.8307H107.104Z" fill="#EF3C23"/>
</svg>
