<svg xmlns="http://www.w3.org/2000/svg" width="500" height="500" fill="none" viewBox="0 0 500 500"><g clip-path="url(#a)"><g clip-path="url(#b)"><path fill="#2d3791" d="M450.75 251.962C450.75 362.99 360.645 453 249.5 453c-50.506 0-96.675-18.582-132.011-49.286-42.416-36.859-69.239-91.177-69.239-151.738 0-111.042 90.105-201.052 201.25-201.052s201.25 90.01 201.25 201.038"/><path fill="#b1ffa1" d="M165.207 47c0 46.5 37.744 84.205 84.293 84.205S333.794 93.5 333.794 47zm205.192 42.095c-29.772 35.75-24.895 88.843 10.892 118.584S470.228 232.548 500 196.798zm-241.798 0c29.772 35.75 24.895 88.843-10.892 118.584S28.772 232.548-1 196.798z"/></g></g><defs><clipPath id="a"><path fill="#fff" d="M0 0h500v500H0z"/></clipPath><clipPath id="b"><path fill="#fff" d="M-1 47h501v406H-1z"/></clipPath></defs></svg>