<svg width="500" height="500" viewBox="0 0 500 500" fill="none" xmlns="http://www.w3.org/2000/svg">
<g clip-path="url(#clip0_70_775)">
<path d="M250.51 406.425C150.791 406.425 68.7534 330.715 58.6239 233.593C57.9189 240.26 57.5664 247.038 57.5664 253.89C57.5664 360.557 143.946 447.019 250.51 447.019C357.074 447.019 443.453 360.557 443.453 253.89C443.453 247.038 443.082 240.26 442.396 233.593C432.266 330.715 350.228 406.425 250.51 406.425Z" fill="#F89C1C"/>
<path d="M473.118 233.668L250.509 53L27.9008 233.668C10.7028 246.481 1 260.966 1 276.323C1 328.43 112.703 370.677 250.509 370.677C388.315 370.677 500.019 328.43 500.019 276.323C500.019 260.966 490.316 246.481 473.118 233.668Z" fill="#F4A6C8"/>
</g>
<defs>
<clipPath id="clip0_70_775">
<rect width="499" height="394" fill="white" transform="translate(1 53)"/>
</clipPath>
</defs>
</svg>
