<svg width="500" height="500" viewBox="0 0 500 500" fill="none" xmlns="http://www.w3.org/2000/svg">
<g clip-path="url(#clip0_70_751)">
<path d="M250.011 261.328C315.394 261.328 368.397 208.2 368.397 142.664C368.397 77.1277 315.394 24 250.011 24C184.628 24 131.625 77.1277 131.625 142.664C131.625 208.2 184.628 261.328 250.011 261.328Z" fill="#EFEB59"/>
<path d="M137.41 343.328C202.792 343.328 255.796 290.201 255.796 224.664C255.796 159.128 202.792 106 137.41 106C72.0267 106 19.0234 159.128 19.0234 224.664C19.0234 290.201 72.0267 343.328 137.41 343.328Z" fill="#EFEB59"/>
<path d="M180.429 475.976C245.812 475.976 298.815 422.848 298.815 357.312C298.815 291.775 245.812 238.648 180.429 238.648C115.046 238.648 62.043 291.775 62.043 357.312C62.043 422.848 115.046 475.976 180.429 475.976Z" fill="#EFEB59"/>
<path d="M319.597 475.976C384.98 475.976 437.983 422.848 437.983 357.312C437.983 291.775 384.98 238.648 319.597 238.648C254.214 238.648 201.211 291.775 201.211 357.312C201.211 422.848 254.214 475.976 319.597 475.976Z" fill="#EFEB59"/>
<path d="M362.589 343.328C427.972 343.328 480.975 290.201 480.975 224.664C480.975 159.128 427.972 106 362.589 106C297.206 106 244.203 159.128 244.203 224.664C244.203 290.201 297.206 343.328 362.589 343.328Z" fill="#EFEB59"/>
<path d="M250.013 260.159C308.711 260.159 356.296 212.463 356.296 153.627C356.296 94.7906 308.711 47.0945 250.013 47.0945C191.315 47.0945 143.73 94.7906 143.73 153.627C143.73 212.463 191.315 260.159 250.013 260.159Z" fill="#F89C1C"/>
<path d="M148.931 333.779C207.629 333.779 255.214 286.083 255.214 227.247C255.214 168.411 207.629 120.714 148.931 120.714C90.2328 120.714 42.6484 168.411 42.6484 227.247C42.6484 286.083 90.2328 333.779 148.931 333.779Z" fill="#F89C1C"/>
<path d="M187.525 452.881C246.223 452.881 293.807 405.185 293.807 346.349C293.807 287.513 246.223 239.817 187.525 239.817C128.827 239.817 81.2422 287.513 81.2422 346.349C81.2422 405.185 128.827 452.881 187.525 452.881Z" fill="#F89C1C"/>
<path d="M312.474 452.881C371.172 452.881 418.757 405.185 418.757 346.349C418.757 287.513 371.172 239.817 312.474 239.817C253.776 239.817 206.191 287.513 206.191 346.349C206.191 405.185 253.776 452.881 312.474 452.881Z" fill="#F89C1C"/>
<path d="M351.095 333.779C409.793 333.779 457.378 286.083 457.378 227.247C457.378 168.411 409.793 120.714 351.095 120.714C292.397 120.714 244.812 168.411 244.812 227.247C244.812 286.083 292.397 333.779 351.095 333.779Z" fill="#F89C1C"/>
</g>
<defs>
<clipPath id="clip0_70_751">
<rect width="462" height="452" fill="white" transform="translate(19 24)"/>
</clipPath>
</defs>
</svg>
