<svg xmlns="http://www.w3.org/2000/svg" width="500" height="500" fill="none" viewBox="0 0 500 500"><g clip-path="url(#Base_21_svg_a)"><g clip-path="url(#Base_21_svg_b)"><path fill="#2d3791" d="M405.725 245.263c52.075 0 94.289-42.257 94.289-94.384S457.8 56.494 405.725 56.494c-52.074 0-94.288 42.257-94.288 94.385 0 52.127 42.214 94.384 94.288 94.384m-310.436 0c52.074 0 94.289-42.257 94.289-94.384s-42.215-94.385-94.29-94.385C43.216 56.494 1 98.75 1 150.879c0 52.127 42.215 94.384 94.289 94.384"/><path fill="#ffcf4b" d="M445.055 251.254C445.055 358.832 357.948 446 250.507 446c-107.44 0-194.562-87.182-194.562-194.746a196 196 0 0 1 4.565-42.115c19.234-87.321 97.017-152.645 189.997-152.645s170.75 65.324 189.997 152.645a196 196 0 0 1 4.565 42.115z"/><path fill="#2d3791" d="M443.608 209.139H57.406C76.96 120.397 155.995 54 250.507 54c94.511 0 173.547 66.397 193.101 155.139"/><path fill="#ff71ee" d="M381.718 380.509c27.786 0 50.31-8.495 50.31-18.975 0-10.479-22.524-18.974-50.31-18.974s-50.311 8.495-50.311 18.974 22.525 18.975 50.311 18.975m-262.422 0c27.786 0 50.31-8.495 50.31-18.975 0-10.479-22.524-18.974-50.31-18.974s-50.31 8.495-50.31 18.974 22.524 18.975 50.31 18.975"/></g></g><defs><clipPath id="Base_21_svg_a"><path fill="#fff" d="M0 0h500v500H0z"/></clipPath><clipPath id="Base_21_svg_b"><path fill="#fff" d="M1 54h499v392H1z"/></clipPath></defs></svg>