<svg width="500" height="500" viewBox="0 0 500 500" fill="none" xmlns="http://www.w3.org/2000/svg">
<g clip-path="url(#clip0_70_799)">
<path d="M138.283 38H250.012H361.741C361.741 38 283.046 110.137 329.643 181.816C359.34 227.483 428.024 253.255 428.024 342.541C428.024 431.827 362.437 476 250.012 476C137.587 476 72 431.827 72 342.541C72 253.255 140.684 227.459 170.381 181.816C216.978 110.137 138.283 38 138.283 38Z" fill="#F4A6C8"/>
<path d="M248.594 460.681C293.063 460.681 329.113 450.07 329.113 436.981C329.113 423.892 293.063 413.281 248.594 413.281C204.124 413.281 168.074 423.892 168.074 436.981C168.074 450.07 204.124 460.681 248.594 460.681Z" fill="#AC75B1"/>
</g>
<defs>
<clipPath id="clip0_70_799">
<rect width="356" height="438" fill="white" transform="translate(72 38)"/>
</clipPath>
</defs>
</svg>
