<svg width="500" height="500" viewBox="0 0 500 500" fill="none" xmlns="http://www.w3.org/2000/svg">
<g clip-path="url(#clip0_70_430)">
<path d="M180.353 133.673L132.165 197.395L55.071 139.191C39.2078 127.21 37.1051 103.182 50.3999 85.6023C63.6813 68.0363 87.3963 63.4885 103.26 75.4563L180.353 133.66M233.027 119.232L129.357 40.9624C96.2595 15.9763 46.9664 25.4309 19.2456 62.0923C-8.47512 98.7403 -4.12338 148.713 28.9738 173.699L132.631 251.968C135.159 253.883 138.939 253.152 141.068 250.346L233.759 127.769C235.888 124.963 235.542 121.133 233.013 119.219L233.027 119.232Z" fill="#319ED7"/>
<path d="M500 320.809L139.098 48.316C85.9319 118.62 71.9584 205.201 94.5822 278.231L68.7379 312.405C58.9165 325.397 60.4602 343.123 72.1846 351.979L225.906 468.053C237.644 476.909 255.118 473.559 264.952 460.567L290.797 426.392C367.291 428.187 446.821 391.114 500 320.809Z" fill="#1F69AF"/>
</g>
<defs>
<clipPath id="clip0_70_430">
<rect width="499" height="446" fill="white" transform="translate(1 27)"/>
</clipPath>
</defs>
</svg>
