<svg width="500" height="500" viewBox="0 0 500 500" fill="none" xmlns="http://www.w3.org/2000/svg">
<g clip-path="url(#clip0_70_591)">
<g clip-path="url(#clip1_70_591)">
<path d="M250.5 463C388.295 463 500 367.413 500 249.5C500 131.587 388.295 36 250.5 36C112.705 36 1 131.587 1 249.5C1 367.413 112.705 463 250.5 463Z" fill="#82FF64"/>
<path d="M250.5 418.298C388.295 418.298 500 342.724 500 249.5C500 156.276 388.295 80.7022 250.5 80.7022C112.705 80.7022 1 156.276 1 249.5C1 342.724 112.705 418.298 250.5 418.298Z" fill="#5CB94B"/>
<path d="M250.5 354.825C388.295 354.825 500 307.669 500 249.5C500 191.331 388.295 144.175 250.5 144.175C112.705 144.175 1 191.331 1 249.5C1 307.669 112.705 354.825 250.5 354.825Z" fill="#82FF64"/>
<path d="M250.5 279.936C388.295 279.936 500 266.31 500 249.5C500 232.69 388.295 219.064 250.5 219.064C112.705 219.064 1 232.69 1 249.5C1 266.31 112.705 279.936 250.5 279.936Z" fill="#5CB94B"/>
</g>
</g>
<defs>
<clipPath id="clip0_70_591">
<rect width="500" height="500" fill="white"/>
</clipPath>
<clipPath id="clip1_70_591">
<rect width="499" height="427" fill="white" transform="translate(1 36)"/>
</clipPath>
</defs>
</svg>
