<svg width="500" height="500" viewBox="0 0 500 500" fill="none" xmlns="http://www.w3.org/2000/svg">
<path d="M76.119 475C52.6938 475 37.9473 473.589 37.3299 473.536L27.4871 472.584L26.464 462.759C26.2347 460.607 5.63179 246.56 126.092 126.105C214.06 38.1409 350.43 25 423.898 25C436.193 25 446.018 25.3881 452.086 25.7232C455.455 25.8996 458.066 26.0936 459.848 26.2347C460.765 26.3053 461.453 26.3582 461.911 26.4111C470.255 27.1519 473.06 33.2902 473.518 37.2942C473.571 37.8234 478.81 91.5158 469.179 159.884C456.461 250.282 423.51 324.294 373.891 373.912C285.923 461.877 149.57 475.018 76.1014 475.018L76.119 475Z" fill="white"/>
<path d="M461.506 38.4937C461.506 38.4937 251.455 17.8387 134.647 134.643C17.8737 251.411 38.4766 461.33 38.4942 461.506C38.6706 461.506 248.598 482.126 365.371 365.358C482.144 248.571 461.524 38.6348 461.506 38.4937Z" fill="#FFD04C"/>
</svg>
