<svg xmlns="http://www.w3.org/2000/svg" width="500" height="500" fill="none" viewBox="0 0 500 500"><g clip-path="url(#a)"><g clip-path="url(#b)"><path fill="#5cb94b" d="m221.781 435.451-115.187-.217 125.382-56.992-11.127-24.312-126.763 57.611 57.61-126.763-24.311-11.127-56.992 125.381-.217-115.186-26.699-.05.286 151.303c.027 14.748 12 26.721 26.749 26.749l151.302.285-.05-26.698z"/><path fill="#3e962c" d="m209.948 462.127 256.359.484C465.867 229.276 276.361 39.77 43.026 39.329l.483 256.36c91.749.173 166.266 74.69 166.431 166.43z"/></g></g><defs><clipPath id="a"><path fill="#fff" d="M0 0h500v500H0z"/></clipPath><clipPath id="b"><path fill="#fff" d="m130.371-48 423.281 423.281-290.371 290.371L-160 242.372z"/></clipPath></defs></svg>