<svg width="500" height="500" viewBox="0 0 500 500" fill="none" xmlns="http://www.w3.org/2000/svg">
<g clip-path="url(#clip0_84_99)">
<g clip-path="url(#clip1_84_99)">
<path d="M250 462.031C389.728 462.031 503 379.685 503 278.105C503 176.526 389.728 94.1796 250 94.1796C110.272 94.1796 -3 176.526 -3 278.105C-3 379.685 110.272 462.031 250 462.031Z" fill="#EE3B24"/>
<path d="M144.773 187.812L-3 38V286.938L144.773 187.812Z" fill="#EE3B24"/>
<path d="M355.227 187.812L502.999 38V286.938L355.227 187.812Z" fill="#EE3B24"/>
<path d="M250.001 238.343C321.217 238.343 378.948 212.813 378.948 181.32C378.948 149.828 321.217 124.298 250.001 124.298C178.786 124.298 121.055 149.828 121.055 181.32C121.055 212.813 178.786 238.343 250.001 238.343Z" fill="#F4A6C8"/>
<path d="M250.001 410.408H236.473C226.935 410.408 222.135 421.956 228.899 428.729L242.427 442.275C246.603 446.457 253.398 446.457 257.575 442.275L271.102 428.729C277.866 421.956 273.066 410.408 263.528 410.408H250.001Z" fill="#F4A6C8"/>
</g>
</g>
<defs>
<clipPath id="clip0_84_99">
<rect width="500" height="500" fill="white" transform="matrix(-1 0 0 1 500 0)"/>
</clipPath>
<clipPath id="clip1_84_99">
<rect width="506" height="424" fill="white" transform="translate(-3 38)"/>
</clipPath>
</defs>
</svg>
