<svg width="500" height="500" viewBox="0 0 500 500" fill="none" xmlns="http://www.w3.org/2000/svg">
<g clip-path="url(#clip0_70_230)">
<g clip-path="url(#clip1_70_230)">
<path d="M450.75 251.962C450.75 362.99 360.645 453 249.5 453C198.994 453 152.825 434.418 117.489 403.714C75.0726 366.855 48.25 312.537 48.25 251.976C48.25 140.934 138.355 50.9236 249.5 50.9236C360.645 50.9236 450.75 140.934 450.75 251.962Z" fill="#2D3791"/>
<path d="M165.207 47C165.207 93.5 202.951 131.205 249.5 131.205C296.049 131.205 333.794 93.5 333.794 47H165.207Z" fill="#B1FFA1"/>
<path d="M370.399 89.095C340.627 124.845 345.504 177.938 381.291 207.679C417.079 237.42 470.228 232.548 500 196.798L370.399 89.095Z" fill="#B1FFA1"/>
<path d="M128.601 89.095C158.373 124.845 153.496 177.938 117.709 207.679C81.9208 237.42 28.7721 232.548 -1 196.798L128.601 89.095Z" fill="#B1FFA1"/>
</g>
</g>
<defs>
<clipPath id="clip0_70_230">
<rect width="500" height="500" fill="white"/>
</clipPath>
<clipPath id="clip1_70_230">
<rect width="501" height="406" fill="white" transform="translate(-1 47)"/>
</clipPath>
</defs>
</svg>
