<svg width="500" height="500" viewBox="0 0 500 500" fill="none" xmlns="http://www.w3.org/2000/svg">
<g clip-path="url(#clip0_70_572)">
<path d="M249.5 483.014C297.278 483.014 336.011 448.125 336.011 405.087C336.011 362.049 297.278 327.159 249.5 327.159C201.721 327.159 162.988 362.049 162.988 405.087C162.988 448.125 201.721 483.014 249.5 483.014Z" fill="#FF69FF"/>
<path d="M249.501 84.4533C269.881 84.4533 286.402 69.5772 286.402 51.2266C286.402 32.8761 269.881 18 249.501 18C229.121 18 212.6 32.8761 212.6 51.2266C212.6 69.5772 229.121 84.4533 249.501 84.4533Z" fill="#FF69FF"/>
<path d="M386.889 147C371.111 91.9203 315.579 51.2266 249.5 51.2266C183.421 51.2266 127.889 91.9203 112.111 147L34 405.087H465L386.889 147Z" fill="#F4A6C8"/>
</g>
<defs>
<clipPath id="clip0_70_572">
<rect width="431" height="465" fill="white" transform="translate(34 18)"/>
</clipPath>
</defs>
</svg>
