<svg width="500" height="500" viewBox="0 0 500 500" fill="none" xmlns="http://www.w3.org/2000/svg">
<path d="M275.804 414.365V234.271H224.178V414.365H275.804Z" fill="white"/>
<path d="M188.93 475.954L160.647 354.535H339.351L311.069 475.954H188.93Z" fill="white"/>
<path d="M168.434 212.871C115.251 212.871 71.9985 169.618 71.9985 116.435C71.9985 63.2528 115.251 20 168.434 20C221.617 20 264.869 63.2528 264.869 116.435C264.869 169.618 221.617 212.871 168.434 212.871Z" fill="white"/>
<path d="M331.565 212.871C278.383 212.871 235.13 169.618 235.13 116.435C235.13 63.2528 278.383 20 331.565 20C384.748 20 428.001 63.2528 428.001 116.435C428.001 169.618 384.748 212.871 331.565 212.871Z" fill="white"/>
<path d="M168.434 376.002C115.251 376.002 71.9985 332.749 71.9985 279.567C71.9985 226.384 115.251 183.131 168.434 183.131C221.617 183.131 264.869 226.384 264.869 279.567C264.869 332.749 221.617 376.002 168.434 376.002Z" fill="white"/>
<path d="M331.565 376.002C278.383 376.002 235.13 332.749 235.13 279.567C235.13 226.384 278.383 183.131 331.565 183.131C384.748 183.131 428.001 226.384 428.001 279.567C428.001 332.749 384.748 376.002 331.565 376.002Z" fill="white"/>
<path d="M261.989 248.086H238.01V400.551H261.989V248.086Z" fill="#5DBB4C"/>
<path d="M300.101 462.14H199.898L178.046 368.35H321.954L300.101 462.14Z" fill="#5DBB4C"/>
<path d="M168.434 198.001C213.481 198.001 250 161.483 250 116.435C250 71.3879 213.481 34.8697 168.434 34.8697C123.386 34.8697 86.8682 71.3879 86.8682 116.435C86.8682 161.483 123.386 198.001 168.434 198.001Z" fill="#F47421"/>
<path d="M331.565 198.001C376.613 198.001 413.131 161.483 413.131 116.435C413.131 71.3879 376.613 34.8697 331.565 34.8697C286.518 34.8697 250 71.3879 250 116.435C250 161.483 286.518 198.001 331.565 198.001Z" fill="#F47421"/>
<path d="M168.434 361.133C213.481 361.133 250 324.614 250 279.567C250 234.519 213.481 198.001 168.434 198.001C123.386 198.001 86.8682 234.519 86.8682 279.567C86.8682 324.614 123.386 361.133 168.434 361.133Z" fill="#F47421"/>
<path d="M331.565 361.133C376.613 361.133 413.131 324.614 413.131 279.567C413.131 234.519 376.613 198.001 331.565 198.001C286.518 198.001 250 234.519 250 279.567C250 324.614 286.518 361.133 331.565 361.133Z" fill="#F47421"/>
<path d="M250 289.112C300.319 289.112 341.111 248.32 341.111 198.001C341.111 147.682 300.319 106.891 250 106.891C199.681 106.891 158.89 147.682 158.89 198.001C158.89 248.32 199.681 289.112 250 289.112Z" fill="#F47421"/>
</svg>
