<svg width="500" height="500" viewBox="0 0 500 500" fill="none" xmlns="http://www.w3.org/2000/svg">
<path d="M329.698 415.282C301.061 415.282 273.677 407.083 250.017 391.505C226.34 407.083 198.972 415.282 170.319 415.282C90.1874 415.282 25 350.095 25 269.98C25 189.865 90.1874 124.66 170.319 124.66C189.705 124.66 208.874 128.551 226.607 135.981C230.447 110.234 239.948 80.0779 262.139 57.8868C295.1 24.9258 345.477 20 372.56 20C376.184 20 379.657 20.0835 382.913 20.2672C384.182 20.334 385.15 20.4007 385.818 20.4508C395.202 21.1855 397.156 28.0816 397.557 31.0204H397.59C397.657 31.6382 403.501 87.8757 377.803 132.859C403.017 141.742 425.625 157.571 442.607 178.527C463.495 204.275 475 236.751 475 269.963C475 350.095 409.813 415.282 329.681 415.282H329.698Z" fill="white"/>
<path d="M385.835 32.3395C385.835 32.3395 311.715 25.0427 270.488 66.269C229.279 107.479 236.559 181.549 236.559 181.616C236.626 181.616 310.696 188.896 351.906 147.686C393.115 106.477 385.835 32.3896 385.835 32.3395Z" fill="#5DBB4C"/>
<path d="M329.697 136.499C299.825 136.499 272.241 146.317 250 162.898C227.759 146.317 200.174 136.499 170.319 136.499C96.599 136.499 36.8384 196.26 36.8384 269.98C36.8384 343.7 96.599 403.46 170.319 403.46C200.191 403.46 227.775 393.642 250 377.061C272.241 393.642 299.825 403.46 329.697 403.46C403.417 403.46 463.178 343.7 463.178 269.98C463.178 196.26 403.417 136.499 329.697 136.499Z" fill="#EF3C23"/>
</svg>
