<svg xmlns="http://www.w3.org/2000/svg" width="500" height="500" fill="none" viewBox="0 0 500 500"><g clip-path="url(#Base_27_svg_a)"><g clip-path="url(#Base_27_svg_b)"><path fill="#ff3c00" d="M457.795 112.651C453.164 75.157 420.207 47 380.978 47H119.037c-39.23 0-72.2 28.157-76.817 65.651L0 453h81.289l13.284-55.488h310.868L418.726 453h81.288zm-65.551 229.374H107.756c-5.111 0-9.002-4.741-8.16-9.946 1.481-9.12 3.63-22.387 4.937-30.477.667-4.118 4.108-7.134 8.159-7.134h274.616c4.036 0 7.491 3.016 8.159 7.134 1.307 8.09 3.456 21.371 4.937 30.477.842 5.205-3.049 9.946-8.16 9.946"/><path fill="#2d3791" d="M250.008 95.89c23.012 0 41.668-6.99 41.668-15.615S273.02 64.66 250.008 64.66c-23.013 0-41.668 6.991-41.668 15.615s18.655 15.615 41.668 15.615"/></g></g><defs><clipPath id="Base_27_svg_a"><path fill="#fff" d="M0 0h500v500H0z"/></clipPath><clipPath id="Base_27_svg_b"><path fill="#fff" d="M0 47h500v406H0z"/></clipPath></defs></svg>