<svg width="500" height="500" viewBox="0 0 500 500" fill="none" xmlns="http://www.w3.org/2000/svg">
<g clip-path="url(#clip0_84_26)">
<path d="M50.5504 261.32C44.4513 261.32 38.4362 261.628 32.4771 262.188C27.1055 277.229 24 293.671 24 311.821C24 418.397 116.8 461.028 250 461.028C250 350.754 160.697 261.348 50.5504 261.348V261.32Z" fill="#672ADD"/>
<path d="M282.201 38H217.798C227.366 118.555 70.9732 154.52 32.4766 262.188C38.4357 261.656 44.4508 261.32 50.5498 261.32C160.696 261.32 249.999 350.726 249.999 461C249.999 350.726 339.303 261.32 449.449 261.32C455.548 261.32 461.563 261.628 467.522 262.188C429.026 154.52 272.633 118.555 282.201 38Z" fill="#A56CFF"/>
<path d="M449.45 261.32C455.549 261.32 461.564 261.628 467.523 262.188C472.895 277.229 476 293.671 476 311.821C476 418.397 383.2 461.028 250 461.028C250 350.754 339.303 261.348 449.45 261.348V261.32Z" fill="#672ADD"/>
</g>
<defs>
<clipPath id="clip0_84_26">
<rect width="452" height="423" fill="white" transform="translate(24 38)"/>
</clipPath>
</defs>
</svg>
