<svg xmlns="http://www.w3.org/2000/svg" width="500" height="500" fill="none" viewBox="0 0 500 500"><g clip-path="url(#Base_36_svg_clip0_70_466)"><g clip-path="url(#Base_36_svg_clip1_70_466)"><path fill="#e03c96" d="m180.353 133.673-48.188 63.722-77.094-58.204C39.208 127.21 37.105 103.182 50.4 85.602c13.281-17.566 36.996-22.114 52.86-10.146l77.093 58.204m52.674-14.428-103.67-78.27C96.26 15.976 46.967 25.431 19.246 62.092-8.475 98.74-4.124 148.713 28.974 173.7l103.657 78.269c2.528 1.915 6.308 1.184 8.437-1.622l92.691-122.577c2.129-2.806 1.783-6.636-.746-8.55z"/><path fill="#f4a6c8" d="M500 320.809 139.098 48.316c-53.166 70.304-67.14 156.885-44.516 229.915l-25.844 34.174c-9.821 12.992-8.278 30.718 3.447 39.574l153.721 116.074c11.738 8.856 29.212 5.506 39.046-7.486l25.845-34.175c76.494 1.795 156.024-35.278 209.203-105.583"/></g></g><defs><clipPath id="Base_36_svg_clip0_70_466"><rect width="500" height="500" fill="#fff"/></clipPath><clipPath id="Base_36_svg_clip1_70_466"><rect width="499" height="446" fill="#fff" transform="translate(1 27)"/></clipPath></defs></svg>