<svg xmlns="http://www.w3.org/2000/svg" width="500" height="500" fill="none" viewBox="0 0 500 500"><g clip-path="url(#Base_50_svg_clip0_70_624)"><g clip-path="url(#Base_50_svg_clip1_70_624)"><path fill="#ff69ff" d="m278.219 435.451 115.187-.217-125.382-56.992 11.127-24.312 126.763 57.611-57.61-126.763 24.311-11.127 56.992 125.381.217-115.186 26.699-.05-.286 151.303c-.027 14.748-12.001 26.721-26.749 26.749l-151.302.285.05-26.698z"/><path fill="#e03c96" d="m290.052 462.127-256.36.484C34.134 229.276 223.64 39.77 456.975 39.329l-.483 256.36c-91.749.173-166.266 74.69-166.431 166.43z"/></g></g><defs><clipPath id="Base_50_svg_clip0_70_624"><rect width="500" height="500" fill="#fff" transform="matrix(-1 0 0 1 500 0)"/></clipPath><clipPath id="Base_50_svg_clip1_70_624"><rect width="598.61" height="410.647" fill="#fff" transform="rotate(135 194.756 52.553)scale(1 -1)"/></clipPath></defs></svg>