<svg width="500" height="500" viewBox="0 0 500 500" fill="none" xmlns="http://www.w3.org/2000/svg">
<g clip-path="url(#clip0_84_64)">
<path d="M109.21 380.465C169.525 380.465 218.42 331.526 218.42 271.156C218.42 210.787 169.525 161.848 109.21 161.848C48.895 161.848 0 210.787 0 271.156C0 331.526 48.895 380.465 109.21 380.465Z" fill="#00A352"/>
<path d="M390.788 380.465C451.103 380.465 499.998 331.526 499.998 271.156C499.998 210.787 451.103 161.848 390.788 161.848C330.473 161.848 281.578 210.787 281.578 271.156C281.578 331.526 330.473 380.465 390.788 380.465Z" fill="#00A352"/>
<path d="M249.987 349.879C328.307 349.879 391.798 286.33 391.798 207.939C391.798 129.548 328.307 66 249.987 66C171.667 66 108.176 129.548 108.176 207.939C108.176 286.33 171.667 349.879 249.987 349.879Z" fill="#00A352"/>
<path d="M288.451 256.261H211.523V435H288.451V256.261Z" fill="#00A352"/>
<path d="M258.448 435H181.521C181.521 434.522 179.479 380.439 106.637 380.439V303.442C217.226 303.442 258.448 386.997 258.448 435Z" fill="#00A352"/>
<path d="M318.478 435H241.551C241.551 386.997 282.773 303.442 393.363 303.442V380.439C320.52 380.439 318.478 434.522 318.478 435Z" fill="#00A352"/>
<path d="M249.986 369.102C320.277 369.102 377.26 312.067 377.26 241.712C377.26 171.356 320.277 114.322 249.986 114.322C179.694 114.322 122.711 171.356 122.711 241.712C122.711 312.067 179.694 369.102 249.986 369.102Z" fill="#5CB94B"/>
<path d="M151.442 369.101C203.538 369.101 245.771 326.831 245.771 274.688C245.771 222.544 203.538 180.274 151.442 180.274C99.3456 180.274 57.1133 222.544 57.1133 274.688C57.1133 326.831 99.3456 369.101 151.442 369.101Z" fill="#5CB94B"/>
<path d="M348.563 369.101C400.659 369.101 442.892 326.831 442.892 274.688C442.892 222.544 400.659 180.274 348.563 180.274C296.467 180.274 254.234 222.544 254.234 274.688C254.234 326.831 296.467 369.101 348.563 369.101Z" fill="#5CB94B"/>
</g>
<defs>
<clipPath id="clip0_84_64">
<rect width="500" height="369" fill="white" transform="translate(0 66)"/>
</clipPath>
</defs>
</svg>
