<svg width="500" height="500" viewBox="0 0 500 500" fill="none" xmlns="http://www.w3.org/2000/svg">
<g clip-path="url(#clip0_84_123)">
<path d="M249.508 31C138.284 31 48 121.112 48 232.108V469H451V232.108C451 121.112 360.716 31 249.508 31Z" fill="#0065B1"/>
<path d="M217.938 99.6164C124.147 99.6164 48.0003 175.619 48.0003 269.23V469H387.859V269.23C387.859 175.619 311.712 99.6164 217.922 99.6164H217.938Z" fill="#2D3791"/>
<path d="M188.307 164.008C110.868 164.008 48.0013 226.754 48.0013 304.047V469H328.613V304.047C328.613 226.754 265.747 164.008 188.307 164.008Z" fill="#672ADD"/>
</g>
<defs>
<clipPath id="clip0_84_123">
<rect width="403" height="438" fill="white" transform="matrix(-1 0 0 1 451 31)"/>
</clipPath>
</defs>
</svg>
