<svg xmlns="http://www.w3.org/2000/svg" width="500" height="500" fill="none" viewBox="0 0 500 500"><g clip-path="url(#Base_37_svg_a)"><g clip-path="url(#Base_37_svg_b)"><path fill="#f99d1c" d="m320.647 133.673 48.188 63.722 77.094-58.204c15.863-11.981 17.966-36.009 4.671-53.589-13.281-17.566-36.996-22.114-52.86-10.146l-77.093 58.204m-52.674-14.428 103.67-78.27c33.097-24.986 82.391-15.531 110.111 21.13 27.721 36.648 23.369 86.621-9.728 111.607l-103.657 78.269c-2.528 1.915-6.308 1.184-8.437-1.622l-92.691-122.577c-2.129-2.806-1.783-6.636.746-8.55z"/><path fill="#efeb59" d="M1 320.809 361.902 48.316c53.166 70.304 67.14 156.885 44.516 229.915l25.844 34.174c9.822 12.992 8.278 30.718-3.447 39.574L275.094 468.053c-11.738 8.856-29.212 5.506-39.046-7.486l-25.845-34.175C133.709 428.187 54.179 391.114 1 320.809"/></g></g><defs><clipPath id="Base_37_svg_a"><path fill="#fff" d="M0 0h500v500H0z"/></clipPath><clipPath id="Base_37_svg_b"><path fill="#fff" d="M500 27H1v446h499z"/></clipPath></defs></svg>