<svg width="500" height="500" viewBox="0 0 500 500" fill="none" xmlns="http://www.w3.org/2000/svg">
<g clip-path="url(#clip0_70_249)">
<g clip-path="url(#clip1_70_249)">
<path d="M405.725 245.263C457.8 245.263 500.014 203.006 500.014 150.879C500.014 98.7512 457.8 56.4937 405.725 56.4937C353.651 56.4937 311.437 98.7512 311.437 150.879C311.437 203.006 353.651 245.263 405.725 245.263Z" fill="#2D3791"/>
<path d="M95.2888 245.263C147.363 245.263 189.578 203.006 189.578 150.879C189.578 98.7512 147.363 56.4937 95.2888 56.4937C43.2145 56.4937 1 98.7512 1 150.879C1 203.006 43.2145 245.263 95.2888 245.263Z" fill="#2D3791"/>
<path d="M445.055 251.254C445.055 358.832 357.948 446 250.507 446C143.067 446 55.9453 358.818 55.9453 251.254C55.9453 236.779 57.5319 222.695 60.5101 209.139C79.7437 121.818 157.527 56.4937 250.507 56.4937C343.488 56.4937 421.257 121.818 440.504 209.139C443.483 222.695 445.069 236.779 445.069 251.254H445.055Z" fill="#FFCF4B"/>
<path d="M443.608 209.139H57.4062C76.9599 120.397 155.995 54 250.507 54C345.018 54 424.054 120.397 443.608 209.139Z" fill="#2D3791"/>
<path d="M381.718 380.509C409.504 380.509 432.028 372.014 432.028 361.534C432.028 351.055 409.504 342.56 381.718 342.56C353.932 342.56 331.407 351.055 331.407 361.534C331.407 372.014 353.932 380.509 381.718 380.509Z" fill="#FF71EE"/>
<path d="M119.296 380.509C147.082 380.509 169.606 372.014 169.606 361.534C169.606 351.055 147.082 342.56 119.296 342.56C91.5102 342.56 68.9854 351.055 68.9854 361.534C68.9854 372.014 91.5102 380.509 119.296 380.509Z" fill="#FF71EE"/>
</g>
</g>
<defs>
<clipPath id="clip0_70_249">
<rect width="500" height="500" fill="white"/>
</clipPath>
<clipPath id="clip1_70_249">
<rect width="499" height="392" fill="white" transform="translate(1 54)"/>
</clipPath>
</defs>
</svg>
