<svg width="500" height="500" viewBox="0 0 500 500" fill="none" xmlns="http://www.w3.org/2000/svg">
<path d="M275.804 394.365V214.271H224.178V394.365H275.804Z" fill="white"/>
<path d="M188.93 455.954L160.647 334.535H339.351L311.069 455.954H188.93Z" fill="white"/>
<path d="M168.434 192.871C115.251 192.871 71.9985 149.618 71.9985 96.4354C71.9985 43.2528 115.251 0 168.434 0C221.617 0 264.869 43.2528 264.869 96.4354C264.869 149.618 221.617 192.871 168.434 192.871Z" fill="white"/>
<path d="M331.565 192.871C278.383 192.871 235.13 149.618 235.13 96.4354C235.13 43.2528 278.383 0 331.565 0C384.748 0 428.001 43.2528 428.001 96.4354C428.001 149.618 384.748 192.871 331.565 192.871Z" fill="white"/>
<path d="M168.434 356.002C115.251 356.002 71.9985 312.749 71.9985 259.567C71.9985 206.384 115.251 163.131 168.434 163.131C221.617 163.131 264.869 206.384 264.869 259.567C264.869 312.749 221.617 356.002 168.434 356.002Z" fill="white"/>
<path d="M331.565 356.002C278.383 356.002 235.13 312.749 235.13 259.567C235.13 206.384 278.383 163.131 331.565 163.131C384.748 163.131 428.001 206.384 428.001 259.567C428.001 312.749 384.748 356.002 331.565 356.002Z" fill="white"/>
<path d="M261.989 228.086H238.01V380.551H261.989V228.086Z" fill="#5DBB4C"/>
<path d="M300.101 442.14H199.898L178.046 348.35H321.954L300.101 442.14Z" fill="#5DBB4C"/>
<path d="M168.434 178.001C213.481 178.001 250 141.483 250 96.4354C250 51.3879 213.481 14.8697 168.434 14.8697C123.386 14.8697 86.8682 51.3879 86.8682 96.4354C86.8682 141.483 123.386 178.001 168.434 178.001Z" fill="#F47421"/>
<path d="M331.565 178.001C376.613 178.001 413.131 141.483 413.131 96.4354C413.131 51.3879 376.613 14.8697 331.565 14.8697C286.518 14.8697 250 51.3879 250 96.4354C250 141.483 286.518 178.001 331.565 178.001Z" fill="#F47421"/>
<path d="M168.434 341.133C213.481 341.133 250 304.614 250 259.567C250 214.519 213.481 178.001 168.434 178.001C123.386 178.001 86.8682 214.519 86.8682 259.567C86.8682 304.614 123.386 341.133 168.434 341.133Z" fill="#F47421"/>
<path d="M331.565 341.133C376.613 341.133 413.131 304.614 413.131 259.567C413.131 214.519 376.613 178.001 331.565 178.001C286.518 178.001 250 214.519 250 259.567C250 304.614 286.518 341.133 331.565 341.133Z" fill="#F47421"/>
<path d="M250 269.112C300.319 269.112 341.111 228.32 341.111 178.001C341.111 127.682 300.319 86.8907 250 86.8907C199.681 86.8907 158.89 127.682 158.89 178.001C158.89 228.32 199.681 269.112 250 269.112Z" fill="#F47421"/>
</svg>
