<svg xmlns="http://www.w3.org/2000/svg" width="500" height="500" fill="none" viewBox="0 0 500 500"><g clip-path="url(#a)"><path fill="#ffb600" d="M345.235 282.529c-70.562 0-127.764-57.202-127.764-127.764C217.471 84.202 274.673 27 345.235 27 415.798 27 473 84.202 473 154.765c0 70.562-57.202 127.764-127.765 127.764"/><path fill="#ffb600" d="M154.778 472.986c-70.562 0-127.764-57.202-127.764-127.764 0-70.563 57.202-127.765 127.764-127.765 70.563 0 127.765 57.202 127.765 127.765 0 70.562-57.202 127.764-127.765 127.764"/><path fill="#ffb600" d="M250.001 431.495c-100.237 0-181.495-81.258-181.495-181.495S149.764 68.505 250 68.505 431.496 149.763 431.496 250s-81.258 181.495-181.495 181.495"/><path fill="#ffed6c" d="M330.33 277.443c-59.522 0-107.774-48.252-107.774-107.774S270.808 61.896 330.33 61.896s107.774 48.252 107.774 107.773c0 59.522-48.252 107.774-107.774 107.774"/><path fill="#ffed6c" d="M169.668 438.104c-59.522 0-107.774-48.252-107.774-107.773 0-59.522 48.252-107.774 107.774-107.774s107.773 48.252 107.773 107.774-48.252 107.773-107.773 107.773"/><path fill="#ffed6c" d="M250 403.1c-84.555 0-153.1-68.545-153.1-153.1S165.445 96.9 250 96.9 403.1 165.445 403.1 250 334.554 403.1 250 403.1"/><path fill="#ffb600" d="M429.455 252.013c0-26.94-15.952-54.071-39.669-67.52-20.657-11.709-43.789-11.152-63.467 1.536-28.232 18.196-29.891 45.598-19.026 64.678 11.723 20.576 35.589 29.388 55.512 20.508l.286-.136c10.743-5.127 18.264-13.491 20.249-24.411 1.85-10.186-3.372-20.344-13.218-25.607l-15.259 13.586c3.835 3.467 2.598 10.933-5.725 14.496-9.016 3.251-16.183-2.624-20.249-9.764-5.957-10.444-.585-22.67 12.362-31.02 14.755-9.519 27.864-5.834 36.269-1.061 15.054 8.541 25.58 26.478 25.58 43.64l26.355 1.088z"/></g><defs><clipPath id="a"><path fill="#fff" d="M473 27H27v446h446z"/></clipPath></defs></svg>