<svg xmlns="http://www.w3.org/2000/svg" width="500" height="500" fill="none" viewBox="0 0 500 500"><g clip-path="url(#Base_5_svg_a)"><path fill="#ffcf4b" d="M378.66 251.299c0-.275.016-.533.016-.807s-.016-.532-.016-.807C435.718 243.039 480 194.579 480 135.746 480 72.38 428.62 21 365.238 21c-58.833 0-107.293 44.282-113.939 101.34-.275 0-.533-.016-.807-.016s-.532.016-.807.016C243.039 65.282 194.579 21 135.746 21 72.38 21 21 72.38 21 135.746c0 58.833 44.282 107.293 101.34 113.939 0 .275-.016.533-.016.807s.016.532.016.807C65.282 257.945 21 306.405 21 365.238c0 63.366 51.38 114.746 114.746 114.746 58.833 0 107.293-44.282 113.939-101.341.275 0 .533.017.807.017s.532-.017.807-.017c6.646 57.059 55.106 101.341 113.939 101.341 63.366 0 114.746-51.38 114.746-114.746 0-58.833-44.282-107.293-101.341-113.939z"/><path fill="#f4a6c8" d="M347.251 251.105v-1.226c43.072-5.017 76.497-41.604 76.497-86.015 0-47.847-38.781-86.628-86.628-86.628-44.411 0-80.998 33.441-86.015 76.497h-1.226c-5.017-43.072-41.604-76.497-86.015-76.497-47.847 0-86.628 38.781-86.628 86.628 0 44.411 33.441 80.998 76.497 86.015v1.226c-43.072 5.017-76.497 41.604-76.497 86.015 0 47.847 38.781 86.628 86.628 86.628 44.411 0 80.998-33.441 86.015-76.497h1.226c5.017 43.072 41.604 76.497 86.015 76.497 47.847 0 86.628-38.781 86.628-86.628 0-44.411-33.441-80.998-76.497-86.015"/></g><defs><clipPath id="Base_5_svg_a"><path fill="#fff" d="M21 21h459v459H21z"/></clipPath></defs></svg>