<svg xmlns="http://www.w3.org/2000/svg" width="500" height="500" fill="none" viewBox="0 0 500 500"><g clip-path="url(#Base_65_svg_clip0_70_808)"><path fill="#319ed7" d="M250.013 0H131.38s83.558 76.254 34.08 152.025C133.929 200.273 61 227.541 61 321.923S130.64 463 250.013 463z"/><path fill="#319ed7" d="M250.012 0h118.633s-83.558 76.254-34.081 152.025c31.532 48.273 104.46 75.516 104.46 169.898S369.384 463 250.012 463z"/><path fill="#5dbb4c" d="M248.507 446.807c47.218 0 85.496-11.217 85.496-25.053s-38.278-25.053-85.496-25.053-85.495 11.216-85.495 25.053c0 13.836 38.277 25.053 85.495 25.053"/></g><defs><clipPath id="Base_65_svg_clip0_70_808"><rect width="378" height="463" fill="#fff" transform="translate(61)"/></clipPath></defs></svg>