<svg xmlns="http://www.w3.org/2000/svg" width="500" height="500" fill="none" viewBox="0 0 500 500"><g clip-path="url(#Base_46_svg_clip0_70_584)"><g clip-path="url(#Base_46_svg_clip1_70_584)"><path fill="#f99d1c" d="M249.5 483.014c47.778 0 86.511-34.889 86.511-77.927s-38.733-77.928-86.511-77.928c-47.779 0-86.512 34.89-86.512 77.928s38.733 77.927 86.512 77.927"/><path fill="#f99d1c" d="M249.501 84.453c20.38 0 36.901-14.876 36.901-33.226S269.881 18 249.501 18 212.6 32.876 212.6 51.227s16.521 33.226 36.901 33.226"/><path fill="#ffcf4b" d="M386.889 147c-15.778-55.08-71.31-95.773-137.389-95.773S127.889 91.92 112.111 147L34 405.087h431z"/></g></g><defs><clipPath id="Base_46_svg_clip0_70_584"><rect width="500" height="500" fill="#fff"/></clipPath><clipPath id="Base_46_svg_clip1_70_584"><rect width="431" height="465" fill="#fff" transform="translate(34 18)"/></clipPath></defs></svg>