<svg xmlns="http://www.w3.org/2000/svg" width="500" height="500" fill="none" viewBox="0 0 500 500"><g clip-path="url(#Base_25_svg_a)"><g clip-path="url(#Base_25_svg_b)"><path fill="#5cb94b" d="M412.656 53.453s-66.321-28.498-116.49-2.517c-50.156 25.968-65.184 96.537-65.197 96.604.053.027 66.348 28.484 116.49 2.516 50.155-25.968 65.183-96.563 65.197-96.604"/><path fill="#f4a6c8" d="M175.956 460c96.625 0 174.956-78.352 174.956-175.003 0-96.652-78.331-175.004-174.956-175.004C79.33 109.993 1 188.345 1 284.997S79.33 460 175.956 460"/><path fill="#f4a6c8" d="M325.045 460C421.67 460 500 381.648 500 284.997c0-96.652-78.33-175.004-174.955-175.004s-174.956 78.352-174.956 175.004S228.419 460 325.045 460"/></g></g><defs><clipPath id="Base_25_svg_a"><path fill="#fff" d="M0 0h500v500H0z"/></clipPath><clipPath id="Base_25_svg_b"><path fill="#fff" d="M1 40h499v420H1z"/></clipPath></defs></svg>