<svg xmlns="http://www.w3.org/2000/svg" width="500" height="500" fill="none" viewBox="0 0 500 500"><g clip-path="url(#Base_48_svg_clip0_70_604)"><path fill="#f89c1c" d="M250.5 463C388.295 463 500 367.413 500 249.5S388.295 36 250.5 36 1 131.587 1 249.5 112.705 463 250.5 463"/><path fill="#efeb59" d="M250.5 418.298c137.795 0 249.5-75.574 249.5-168.798S388.295 80.702 250.5 80.702 1 156.276 1 249.5s111.705 168.798 249.5 168.798"/><path fill="#f89c1c" d="M250.5 354.825c137.795 0 249.5-47.156 249.5-105.325S388.295 144.175 250.5 144.175 1 191.331 1 249.5s111.705 105.325 249.5 105.325"/><path fill="#efeb59" d="M250.5 279.936c137.795 0 249.5-13.626 249.5-30.436s-111.705-30.436-249.5-30.436S1 232.69 1 249.5s111.705 30.436 249.5 30.436"/></g><defs><clipPath id="Base_48_svg_clip0_70_604"><rect width="499" height="427" fill="#fff" transform="translate(1 36)"/></clipPath></defs></svg>