<svg xmlns="http://www.w3.org/2000/svg" width="500" height="500" fill="none" viewBox="0 0 500 500"><g clip-path="url(#a)"><g clip-path="url(#b)"><path fill="#df3b94" d="M452.453 71.18c-55.399-55.343-145.214-55.343-200.614 0l-.035.036a114 114 0 0 0-2.643-2.712c-55.4-55.343-145.215-55.343-200.614 0s-55.4 145.067 0 200.41q1.339 1.339 2.714 2.641l-.035.035L251.839 472l200.614-200.41c55.4-55.343 55.4-145.066 0-200.41"/><path fill="#ff69ff" d="M426.768 122.486c-48.302-48.253-126.626-48.253-174.928 0l-.036.035a87 87 0 0 0-2.303-2.359c-48.303-48.253-126.626-48.253-174.929 0s-48.302 126.497 0 174.751c.776.775 1.563 1.55 2.362 2.301l-.035.035L251.828 472l174.929-174.751c48.303-48.254 48.303-126.497 0-174.751z"/><path fill="#ffcffe" d="M399.404 177.172c-40.748-40.706-106.817-40.706-147.564 0l-.024.024a104 104 0 0 0-1.939-1.996c-40.747-40.706-106.816-40.706-147.564 0s-40.747 106.708 0 147.414c.658.657 1.328 1.303 1.998 1.937l-.024.023 147.564 147.414 147.564-147.414c40.748-40.706 40.748-106.707 0-147.413z"/></g></g><defs><clipPath id="a"><path fill="#fff" d="M0 0h500v500H0z"/></clipPath><clipPath id="b"><path fill="#fff" d="M7 27h487v445H7z"/></clipPath></defs></svg>