<svg preserveAspectRatio="none" width="100%" height="100%" overflow="visible" style="display: block;" viewBox="0 0 581.483 427.306" fill="none" xmlns="http://www.w3.org/2000/svg">
<g id="Back Hand">
<path id="Vector" d="M75.531 427.306L0 208.953L250.167 90.5793L277.303 81.2583L333.456 324.744L75.531 427.306Z" fill="var(--fill-0, #F4B19D)"/>
<path id="Vector_2" d="M75.531 179.373C91.37 140.469 112.673 105.907 138.853 76.6452C172.07 39.5102 207.785 16.9431 238.978 3.22927C260.237 -6.11889 284.804 5.63239 290.576 28.1249C295.155 45.9739 286.044 64.3923 269.178 71.8084C246.174 81.9226 219.651 98.7175 194.702 126.606C174.27 149.444 157.526 176.706 144.937 207.631L75.5344 179.377L75.531 179.373Z" fill="var(--fill-0, #F4B19D)"/>
<path id="Vector_3" d="M275.893 160.894L249.933 90.5999L490.569 2.33128C509.98 -4.83746 531.527 5.08693 538.696 24.4984C545.864 43.9099 535.94 65.4568 516.529 72.6255L275.893 160.894Z" fill="var(--fill-0, #F4B19D)"/>
<path id="Vector_4" d="M301.676 243.56L283.814 170.784C311.035 164.104 338.235 156.027 364.663 146.78C389.25 138.178 495.253 98.853 519.087 88.0473C537.452 79.7228 559.104 87.2169 568.177 105.222C577.729 124.176 569.692 147.373 550.362 156.145C524.395 167.93 416.207 208.136 389.413 217.512C360.731 227.548 331.212 236.31 301.676 243.56Z" fill="var(--fill-0, #F4B19D)"/>
<path id="Vector_5" d="M320.688 327.297L304.659 254.094C329.619 248.627 354.61 241.919 378.936 234.151C402.093 226.758 506.713 188.718 529.242 179.251C547.823 171.442 569.252 179.455 577.868 197.673C586.945 216.871 578.325 239.896 558.754 248.132C534.025 258.541 427.155 297.419 401.73 305.536C375.187 314.01 347.919 321.331 320.688 327.293V327.297Z" fill="var(--fill-0, #F4B19D)"/>
</g>
</svg>
