<svg preserveAspectRatio="none" width="100%" height="100%" overflow="visible" style="display: block;" viewBox="0 0 337 549" fill="none" xmlns="http://www.w3.org/2000/svg">
<g id="Mobile">
<path id="Vector" d="M297.27 10.179H39.73C23.4169 10.179 10.1925 23.3859 10.1925 39.6775V509.323C10.1925 525.614 23.4169 538.821 39.73 538.821H297.27C313.583 538.821 326.808 525.614 326.808 509.323V39.6775C326.808 23.3859 313.583 10.179 297.27 10.179Z" fill="var(--fill-0, white)"/>
<path id="Vector_2" d="M297.27 549H39.7298C17.8231 549 0 531.2 0 509.323V39.6774C0 17.7995 17.8231 0 39.7298 0H297.27C319.177 0 337 17.7995 337 39.6774V509.319C337 531.197 319.177 548.997 297.27 548.997V549ZM39.7298 20.3578C29.0618 20.3578 20.3847 29.0235 20.3847 39.6774V509.319C20.3847 519.973 29.0618 528.639 39.7298 528.639H297.27C307.938 528.639 316.615 519.973 316.615 509.319V39.6774C316.615 29.0235 307.938 20.3578 297.27 20.3578H39.7298Z" fill="var(--fill-0, #5DBA4B)"/>
</g>
</svg>
