<svg width="400" height="180" viewBox="0 0 400 180" fill="none" xmlns="http://www.w3.org/2000/svg">
<g clip-path="url(#clip0_70_1733)">
<path d="M352.774 23.0326C365.496 70.5125 336.685 119.483 288.421 132.415C240.157 145.348 190.721 117.343 177.999 69.8633L352.774 23.0326Z" fill="white"/>
</g>
<g clip-path="url(#clip1_70_1733)">
<path d="M48.1529 23.5248L48.2935 23L222.16 69.5874L222.014 70.1324C208.942 117.703 159.824 145.838 111.989 133.02C64.153 120.203 35.6475 71.2474 48.1529 23.5248Z" fill="white"/>
<path d="M73.9008 29.8612L196.534 62.7206C187.481 96.5071 152.689 116.561 118.83 107.489C84.9712 98.4161 64.8478 63.6476 73.9008 29.8612Z" fill="#3E962C"/>
<path d="M107.881 38.9663L162.574 53.621C158.539 68.6776 143.031 77.6094 127.942 73.5664C112.853 69.5233 103.867 54.0282 107.902 38.9717L107.881 38.9663Z" fill="white"/>
</g>
<path d="M277.234 45C302.216 45 322.468 65.252 322.468 90.234C322.468 115.216 302.216 135.468 277.234 135.468C252.252 135.468 232 115.216 232 90.234C232 65.252 252.252 45 277.234 45Z" fill="#FF71EE"/>
<path d="M291.617 68.0634C285.455 67.6849 280.324 71.1547 277.127 76.1807C274.541 72.1221 270.524 68.8415 265.624 68.1686C255.089 66.7175 248.612 74.8348 249.095 84.8238C249.747 97.8199 260.872 104.654 269.704 112.477C272.165 114.664 274.562 116.936 277.001 119.165L277.401 119.059C282.511 113.907 288.294 109.47 293.656 104.591C301.227 97.6937 305.959 92.0789 305.138 81.0805C304.613 73.9306 298.661 68.484 291.617 68.0424V68.0634Z" fill="white"/>
<defs>
<clipPath id="clip0_70_1733">
<rect width="180.94" height="89" fill="white" transform="translate(375.809 109) rotate(165)"/>
</clipPath>
<clipPath id="clip1_70_1733">
<rect width="180" height="90" fill="white" transform="translate(198.867 156.521) rotate(-165)"/>
</clipPath>
</defs>
</svg>
