<svg xmlns="http://www.w3.org/2000/svg" width="400" height="180" fill="none" viewBox="0 0 400 180"><path fill="#fff" d="M200.145 17c16.998 46.702-7.089 98.356-53.791 115.354S47.998 125.265 31 78.564z"/><path fill="#010101" d="M146.354 132.354c23.354-8.5 35.396-34.323 26.895-57.677-8.5-23.354-34.323-35.395-57.677-26.895s-35.395 34.323-26.895 57.677 34.323 35.395 57.677 26.895"/><path fill="#fff" d="m109.878 92.787-1.802-1.98.478-.174-.018.075a4.9 4.9 0 0 1-.575 1.763c-.3.537-.728 1.03-1.265 1.474s-1.197.796-1.953 1.071c-1.213.442-2.298.431-3.302-.037q-1.476-.712-2.377-3.189l-4.069-11.178q-.9-2.477-.17-3.993c.489-1.011 1.353-1.731 2.586-2.18.995-.362 1.97-.469 2.897-.333.928.135 1.624.377 2.055.693l.096.078-.478.174-2.642-7.26 4.773-1.737 9.267 25.459zm-9.283-15.294c-.776.282-.978.964-.58 2.058l3.518 9.666q.348.955.918 1.22c.379.178.848.165 1.385-.03.517-.189.837-.486.98-.898.142-.412.117-.853-.064-1.35l-3.779-10.383c-.783-.481-1.563-.58-2.378-.283m5.37-10.312.81 2.228-8.373 3.048-.811-2.228z"/><path fill="#fff" d="m128.654 85.953-4.774 1.737-.789-2.168.478-.174a4.7 4.7 0 0 1-.546 1.596c-.28.53-.709 1.023-1.238 1.486q-.795.695-1.959 1.119c-1.193.434-2.238.41-3.175-.06s-1.697-1.568-2.305-3.239l-5.654-15.534 4.774-1.737 5.408 14.857c.391 1.074 1.031 1.472 1.906 1.154.278-.102.533-.33.777-.711q.366-.573.608-1.303l-5.517-15.156 4.774-1.737 7.239 19.89zm-10.541-24.815.811 2.227-9.274 5.898-.811-2.227z"/><path fill="#fff" d="m123.325 65.368 4.773-1.738.847 2.327-.477.174.118-.358c.28-.777.74-1.553 1.415-2.362a5.7 5.7 0 0 1 2.477-1.735c1.173-.427 2.159-.38 2.996.126s1.551 1.598 2.173 3.309l5.654 15.534-4.774 1.737-5.407-14.858c-.391-1.074-.992-1.486-1.768-1.204-.775.283-1.348.874-1.639 1.746l5.632 15.474-4.774 1.738-7.239-19.89z"/><path fill="#fff" d="M139.942 60.896c.575-1.515 1.983-2.659 4.271-3.491l6.941-2.527 1.159 3.183-4.396 1.6-.174-.478a5.8 5.8 0 0 1 3.001.508q1.393.675 2.274 3.091l.152.418c.448 1.233.64 2.38.583 3.46-.058 1.079-.426 2.046-1.139 2.936q-1.038 1.324-3.216 2.117l-1.174.427q-.745.272-.987.63c-.161.239-.206.548-.075.906q.39 1.074 1.823.553l2.028-.739c2.188-.796 3.917-.997 5.207-.61 1.289.386 2.25 1.478 2.894 3.248.731 2.009.735 3.63-.008 4.868-.743 1.24-2.062 2.193-3.952 2.88l-2.327.847c-1.81.659-3.365.842-4.698.584s-2.232-1.057-2.717-2.39c-.282-.776-.389-1.503-.333-2.154a3.1 3.1 0 0 1 .715-1.747c.414-.533.998-.971 1.73-1.373l.174.478c-1.105.244-2.018.148-2.693-.282-.694-.423-1.188-1.099-1.528-2.034-.312-.855-.361-1.67-.135-2.474.226-.803.857-1.483 1.88-2.013l.174.478c-1.105.244-2.058-.085-2.818-.934-.767-.87-1.371-1.912-1.82-3.145l-.615-1.69c-.695-1.91-.755-3.622-.193-5.11zm9.656 20.092q.488.227 1.204-.033l3.819-1.39q.686-.25.944-.749.228-.488.01-1.085c-.152-.417-.387-.692-.698-.804q-.466-.168-1.183.092l-3.818 1.39q-.746.272-.966.69c-.166.285-.17.647-.018 1.065s.38.672.706.824m-2.952-13.184c.346.145.727.14 1.125-.004s.732-.401.924-.742q.287-.51.027-1.226l-1.274-3.5q-.25-.687-.809-.922c-.365-.138-.767-.127-1.184.025-.418.152-.693.387-.865.72-.171.333-.18.742-.007 1.22l1.275 3.5c.166.457.436.765.788.93"/><path fill="#fff" d="m117.436 126.053-.015-.039-9.244-25.4 4.773-1.738 9.267 25.46-4.714 1.715-.04.015zm3.34-5.675 1.434 3.938-.637.232-1.433-3.939z"/><path fill="#fff" d="M118.707 104.665c.574-1.515 2.003-2.666 4.27-3.491 2.268-.825 4.108-.842 5.516-.071 1.414.792 2.442 2.13 3.137 4.039l2.881 7.917c.695 1.909.755 3.622.193 5.11-.575 1.516-1.983 2.659-4.27 3.492-2.288.832-4.109.842-5.516.07-1.414-.792-2.442-2.13-3.137-4.039l-2.881-7.916c-.695-1.91-.755-3.622-.193-5.111m8.977 13.154c.365.137.786.119 1.284-.062.497-.181.831-.438 1.043-.785s.22-.756.047-1.234l-3.548-9.746c-.166-.457-.456-.757-.828-.915-.385-.13-.827-.104-1.304.069-.477.174-.832.438-1.023.778q-.288.51-.027 1.226l3.547 9.747q.25.685.809.922"/><path fill="#fff" d="M133.027 99.453c.575-1.516 2.003-2.666 4.27-3.492 2.268-.825 4.109-.842 5.516-.07 1.414.792 2.442 2.13 3.137 4.04l2.881 7.915c.695 1.91.755 3.622.193 5.111-.574 1.515-1.983 2.659-4.27 3.491s-4.108.842-5.516.071c-1.414-.792-2.441-2.13-3.136-4.039l-2.882-7.917c-.695-1.909-.755-3.622-.193-5.11m8.977 13.153c.365.138.787.119 1.284-.062s.832-.438 1.043-.785c.212-.347.221-.756.047-1.233l-3.547-9.746c-.167-.458-.456-.758-.829-.915-.385-.13-.826-.105-1.304.07-.477.173-.831.437-1.023.777q-.288.51-.027 1.226l3.547 9.746q.25.687.809.922"/><path fill="#fff" d="m143.502 87.757 4.774-1.738 4.647 12.77-.477.174 1.397-8.663 4.455-1.622-.45 7.305c-.064.811-.167 1.457-.343 1.904-.168.466-.498.857-.997 1.219q-.749.543-2.3 1.107l-.174-.477c1.034-.376 1.859-.586 2.454-.623.595-.036 1.106.07 1.508.307s.875.673 1.429 1.327l6.67 7.619-5.092 1.853-7.372-8.061.478-.174 3.453 9.487-4.774 1.738-9.266-25.46z"/><g clip-path="url(#Eye_36_svg_clip0_70_1456)"><path fill="#fff" d="M371.438 79.014c-16.847 46.485-68.807 70.284-116.06 53.159S183.478 63.485 200.325 17z"/><path fill="#ffcf4b" d="M285.881 48.007c-23.626-8.562-49.607 3.338-58.03 26.58s3.901 49.024 27.527 57.586 49.607-3.338 58.03-26.58-3.901-49.024-27.527-57.586"/><path fill="#fff" d="M255.027 56.939s16.686 32.431 48.096 18.028c-31.429 14.396-16.679 47.697-16.679 47.697-13.667-28.592-45.957-19.024-45.957-19.024s28.195-18.135 14.527-46.728z"/></g><defs><clipPath id="Eye_36_svg_clip0_70_1456"><rect width="182.003" height="89.523" fill="#fff" transform="rotate(199.921 184.796 51.653)"/></clipPath></defs></svg>