<svg xmlns="http://www.w3.org/2000/svg" width="400" height="180" fill="none" viewBox="0 0 400 180"><path fill="#fff" d="M110 135c0-49.699 40.301-90 90-90s90 40.301 90 90z"/><path fill="#010101" d="M200 135c24.853 0 45-20.147 45-45s-20.147-45-45-45-45 20.147-45 45 20.147 45 45 45"/><path fill="#fff" d="m179.257 85.343-1.016-2.476h.508l-.043.063a4.9 4.9 0 0 1-1.143 1.46c-.465.403-1.037.72-1.693.953s-1.397.339-2.201.339c-1.291 0-2.307-.38-3.09-1.164q-1.143-1.174-1.143-3.81V68.812q0-2.635 1.206-3.81c.804-.783 1.863-1.164 3.175-1.164 1.058 0 2.011.233 2.836.678.826.444 1.397.91 1.694 1.354l.063.106h-.508V58.25h5.08v27.093zm-3.493-17.547c-.825 0-1.248.572-1.248 1.736v10.287q0 1.016.444 1.46c.296.297.741.445 1.312.445.551 0 .953-.17 1.228-.508.275-.339.402-.762.402-1.291v-11.05c-.571-.719-1.27-1.079-2.138-1.079m8.573-7.852v2.37h-8.911v-2.37z"/><path fill="#fff" d="M199.238 85.343h-5.08v-2.307h.508c-.254.466-.593.91-1.058 1.313-.445.402-1.016.72-1.672.973q-.985.381-2.223.381c-1.27 0-2.244-.38-2.963-1.143-.72-.762-1.059-2.053-1.059-3.83V64.197h5.08v15.811c0 1.143.466 1.736 1.397 1.736.297 0 .614-.127.974-.402q.54-.413 1.016-1.016V64.198h5.08v21.167zM197.82 58.42v2.37l-10.732 2.37v-2.37z"/><path fill="#fff" d="M201.27 64.177h5.08v2.476h-.508l.233-.296c.529-.635 1.227-1.207 2.138-1.736a5.7 5.7 0 0 1 2.921-.783c1.248 0 2.159.381 2.772 1.143.614.762.911 2.032.911 3.853v16.53h-5.08v-15.81c0-1.144-.424-1.737-1.249-1.737s-1.567.36-2.138 1.08v16.468h-5.08V64.177"/><path fill="#fff" d="M218.415 65.659c1.058-1.228 2.773-1.82 5.207-1.82h7.387v3.386h-4.678v-.508a5.8 5.8 0 0 1 2.646 1.503q1.08 1.11 1.079 3.683v.444c0 1.313-.211 2.456-.635 3.45-.423.995-1.1 1.778-2.074 2.37q-1.428.89-3.746.89h-1.249q-.793 0-1.143.254c-.233.17-.381.444-.381.825q0 1.143 1.524 1.143h2.159c2.328 0 4.021.403 5.101 1.207 1.079.804 1.609 2.159 1.609 4.043 0 2.138-.551 3.662-1.673 4.572s-2.688 1.354-4.699 1.354h-2.476c-1.926 0-3.45-.36-4.614-1.058-1.165-.699-1.736-1.757-1.736-3.175 0-.825.148-1.545.423-2.138a3.12 3.12 0 0 1 1.27-1.397c.572-.36 1.27-.571 2.096-.698v.508c-1.122-.148-1.948-.55-2.434-1.186-.508-.635-.741-1.439-.741-2.434 0-.91.233-1.693.719-2.37.487-.678 1.313-1.101 2.456-1.25v.509c-1.122-.148-1.905-.783-2.329-1.842-.423-1.08-.635-2.265-.635-3.577v-1.799c0-2.032.53-3.662 1.567-4.868zm2.201 22.182q.381.381 1.143.381h4.064q.73 0 1.143-.381.381-.381.381-1.016c0-.444-.127-.783-.381-.995q-.381-.317-1.143-.317h-4.064q-.793 0-1.143.317c-.254.212-.381.55-.381.995s.127.762.381 1.016m1.736-13.398c.275.254.635.38 1.058.38s.826-.126 1.122-.38q.444-.381.444-1.143v-3.726q0-.729-.444-1.143c-.296-.254-.677-.38-1.122-.38-.444 0-.783.126-1.058.38s-.424.635-.424 1.143V73.3c0 .487.149.868.424 1.143"/><path fill="#fff" d="M174.981 119.189V92.116h5.08v27.094h-5.059zm5.08-4.191v4.191h-.677v-4.191z"/><path fill="#fff" d="M183.49 99.525c1.058-1.228 2.794-1.82 5.207-1.82s4.149.614 5.207 1.82c1.058 1.228 1.566 2.836 1.566 4.868v8.425c0 2.032-.529 3.661-1.566 4.868-1.058 1.227-2.773 1.82-5.207 1.82s-4.149-.614-5.207-1.82c-1.058-1.228-1.566-2.836-1.566-4.868v-8.425c0-2.032.529-3.662 1.566-4.868m3.937 15.43c.296.254.699.381 1.228.381s.931-.127 1.249-.381c.317-.254.465-.635.465-1.143v-10.371c0-.487-.169-.868-.465-1.143-.318-.254-.741-.381-1.249-.381s-.932.127-1.228.381q-.444.381-.444 1.143v10.371q0 .73.444 1.143"/><path fill="#fff" d="M198.73 99.525c1.058-1.228 2.794-1.82 5.207-1.82s4.148.614 5.207 1.82c1.058 1.228 1.566 2.836 1.566 4.868v8.425c0 2.032-.529 3.661-1.566 4.868-1.059 1.227-2.773 1.82-5.207 1.82s-4.149-.614-5.207-1.82c-1.058-1.228-1.566-2.836-1.566-4.868v-8.425c0-2.032.529-3.662 1.566-4.868m3.937 15.43c.296.254.698.381 1.228.381.529 0 .931-.127 1.248-.381.318-.254.466-.635.466-1.143v-10.371c0-.487-.169-.868-.466-1.143-.317-.254-.74-.381-1.248-.381s-.932.127-1.228.381q-.444.381-.445 1.143v10.371q0 .73.445 1.143"/><path fill="#fff" d="M212.573 92.117h5.08v13.589h-.508l4.276-7.663h4.741l-2.921 6.71c-.339.741-.656 1.312-.974 1.672-.317.381-.762.635-1.354.805q-.89.254-2.54.254v-.508c1.1 0 1.947.084 2.518.254.572.169 1.016.444 1.313.804s.592.931.889 1.736l3.662 9.44h-5.419l-4.17-10.097h.508v10.097h-5.08V92.117z"/></svg>