<svg xmlns="http://www.w3.org/2000/svg" width="400" height="180" fill="none" viewBox="0 0 400 180"><g clip-path="url(#a)"><path fill="#fff" d="M352.774 23.033c12.722 47.48-16.089 96.45-64.353 109.382s-97.7-15.072-110.422-62.552z"/><path fill="#ffcf4b" d="M265.387 46.448c-24.132 6.466-38.537 30.952-32.177 54.691 6.361 23.74 31.08 37.742 55.212 31.276 24.131-6.466 38.537-30.952 32.176-54.691s-31.08-37.742-55.211-31.276"/><path fill="#fff" d="M245.32 71.288s32.058 16.94 49.465-12.676c-17.427 29.622 13.549 48.372 13.549 48.372-27.413-15.529-48.289 10.647-48.289 10.647s12.662-30.829-14.751-46.357z"/></g><g clip-path="url(#b)"><path fill="#fff" d="m48.153 23.525.14-.525L222.16 69.587l-.146.545c-13.072 47.571-62.19 75.706-110.025 62.888-47.836-12.817-76.341-61.773-63.836-109.495"/><path fill="#ff71ee" d="m73.9 29.861 122.634 32.86c-9.053 33.786-43.845 53.84-77.704 44.768S64.848 63.648 73.9 29.861"/><path fill="#fff" d="m107.881 38.966 54.693 14.655c-4.035 15.057-19.543 23.988-34.632 19.945s-24.075-19.538-20.04-34.594z"/></g><defs><clipPath id="a"><path fill="#fff" d="m375.809 109-174.775 46.83L178 69.864l174.775-46.83z"/></clipPath><clipPath id="b"><path fill="#fff" d="M198.867 156.521 25 109.934 48.294 23l173.867 46.588z"/></clipPath></defs></svg>