<svg xmlns="http://www.w3.org/2000/svg" width="400" height="180" fill="none" viewBox="0 0 400 180"><g clip-path="url(#a)"><path fill="#fff" d="M371.438 79.014c-16.846 46.485-68.806 70.284-116.059 53.159S183.479 63.485 200.326 17z"/><path fill="#ff71ee" d="M266 43c24.853 0 45 20.147 45 45s-20.147 45-45 45-45-20.147-45-45 20.147-45 45-45"/><path fill="#fff" d="M280.425 66.063c-6.144-.377-11.26 3.082-14.448 8.091-2.579-4.045-6.584-7.315-11.47-7.986-10.506-1.446-16.964 6.645-16.482 16.602.65 12.954 11.743 19.766 20.55 27.564 2.454 2.18 4.844 4.444 7.276 6.666l.399-.105c5.095-5.135 10.862-9.558 16.209-14.421 7.549-6.876 12.267-12.473 11.449-23.436-.524-7.126-6.458-12.556-13.483-12.996z"/></g><g clip-path="url(#b)"><path fill="#fff" d="m31.186 79.074-.186-.51L200.145 17l.193.53c16.578 46.466-7.52 97.685-54.057 114.623-46.536 16.938-97.966-6.814-115.095-53.079"/><path fill="#1f69af" d="m55.91 69.497 119.303-43.423c11.963 32.87-5.034 69.252-37.974 81.241s-69.366-4.949-81.329-37.818"/><path fill="#fff" d="m88.968 57.465 53.207-19.366c5.331 14.648-2.25 30.86-16.929 36.203-14.679 5.342-30.927-2.197-36.258-16.844z"/></g><defs><clipPath id="a"><path fill="#fff" d="m340.936 163.18-171.113-62.013 30.503-84.166L371.44 79.014z"/></clipPath><clipPath id="b"><path fill="#fff" d="M230.926 101.572 61.781 163.136 31 78.563 200.144 17z"/></clipPath></defs></svg>