<svg width="400" height="180" viewBox="0 0 400 180" fill="none" xmlns="http://www.w3.org/2000/svg">
<g clip-path="url(#clip0_70_846)">
<path d="M111 45C111 94.1548 150.845 134 200 134C249.155 134 289 94.1548 289 45H111Z" fill="white"/>
<path d="M200 134C224.577 134 244.5 114.077 244.5 89.5C244.5 64.9233 224.577 45 200 45C175.423 45 155.5 64.9233 155.5 89.5C155.5 114.077 175.423 134 200 134Z" fill="#FF71EE"/>
<path d="M185.766 68.543C191.828 68.1706 196.876 71.5841 200.021 76.5286C202.565 72.5358 206.517 69.3085 211.337 68.6464C221.702 67.219 228.074 75.2046 227.598 85.0314C226.956 97.8166 216.012 104.54 207.323 112.236C204.903 114.388 202.544 116.622 200.145 118.815L199.752 118.712C194.724 113.643 189.035 109.278 183.76 104.478C176.312 97.6925 171.657 92.1688 172.464 81.3489C172.981 74.315 178.836 68.9568 185.766 68.5223V68.543Z" fill="white"/>
</g>
<defs>
<clipPath id="clip0_70_846">
<rect width="178" height="89" fill="white" transform="translate(111 45)"/>
</clipPath>
</defs>
</svg>
