<svg width="400" height="180" viewBox="0 0 400 180" fill="none" xmlns="http://www.w3.org/2000/svg">
<g clip-path="url(#clip0_70_1723)">
<path d="M371.438 79.0135C354.592 125.499 302.632 149.298 255.379 132.173C208.126 115.048 183.479 63.4851 200.326 17L371.438 79.0135Z" fill="white"/>
<path d="M266 43C290.853 43 311 63.1472 311 88C311 112.853 290.853 133 266 133C241.147 133 221 112.853 221 88C221 63.1472 241.147 43 266 43Z" fill="#FF71EE"/>
<path d="M280.425 66.0632C274.281 65.6859 269.165 69.1446 265.977 74.1544C263.398 70.1088 259.393 66.8388 254.507 66.168C244.001 64.7217 237.543 72.8129 238.025 82.7696C238.675 95.7239 249.768 102.536 258.575 110.334C261.029 112.514 263.419 114.778 265.851 117L266.25 116.895C271.345 111.76 277.112 107.337 282.459 102.474C290.008 95.5982 294.726 90.0014 293.908 79.0385C293.384 71.9115 287.45 66.4824 280.425 66.0422V66.0632Z" fill="white"/>
</g>
<g clip-path="url(#clip1_70_1723)">
<path d="M31.1861 79.0741L31.0003 78.5636L200.145 17L200.338 17.5301C216.916 63.9956 192.818 115.215 146.281 132.153C99.7448 149.091 48.3148 125.339 31.1861 79.0741Z" fill="white"/>
<path d="M55.9101 69.4968L175.213 26.0742C187.176 58.9431 170.179 95.3259 137.239 107.315C104.3 119.304 67.8734 102.366 55.9101 69.4968Z" fill="#1F69AF"/>
<path d="M88.9681 57.4648L142.175 38.099C147.506 52.7467 139.925 68.9587 125.246 74.3015C110.567 79.6443 94.3191 72.1053 88.9878 57.4576L88.9681 57.4648Z" fill="white"/>
</g>
<defs>
<clipPath id="clip0_70_1723">
<rect width="182.003" height="89.5231" fill="white" transform="translate(340.936 163.18) rotate(-160.079)"/>
</clipPath>
<clipPath id="clip1_70_1723">
<rect width="180" height="90" fill="white" transform="translate(230.926 101.572) rotate(160)"/>
</clipPath>
</defs>
</svg>
