<svg xmlns="http://www.w3.org/2000/svg" width="400" height="180" fill="none" viewBox="0 0 400 180"><g clip-path="url(#Eye_14_svg_clip0_70_916)"><path fill="#fff" d="M289 45c0 49.147-39.837 89-88.99 89S111 94.147 111 45z"/><path fill="#000" d="M200.01 45.02c24.574 0 44.495 19.92 44.495 44.49 0 24.571-19.921 44.49-44.495 44.49s-44.494-19.919-44.494-44.49c0-24.57 19.921-44.49 44.494-44.49"/><path fill="#fff" d="M212.252 85.307c9.948 0 18.012 8.063 18.012 18.01 0 9.946-8.064 18.01-18.012 18.01s-18.012-8.064-18.012-18.01 8.064-18.01 18.012-18.01"/><path fill="#fff" d="M188.778 62.495c5.896 0 10.676 4.779 10.676 10.674s-4.78 10.675-10.676 10.675c-5.895 0-10.675-4.78-10.675-10.675s4.78-10.674 10.675-10.674"/></g><defs><clipPath id="Eye_14_svg_clip0_70_916"><rect width="178" height="89" fill="#fff" transform="matrix(1 0 0 -1 111 134)"/></clipPath></defs></svg>