<svg xmlns="http://www.w3.org/2000/svg" width="400" height="180" fill="none" viewBox="0 0 400 180"><g clip-path="url(#Eye_25_svg_clip0_70_1160)"><path fill="#fff" d="M303.368 36.376c26.298 42.171 13.427 97.693-28.744 123.991s-97.693 13.428-123.991-28.743z"/><path fill="#010101" d="M274.624 160.367c21.088-13.15 27.523-40.907 14.372-61.995S248.088 70.849 227 84s-27.523 40.907-14.372 61.996c13.151 21.088 40.908 27.522 61.996 14.371"/><path fill="#fff" d="m230.747 129.209-2.172-1.564.431-.269-.003.077a4.9 4.9 0 0 1-.197 1.844c-.182.587-.499 1.159-.933 1.704-.433.545-1.006 1.026-1.688 1.452-1.096.683-2.159.898-3.238.647q-1.592-.391-2.986-2.628l-6.295-10.093q-1.394-2.236-.992-3.872c.268-1.09.964-1.973 2.078-2.667.898-.56 1.829-.867 2.765-.927.936-.059 1.667.034 2.154.254l.109.056-.431.269-4.088-6.556 4.311-2.688 14.336 22.99zm-12.248-13.041c-.701.437-.758 1.145-.142 2.133l5.444 8.729q.537.862 1.15 1.004c.408.095.864-.015 1.348-.317.467-.291.719-.648.773-1.081s-.062-.859-.342-1.308l-5.846-9.376c-.866-.308-1.649-.243-2.385.216m3.118-11.2 1.255 2.012-7.562 4.715-1.254-2.011z"/><path fill="#fff" d="m247.701 118.636-4.31 2.688-1.221-1.958.431-.269a4.7 4.7 0 0 1-.203 1.674c-.165.576-.482 1.148-.904 1.711q-.634.844-1.684 1.499c-1.078.672-2.106.864-3.12.598-1.014-.265-1.984-1.182-2.925-2.69l-8.747-14.027 4.31-2.689 8.367 13.417c.605.97 1.313 1.226 2.104.733.251-.156.453-.432.613-.856a5.7 5.7 0 0 0 .324-1.4l-8.534-13.686 4.31-2.688 11.201 17.961zm-15.45-22.095 1.255 2.011-7.852 7.69-1.254-2.011z"/><path fill="#fff" d="m238.226 99.6 4.311-2.688 1.31 2.101-.431.27.041-.375c.113-.82.403-1.674.895-2.604a5.7 5.7 0 0 1 2.064-2.21c1.06-.661 2.034-.82 2.958-.498s1.848 1.243 2.811 2.787l8.747 14.027-4.31 2.688-8.367-13.416c-.605-.97-1.278-1.249-1.978-.812s-1.139 1.134-1.243 2.047l8.714 13.973-4.31 2.688-11.201-17.96z"/><path fill="#fff" d="M253.557 91.785c.249-1.602 1.39-3.012 3.455-4.3l6.268-3.909 1.792 2.874-3.969 2.475-.269-.43a5.8 5.8 0 0 1 3.041-.126q1.503.373 2.864 2.554l.236.377c.694 1.114 1.119 2.196 1.287 3.264s.006 2.091-.506 3.11q-.743 1.509-2.709 2.736l-1.059.661q-.674.42-.836.82c-.108.267-.088.579.114.902q.605.97 1.898.164l1.832-1.143c1.975-1.232 3.625-1.787 4.966-1.675s2.508.98 3.505 2.579c1.131 1.814 1.47 3.398 1 4.764s-1.564 2.572-3.27 3.636l-2.102 1.31c-1.634 1.02-3.118 1.521-4.475 1.544s-2.402-.572-3.153-1.776c-.437-.7-.692-1.389-.772-2.038a3.1 3.1 0 0 1 .339-1.857c.294-.608.775-1.157 1.408-1.701l.269.431c-1.03.468-1.944.563-2.693.282-.767-.27-1.39-.829-1.916-1.674-.482-.772-.699-1.56-.644-2.392s.531-1.628 1.422-2.359l.269.431c-1.03.468-2.031.344-2.95-.33-.93-.692-1.737-1.586-2.432-2.7l-.952-1.526c-1.075-1.724-1.488-3.387-1.247-4.96zm13.606 17.658q.525.121 1.171-.282l3.449-2.15q.62-.387.768-.928.122-.525-.214-1.064c-.235-.377-.522-.597-.85-.643q-.491-.067-1.138.336l-3.448 2.15q-.673.42-.802.875c-.104.314-.032.668.203 1.045s.511.58.861.661m-5.617-12.288c.368.07.74-.012 1.1-.236.359-.224.633-.545.75-.917q.175-.559-.228-1.205l-1.971-3.161q-.387-.62-.982-.735c-.386-.059-.776.035-1.154.27s-.597.522-.696.884c-.099.36-.023.762.246 1.194l1.971 3.16c.258.414.585.658.964.746"/><path fill="#fff" d="m245.028 160.19-.022-.036-14.303-22.935 4.311-2.688 14.336 22.989-4.257 2.654-.036.023zm2.093-6.244 2.218 3.556-.575.358-2.218-3.556z"/><path fill="#fff" d="M241.843 139.002c.248-1.602 1.408-3.023 3.455-4.3s3.845-1.674 5.382-1.21c1.547.481 2.829 1.577 3.905 3.302l4.457 7.148c1.076 1.724 1.489 3.387 1.247 4.96-.248 1.601-1.389 3.011-3.455 4.299s-3.845 1.675-5.381 1.211c-1.548-.482-2.83-1.578-3.905-3.302l-4.458-7.148c-1.075-1.724-1.489-3.387-1.247-4.96m11.506 11.01c.386.059.794-.046 1.243-.326s.723-.601.858-.984c.135-.384.059-.786-.21-1.217l-5.488-8.8c-.257-.413-.603-.647-1-.724-.404-.047-.83.069-1.261.338s-.723.6-.84.973q-.175.558.228 1.205l5.488 8.8q.386.62.982.735"/><path fill="#fff" d="M254.775 130.938c.248-1.602 1.407-3.023 3.455-4.3s3.845-1.674 5.381-1.211c1.548.482 2.83 1.578 3.905 3.302l4.458 7.149c1.075 1.724 1.489 3.387 1.247 4.959-.248 1.602-1.39 3.012-3.455 4.3s-3.845 1.675-5.381 1.211c-1.548-.482-2.83-1.578-3.906-3.302l-4.457-7.148c-1.076-1.725-1.489-3.387-1.247-4.96m11.505 11.01c.386.059.795-.047 1.244-.327s.723-.6.858-.984c.135-.383.059-.785-.21-1.216l-5.488-8.8c-.258-.414-.603-.647-1-.724-.404-.047-.83.069-1.261.338-.431.268-.723.6-.84.973q-.176.558.227 1.205l5.488 8.8q.387.62.982.735"/><path fill="#fff" d="m262.601 117.327 4.31-2.688 7.191 11.53-.431.269-.427-8.764 4.023-2.509 1.072 7.239c.105.808.138 1.461.059 1.934-.068.492-.311.942-.724 1.4q-.62.686-2.021 1.559l-.269-.431c.934-.582 1.697-.958 2.272-1.117s1.097-.161 1.539-.012c.442.148.996.477 1.673 1.002l8.102 6.073-4.597 2.867-8.881-6.36.431-.269 5.342 8.567-4.31 2.688-14.336-22.989z"/><g clip-path="url(#Eye_25_svg_clip1_70_1160)"><path fill="#fff" d="M95.435 145.28C68.685 103.079 81.21 47.186 123.41 20.435 165.611-6.315 221.505 6.21 248.255 48.41z"/><path fill="#ff71ee" d="M171.845 96.845c21.1-13.375 27.363-41.322 13.988-62.422S144.51 7.06 123.41 20.435s-27.362 41.323-13.987 62.423 41.322 27.362 62.422 13.987"/><path fill="#fff" d="M124.003 48.394c5.001-3.619 11.193-3.435 16.584-.901.011-4.813 1.647-9.735 5.426-12.926 8.121-6.866 17.938-3.478 22.877 5.218 6.407 11.325.671 23.054-2.601 34.39-.907 3.164-1.716 6.366-2.583 9.555l-.394.125c-7.074-1.616-14.334-2.268-21.475-3.517-10.087-1.773-17.09-3.982-22.285-13.71-3.384-6.32-1.274-14.107 4.44-18.252z"/></g></g><defs><clipPath id="Eye_25_svg_clip0_70_1160"><rect width="400" height="180" fill="#fff"/></clipPath><clipPath id="Eye_25_svg_clip1_70_1160"><rect width="180.936" height="90.468" fill="#fff" transform="rotate(-32.37 142.143 -46.531)"/></clipPath></defs></svg>