<svg xmlns="http://www.w3.org/2000/svg" width="400" height="180" fill="none" viewBox="0 0 400 180"><path fill="#fff" d="M222.161 69.587c-12.863 48.006-62.222 76.503-110.227 63.64S35.431 71.005 48.294 23z"/><path fill="#010101" d="M111.934 133.227c24.006 6.432 48.681-7.814 55.113-31.82s-7.814-48.68-31.82-55.113-48.68 7.814-55.113 31.82c-6.433 24.005 7.814 48.681 31.82 55.113"/><path fill="#fff" d="m104.749 79.894-.341-2.655.491.131-.057.05a4.9 4.9 0 0 1-1.482 1.115c-.554.268-1.188.427-1.882.482-.695.055-1.437-.034-2.214-.242-1.248-.335-2.13-.966-2.684-1.925q-.8-1.43-.118-3.976l3.079-11.49q.682-2.546 2.151-3.368c.98-.548 2.101-.642 3.368-.303 1.023.274 1.882.746 2.565 1.389.682.643 1.114 1.24 1.285 1.747l.034.118-.491-.131 2-7.463 4.906 1.315-7.012 26.17zm1.168-17.853c-.798-.214-1.354.228-1.656 1.353l-2.662 9.936q-.263.982.051 1.526c.21.363.601.621 1.153.77.531.141.964.082 1.317-.174.354-.256.586-.632.723-1.143l2.859-10.672c-.365-.843-.947-1.372-1.785-1.596m10.313-5.367-.614 2.29-8.607-2.306.613-2.29zm7.819 28.391-4.907-1.315.597-2.228.491.131a4.7 4.7 0 0 1-1.362.994c-.533.273-1.167.432-1.867.508q-1.049.112-2.245-.207c-1.227-.33-2.069-.95-2.567-1.871-.498-.923-.491-2.258-.031-3.975l4.279-15.968 4.907 1.315-4.092 15.273c-.296 1.104 0 1.797.9 2.038.286.076.626.036 1.044-.137a5.8 5.8 0 0 0 1.245-.718l4.174-15.58 4.907 1.315-5.478 20.446zm5.599-26.373-.614 2.29-10.979-.488.613-2.29zm1.842 6.454 4.907 1.315-.641 2.392-.49-.132.301-.226c.676-.476 1.498-.847 2.514-1.123a5.7 5.7 0 0 1 3.025 0c1.206.323 1.986.926 2.382 1.821s.353 2.199-.118 3.957l-4.278 15.968-4.907-1.315 4.092-15.273c.296-1.104.04-1.786-.757-2s-1.606-.057-2.344.49l-4.262 15.906-4.907-1.314 5.478-20.446zm16.177 5.868c1.34-.911 3.15-1.04 5.501-.41l7.135 1.912-.876 3.271-4.519-1.21.132-.491a5.8 5.8 0 0 1 2.167 2.136q.755 1.352.089 3.837l-.115.43c-.34 1.267-.84 2.316-1.506 3.167-.667.852-1.524 1.433-2.617 1.753q-1.611.49-3.849-.11l-1.207-.324q-.767-.205-1.169-.05c-.269.103-.483.33-.582.699q-.296 1.104 1.176 1.498l2.086.559c2.249.602 3.78 1.43 4.615 2.485.834 1.057.995 2.502.507 4.322-.553 2.065-1.479 3.394-2.798 3.983-1.32.589-2.948.613-4.89.093l-2.392-.641c-1.86-.499-3.239-1.24-4.183-2.217-.944-.976-1.222-2.146-.855-3.516.214-.797.543-1.454.962-1.955q.63-.753 1.589-1.021c.645-.2 1.374-.223 2.204-.132l-.131.49c-1.045-.433-1.739-1.035-2.044-1.775-.327-.745-.343-1.582-.086-2.543.236-.879.663-1.575 1.309-2.103s1.552-.724 2.695-.571l-.132.49c-1.045-.433-1.637-1.249-1.772-2.38-.13-1.153-.027-2.353.312-3.62l.466-1.738c.526-1.963 1.459-3.4 2.773-4.297zm-3.615 21.997q.27.465 1.006.664l3.925 1.052q.706.189 1.203-.073.466-.27.631-.882c.115-.43.08-.79-.111-1.06q-.285-.405-1.021-.603l-3.926-1.051q-.767-.206-1.186.01c-.3.14-.511.433-.626.863s-.074.769.105 1.08m5.145-12.493c.2.317.514.532.923.642s.831.091 1.183-.078q.527-.252.725-.989l.964-3.598q.189-.706-.134-1.219c-.22-.322-.555-.543-.985-.658s-.789-.08-1.121.094-.573.504-.704.994l-.964 3.599c-.126.47-.082.876.113 1.213M91.86 111.479l.01-.041 6.996-26.108 4.907 1.314-7.012 26.17-4.846-1.298-.04-.011zm5.991-2.733-1.085 4.048-.654-.175 1.085-4.049zm7.317-14.058c1.34-.912 3.17-1.035 5.5-.411 2.331.625 3.849 1.667 4.559 3.106.704 1.46.779 3.145.253 5.108l-2.181 8.137c-.525 1.963-1.458 3.4-2.773 4.297-1.34.912-3.149 1.041-5.5.411s-3.849-1.667-4.559-3.106c-.704-1.46-.778-3.145-.253-5.108l2.181-8.137c.526-1.963 1.459-3.4 2.773-4.297m-.191 15.923c.22.322.576.549 1.087.686s.933.118 1.305-.045.614-.493.746-.983l2.684-10.019c.126-.47.061-.882-.154-1.224-.241-.328-.617-.56-1.108-.691-.49-.132-.932-.119-1.284.05q-.528.253-.725.989l-2.685 10.018q-.189.706.134 1.219m14.911-11.979c1.34-.912 3.17-1.035 5.501-.41 2.331.624 3.849 1.666 4.559 3.105.704 1.46.778 3.145.253 5.108l-2.181 8.137c-.526 1.963-1.459 3.4-2.773 4.297-1.34.912-3.149 1.041-5.5.411s-3.849-1.667-4.559-3.106c-.704-1.46-.779-3.145-.253-5.108l2.181-8.137c.525-1.963 1.458-3.4 2.772-4.297m-.19 15.924c.22.322.576.548 1.087.685s.932.119 1.305-.044c.372-.164.614-.493.745-.984l2.685-10.018c.126-.47.061-.882-.154-1.225-.241-.327-.617-.559-1.108-.691s-.932-.118-1.284.05q-.528.254-.726.989l-2.684 10.019q-.189.705.134 1.219m15.479-19.497 4.907 1.315-3.517 13.126-.491-.132 6.113-6.294 4.58 1.227-4.558 5.725c-.519.628-.974 1.098-1.374 1.363-.405.286-.9.416-1.516.426q-.925.016-2.519-.412l.131-.49c1.063.285 1.859.585 2.367.897.508.311.867.692 1.06 1.116s.331 1.053.409 1.907l1.094 10.066-5.234-1.402-1.415-10.832.491.132-2.613 9.752-4.907-1.315 7.012-26.17z"/><g clip-path="url(#Eye_22_svg_a)"><path fill="#fff" d="M180 70.07c12.72 47.472 61.515 75.657 108.992 62.935S364.655 71.472 351.935 24z"/><path fill="#000" d="M265.962 47.058c-23.736 6.36-37.823 30.756-31.464 54.489 6.36 23.734 30.757 37.818 54.494 31.458s37.823-30.756 31.464-54.49-30.757-37.818-54.494-31.458"/><path fill="#fff" d="M264.565 89.14c-9.609 2.574-15.312 12.45-12.737 22.058 2.574 9.607 12.451 15.309 22.06 12.734s15.311-12.45 12.737-22.058c-2.575-9.608-12.451-15.31-22.06-12.735m16.77-28.109c-5.695 1.525-9.075 7.379-7.549 13.073s7.379 9.073 13.074 7.547 9.075-7.379 7.549-13.073-7.379-9.074-13.074-7.548"/></g><defs><clipPath id="Eye_22_svg_a"><path fill="#fff" d="m374.97 109.967-171.935 46.07L180 70.069 351.935 24z"/></clipPath></defs></svg>