<svg xmlns="http://www.w3.org/2000/svg" width="400" height="180" fill="none" viewBox="0 0 400 180"><g clip-path="url(#Eye_6_svg_clip0_65_10)"><path fill="#fff" d="M111 134c0-49.155 39.845-89 89-89s89 39.845 89 89z"/><path fill="#ff71ee" d="M200 134c24.577 0 44.5-19.923 44.5-44.5S224.577 45 200 45s-44.5 19.923-44.5 44.5S175.423 134 200 134"/><path fill="#fff" d="M185.767 68.543c6.061-.372 11.109 3.041 14.254 7.986 2.544-3.993 6.496-7.22 11.316-7.883 10.365-1.427 16.737 6.559 16.261 16.385-.641 12.786-11.585 19.509-20.274 27.205-2.421 2.152-4.779 4.386-7.179 6.579l-.393-.103c-5.027-5.069-10.717-9.434-15.992-14.234-7.448-6.785-12.103-12.31-11.296-23.13.517-7.033 6.372-12.391 13.303-12.826z"/></g><defs><clipPath id="Eye_6_svg_clip0_65_10"><rect width="178" height="89" fill="#fff" transform="translate(111 45)"/></clipPath></defs></svg>