<svg width="400" height="180" viewBox="0 0 400 180" fill="none" xmlns="http://www.w3.org/2000/svg">
<g clip-path="url(#clip0_11_23)">
<path d="M-7.92693e-06 135C-1.22717e-05 85.301 40.301 45 90 45C139.699 45 180 85.301 180 135L-7.92693e-06 135Z" fill="white"/>
<path d="M90 45C65.1472 45 45 65.1472 45 90C45 114.853 65.1472 135 90 135C114.853 135 135 114.853 135 90C135 65.1472 114.853 45 90 45Z" fill="#010101"/>
<path d="M220 135C220 85.301 260.301 45 310 45C359.699 45 400 85.301 400 135L220 135Z" fill="white"/>
<path d="M310 45C285.147 45 265 65.1472 265 90C265 114.853 285.147 135 310 135C334.853 135 355 114.853 355 90C355 65.1472 334.853 45 310 45Z" fill="#010101"/>
<path d="M289.257 85.3434L288.241 82.8669L288.749 82.8669L288.706 82.9304C288.41 83.5019 288.029 83.9887 287.563 84.3909C287.098 84.793 286.526 85.1105 285.87 85.3434C285.214 85.5762 284.473 85.682 283.669 85.682C282.378 85.682 281.362 85.301 280.579 84.5179C279.817 83.7347 279.436 82.4647 279.436 80.7079L279.436 68.8123C279.436 67.0555 279.838 65.7855 280.642 65.0024C281.446 64.2192 282.505 63.8382 283.817 63.8382C284.875 63.8382 285.828 64.071 286.653 64.5155C287.479 64.96 288.05 65.4257 288.347 65.8702L288.41 65.976L287.902 65.976L287.902 58.2502L292.982 58.2502L292.982 85.3434L289.257 85.3434ZM285.764 67.7963C284.939 67.7963 284.516 68.3678 284.516 69.532L284.516 79.8189C284.516 80.4962 284.664 80.9831 284.96 81.2794C285.256 81.5757 285.701 81.7239 286.272 81.7239C286.823 81.7239 287.225 81.5546 287.5 81.2159C287.775 80.8772 287.902 80.4539 287.902 79.9247L287.902 68.8758C287.331 68.1562 286.632 67.7963 285.764 67.7963ZM294.337 59.9436L294.337 62.3142L285.426 62.3142L285.426 59.9436L294.337 59.9436Z" fill="white"/>
<path d="M309.238 85.3434L304.158 85.3434L304.158 83.0362L304.666 83.0362C304.412 83.5019 304.073 83.9464 303.608 84.3485C303.163 84.7507 302.592 85.0682 301.936 85.3222C301.279 85.5762 300.539 85.7032 299.713 85.7032C298.443 85.7032 297.469 85.3222 296.75 84.5602C296.03 83.7982 295.691 82.5071 295.691 80.7291L295.691 64.198L300.771 64.198L300.771 80.0094C300.771 81.1524 301.237 81.7451 302.168 81.7451C302.465 81.7451 302.782 81.6181 303.142 81.3429C303.502 81.0677 303.841 80.7291 304.158 80.3269L304.158 64.198L309.238 64.198L309.238 85.3645L309.238 85.3434ZM307.82 58.4196L307.82 60.7902L297.088 63.1609L297.088 60.7902L307.82 58.4196Z" fill="white"/>
<path d="M311.27 64.1769L316.35 64.1769L316.35 66.6533L315.842 66.6533L316.075 66.357C316.604 65.722 317.302 65.1505 318.213 64.6214C319.123 64.0922 320.096 63.8382 321.134 63.8382C322.382 63.8382 323.293 64.2192 323.906 64.9812C324.52 65.7432 324.817 67.0132 324.817 68.8335L324.817 85.3645L319.737 85.3645L319.737 69.5532C319.737 68.4102 319.313 67.8175 318.488 67.8175C317.662 67.8175 316.921 68.1773 316.35 68.897L316.35 85.3645L311.27 85.3645L311.27 64.198L311.27 64.1769Z" fill="white"/>
<path d="M328.415 65.6585C329.473 64.4309 331.188 63.8382 333.622 63.8382L341.009 63.8382L341.009 67.2248L336.331 67.2248L336.331 66.7168C337.368 66.992 338.257 67.5 338.977 68.2197C339.697 68.9605 340.056 70.1881 340.056 71.9026L340.056 72.3471C340.056 73.6595 339.845 74.8024 339.421 75.7973C338.998 76.7921 338.321 77.5753 337.347 78.1679C336.395 78.7606 335.146 79.0569 333.601 79.0569L332.352 79.0569C331.823 79.0569 331.442 79.1416 331.209 79.3109C330.976 79.4802 330.828 79.7554 330.828 80.1364C330.828 80.8984 331.336 81.2794 332.352 81.2794L334.511 81.2794C336.839 81.2794 338.532 81.6816 339.612 82.4859C340.691 83.2902 341.221 84.6449 341.221 86.5287C341.221 88.6665 340.67 90.1905 339.548 91.1007C338.427 92.0108 336.86 92.4553 334.849 92.4553L332.373 92.4553C330.447 92.4553 328.923 92.0955 327.759 91.397C326.594 90.6985 326.023 89.6402 326.023 88.222C326.023 87.3965 326.171 86.6769 326.446 86.0842C326.721 85.4915 327.145 85.0259 327.716 84.6872C328.288 84.3274 328.986 84.1157 329.812 83.9887L329.812 84.4967C328.69 84.3485 327.864 83.9464 327.378 83.3114C326.87 82.6764 326.637 81.8721 326.637 80.8772C326.637 79.9671 326.87 79.1839 327.356 78.5066C327.843 77.8293 328.669 77.4059 329.812 77.2578L329.812 77.7658C328.69 77.6176 327.907 76.9826 327.483 75.9243C327.06 74.8448 326.848 73.6595 326.848 72.3471L326.848 70.548C326.848 68.516 327.378 66.8862 328.415 65.6797L328.415 65.6585ZM330.616 87.841C330.87 88.095 331.251 88.222 331.759 88.222L335.823 88.222C336.31 88.222 336.691 88.095 336.966 87.841C337.22 87.587 337.347 87.2484 337.347 86.825C337.347 86.3805 337.22 86.0419 336.966 85.8302C336.712 85.6185 336.331 85.5127 335.823 85.5127L331.759 85.5127C331.23 85.5127 330.849 85.6185 330.616 85.8302C330.362 86.0419 330.235 86.3805 330.235 86.825C330.235 87.2695 330.362 87.587 330.616 87.841ZM332.352 74.4426C332.627 74.6966 332.987 74.8236 333.41 74.8236C333.833 74.8236 334.236 74.6966 334.532 74.4426C334.828 74.1886 334.976 73.8076 334.976 73.2996L334.976 69.5743C334.976 69.0875 334.828 68.7065 334.532 68.4313C334.236 68.1773 333.855 68.0503 333.41 68.0503C332.966 68.0503 332.627 68.1773 332.352 68.4313C332.077 68.6853 331.928 69.0663 331.928 69.5743L331.928 73.2996C331.928 73.7865 332.077 74.1675 332.352 74.4426Z" fill="white"/>
<path d="M284.981 119.189C284.981 119.189 284.981 119.167 284.981 119.146L284.981 92.1167L290.061 92.1167L290.061 119.21L285.045 119.21L285.003 119.21L284.981 119.189ZM290.061 114.998L290.061 119.189L289.384 119.189L289.384 114.998L290.061 114.998Z" fill="white"/>
<path d="M293.49 99.5249C294.548 98.2973 296.284 97.7046 298.697 97.7046C301.11 97.7046 302.846 98.3184 303.904 99.5249C304.962 100.753 305.47 102.361 305.47 104.393L305.47 112.817C305.47 114.849 304.941 116.479 303.904 117.686C302.846 118.913 301.131 119.506 298.697 119.506C296.263 119.506 294.548 118.892 293.49 117.686C292.432 116.458 291.924 114.849 291.924 112.818L291.924 104.393C291.924 102.361 292.453 100.731 293.49 99.5249ZM297.427 114.955C297.723 115.209 298.126 115.336 298.655 115.336C299.184 115.336 299.586 115.209 299.904 114.955C300.221 114.701 300.369 114.32 300.369 113.812L300.369 103.441C300.369 102.954 300.2 102.573 299.904 102.298C299.586 102.044 299.163 101.917 298.655 101.917C298.147 101.917 297.723 102.044 297.427 102.298C297.131 102.552 296.983 102.933 296.983 103.441L296.983 113.812C296.983 114.299 297.131 114.68 297.427 114.955Z" fill="white"/>
<path d="M308.73 99.5249C309.788 98.2973 311.524 97.7046 313.937 97.7046C316.35 97.7046 318.085 98.3184 319.144 99.5249C320.202 100.753 320.71 102.361 320.71 104.393L320.71 112.817C320.71 114.849 320.181 116.479 319.144 117.686C318.085 118.913 316.371 119.506 313.937 119.506C311.503 119.506 309.788 118.892 308.73 117.686C307.672 116.458 307.164 114.849 307.164 112.818L307.164 104.393C307.164 102.361 307.693 100.731 308.73 99.5249ZM312.667 114.955C312.963 115.209 313.365 115.336 313.895 115.336C314.424 115.336 314.826 115.209 315.143 114.955C315.461 114.701 315.609 114.32 315.609 113.812L315.609 103.441C315.609 102.954 315.44 102.573 315.143 102.298C314.826 102.044 314.403 101.917 313.895 101.917C313.387 101.917 312.963 102.044 312.667 102.298C312.371 102.552 312.222 102.933 312.222 103.441L312.222 113.812C312.222 114.299 312.371 114.68 312.667 114.955Z" fill="white"/>
<path d="M322.573 92.1167L327.653 92.1167L327.653 105.706L327.145 105.706L331.42 98.0433L336.162 98.0433L333.241 104.753C332.902 105.494 332.585 106.065 332.267 106.425C331.95 106.806 331.505 107.06 330.912 107.23C330.32 107.399 329.473 107.484 328.372 107.484L328.372 106.976C329.473 106.976 330.32 107.06 330.891 107.23C331.463 107.399 331.907 107.674 332.204 108.034C332.5 108.394 332.796 108.965 333.093 109.77L336.754 119.21L331.336 119.21L327.166 109.113L327.674 109.113L327.674 119.21L322.594 119.21L322.594 92.1167L322.573 92.1167Z" fill="white"/>
</g>
<defs>
<clipPath id="clip0_11_23">
<rect width="400" height="180" fill="white"/>
</clipPath>
</defs>
</svg>
