<svg xmlns="http://www.w3.org/2000/svg" width="400" height="180" fill="none" viewBox="0 0 400 180"><g clip-path="url(#a)"><path fill="#fff" d="M111 134c0-49.155 39.845-89 89-89s89 39.845 89 89z"/><path fill="#ffcf4b" d="M200 134c24.577 0 44.5-19.923 44.5-44.5S224.577 45 200 45s-44.5 19.923-44.5 44.5S175.423 134 200 134"/><path fill="#fff" d="M225.384 116.85s-26.149-24.66-50.23-.559c24.101-24.102-.559-50.23-.559-50.23 22.095 22.094 48.596 2.213 48.596 2.213s-19.881 26.501 2.214 48.596z"/></g><defs><clipPath id="a"><path fill="#fff" d="M111 45h178v89H111z"/></clipPath></defs></svg>