<svg width="400" height="180" viewBox="0 0 400 180" fill="none" xmlns="http://www.w3.org/2000/svg">
<g clip-path="url(#clip0_70_916)">
<path d="M289 45C289 94.1468 249.163 134 200.01 134C150.858 134 111 94.1468 111 45H289Z" fill="white"/>
<path d="M200.01 45.0206C224.584 45.0206 244.505 64.9393 244.505 89.5103C244.505 114.081 224.584 134 200.01 134C175.437 134 155.516 114.081 155.516 89.5103C155.516 64.9393 175.437 45.0206 200.01 45.0206Z" fill="black"/>
<path d="M212.252 85.3066C222.2 85.3066 230.264 93.37 230.264 103.317C230.264 113.263 222.2 121.327 212.252 121.327C202.304 121.327 194.24 113.263 194.24 103.317C194.24 93.37 202.304 85.3066 212.252 85.3066Z" fill="white"/>
<path d="M188.778 62.495C194.674 62.495 199.454 67.274 199.454 73.1692C199.454 79.0645 194.674 83.8435 188.778 83.8435C182.883 83.8435 178.103 79.0645 178.103 73.1692C178.103 67.274 182.883 62.495 188.778 62.495Z" fill="white"/>
</g>
<defs>
<clipPath id="clip0_70_916">
<rect width="178" height="89" fill="white" transform="matrix(1 0 0 -1 111 134)"/>
</clipPath>
</defs>
</svg>
