<svg width="400" height="180" viewBox="0 0 400 180" fill="none" xmlns="http://www.w3.org/2000/svg">
<g clip-path="url(#clip0_70_1553)">
<path d="M111 7.62939e-06C111 49.7071 151.517 90 201.5 90C251.483 90 292 49.7071 292 7.62939e-06H111Z" fill="white"/>
<path d="M201.5 7.62939e-06C226.491 7.62939e-06 246.75 20.1472 246.75 45C246.75 69.8528 226.491 90 201.5 90C176.509 90 156.25 69.8528 156.25 45C156.25 20.1472 176.509 7.62939e-06 201.5 7.62939e-06Z" fill="#FFCF4B"/>
<path d="M227.321 19.0112C227.321 19.0112 200.731 43.9484 176.244 19.576C200.752 43.9484 175.676 70.371 175.676 70.371C198.143 48.0279 225.091 68.1325 225.091 68.1325C225.091 68.1325 204.875 41.3333 227.342 18.9902L227.321 19.0112Z" fill="white"/>
</g>
<g clip-path="url(#clip1_70_1553)">
<path d="M290 179.457V180H110V179.436C110.314 130.103 150.477 90.2141 200 90.2141C249.523 90.2141 289.728 130.124 290 179.457Z" fill="white"/>
<path d="M263.49 180H136.531C136.531 145.022 164.947 116.646 200 116.646C235.054 116.646 263.49 145.022 263.49 180Z" fill="#F4A6C8"/>
<path d="M228.311 180H171.689C171.689 164.412 184.358 151.771 199.979 151.771C215.601 151.771 228.29 164.412 228.29 180H228.311Z" fill="white"/>
</g>
<defs>
<clipPath id="clip0_70_1553">
<rect width="181" height="90" fill="white" transform="matrix(1 0 0 -1 111 90)"/>
</clipPath>
<clipPath id="clip1_70_1553">
<rect width="180" height="90" fill="white" transform="translate(110 90)"/>
</clipPath>
</defs>
</svg>
