<svg xmlns="http://www.w3.org/2000/svg" width="400" height="180" fill="none" viewBox="0 0 400 180"><g clip-path="url(#Eye_39_svg_clip0_70_1553)"><path fill="#fff" d="M111 0c0 49.707 40.517 90 90.5 90S292 49.707 292 0z"/><path fill="#ffcf4b" d="M201.5 0c24.991 0 45.25 20.147 45.25 45s-20.259 45-45.25 45-45.25-20.147-45.25-45S176.509 0 201.5 0"/><path fill="#fff" d="M227.321 19.011s-26.59 24.937-51.077.565c24.508 24.372-.568 50.795-.568 50.795 22.467-22.343 49.415-2.239 49.415-2.239s-20.216-26.799 2.251-49.142z"/></g><g clip-path="url(#Eye_39_svg_clip1_70_1553)"><path fill="#fff" d="M290 179.457V180H110v-.564c.314-49.333 40.477-89.222 90-89.222s89.728 39.91 90 89.243"/><path fill="#f4a6c8" d="M263.49 180H136.531c0-34.978 28.416-63.354 63.469-63.354 35.054 0 63.49 28.376 63.49 63.354"/><path fill="#fff" d="M228.311 180h-56.622c0-15.588 12.669-28.229 28.29-28.229 15.622 0 28.311 12.641 28.311 28.229z"/></g><defs><clipPath id="Eye_39_svg_clip0_70_1553"><rect width="181" height="90" fill="#fff" transform="matrix(1 0 0 -1 111 90)"/></clipPath><clipPath id="Eye_39_svg_clip1_70_1553"><rect width="180" height="90" fill="#fff" transform="translate(110 90)"/></clipPath></defs></svg>