<svg xmlns="http://www.w3.org/2000/svg" width="400" height="180" fill="none" viewBox="0 0 400 180"><g clip-path="url(#Eye_49_svg_a)"><path fill="#fff" d="M352.774 23.033c12.722 47.48-16.089 96.45-64.353 109.382s-97.7-15.072-110.422-62.552z"/></g><g clip-path="url(#Eye_49_svg_b)"><path fill="#fff" d="m48.153 23.525.14-.525L222.16 69.587l-.146.545c-13.072 47.571-62.19 75.706-110.025 62.888-47.836-12.817-76.341-61.773-63.836-109.495"/><path fill="#3e962c" d="m73.9 29.861 122.634 32.86c-9.053 33.786-43.845 53.84-77.704 44.768S64.848 63.648 73.9 29.861"/><path fill="#fff" d="m107.881 38.966 54.693 14.655c-4.035 15.057-19.543 23.988-34.632 19.945s-24.075-19.538-20.04-34.594z"/></g><defs><clipPath id="Eye_49_svg_a"><path fill="#fff" d="m375.809 109-174.775 46.83L178 69.864l174.775-46.83z"/></clipPath><clipPath id="Eye_49_svg_b"><path fill="#fff" d="M198.867 156.521 25 109.934 48.294 23l173.867 46.588z"/></clipPath></defs></svg>