<svg width="400" height="180" viewBox="0 0 400 180" fill="none" xmlns="http://www.w3.org/2000/svg">
<g clip-path="url(#clip0_70_868)">
<path d="M207.894 8H192.105V59.6943H207.894V8Z" fill="black"/>
<path d="M150.804 21.367L139.64 32.5074L176.272 69.0608L187.436 57.9204L150.804 21.367Z" fill="black"/>
<path d="M260.366 32.4925L249.202 21.3522L212.57 57.9056L223.734 69.0459L260.366 32.4925Z" fill="black"/>
<path d="M290 134.457V135H110V134.436C110.314 85.1027 150.477 45.2141 200 45.2141C249.523 45.2141 289.728 85.1236 290 134.457Z" fill="white"/>
<path d="M263.49 135H136.531C136.531 100.022 164.946 71.6463 200 71.6463C235.053 71.6463 263.49 100.022 263.49 135Z" fill="#E54898"/>
<path d="M228.311 135H171.689C171.689 119.412 184.358 106.771 199.979 106.771C215.6 106.771 228.29 119.412 228.29 135H228.311Z" fill="white"/>
</g>
<defs>
<clipPath id="clip0_70_868">
<rect width="180" height="127" fill="white" transform="translate(110 8)"/>
</clipPath>
</defs>
</svg>
