<svg xmlns="http://www.w3.org/2000/svg" width="400" height="180" fill="none" viewBox="0 0 400 180"><g clip-path="url(#Eye_47_svg_a)"><g clip-path="url(#Eye_47_svg_b)"><path fill="#fff" d="M94.65 144.043c-26.318-41.517-13.44-96.855 28.762-123.607S221.156 5.654 247.473 47.17z"/><path fill="#ffcf4b" d="M171.06 95.606c21.101-13.375 27.539-41.045 14.381-61.803s-40.93-26.742-62.03-13.367-27.54 41.046-14.381 61.803c13.158 20.758 40.93 26.743 62.03 13.367"/><path fill="#fff" d="M182.797 65.908s-35.654-6.597-43.425 26.865C147.161 59.3 112 50.653 112 50.653c30.799 6.636 42.908-24.579 42.908-24.579s-2.881 33.204 27.918 39.84z"/></g><g clip-path="url(#Eye_47_svg_c)"><path fill="#fff" d="m152.295 133.88-.294-.457L303.357 36l.306.474c26.437 41.653 14.254 96.932-27.388 123.736-41.642 26.803-97.05 15.005-123.98-26.33"/><path fill="#5cb94b" d="M174.292 119.075 281.048 50.36c18.932 29.412 10.396 68.652-19.079 87.624s-68.745 10.503-87.677-18.909"/><path fill="#fff" d="m203.874 100.035 47.611-30.646c8.437 13.107 4.626 30.594-8.509 39.048s-30.648 4.693-39.085-8.414z"/></g></g><defs><clipPath id="Eye_47_svg_a"><path fill="#fff" d="M0 0h400v180H0z"/></clipPath><clipPath id="Eye_47_svg_b"><path fill="#fff" d="M47 68.873 199.823-28l47.65 75.17-152.824 96.873z"/></clipPath><clipPath id="Eye_47_svg_c"><path fill="#fff" d="m352.068 111.678-151.356 97.423L152 133.423 303.357 36z"/></clipPath></defs></svg>