<svg width="400" height="180" viewBox="0 0 400 180" fill="none" xmlns="http://www.w3.org/2000/svg">
<g clip-path="url(#clip0_70_1733)">
<path d="M352.774 23.0326C365.496 70.5125 336.685 119.483 288.421 132.415C240.157 145.348 190.721 117.343 177.999 69.8633L352.774 23.0326Z" fill="white"/>
</g>
<g clip-path="url(#clip1_70_1733)">
<path d="M48.1529 23.5248L48.2935 23L222.16 69.5874L222.014 70.1324C208.942 117.703 159.824 145.838 111.989 133.02C64.153 120.203 35.6475 71.2474 48.1529 23.5248Z" fill="white"/>
<path d="M73.9008 29.8612L196.534 62.7206C187.481 96.5071 152.689 116.561 118.83 107.489C84.9712 98.4161 64.8478 63.6476 73.9008 29.8612Z" fill="#3E962C"/>
<path d="M107.881 38.9663L162.574 53.621C158.539 68.6776 143.031 77.6094 127.942 73.5664C112.853 69.5233 103.867 54.0282 107.902 38.9717L107.881 38.9663Z" fill="white"/>
</g>
<defs>
<clipPath id="clip0_70_1733">
<rect width="180.94" height="89" fill="white" transform="translate(375.809 109) rotate(165)"/>
</clipPath>
<clipPath id="clip1_70_1733">
<rect width="180" height="90" fill="white" transform="translate(198.867 156.521) rotate(-165)"/>
</clipPath>
</defs>
</svg>
