<svg width="400" height="180" viewBox="0 0 400 180" fill="none" xmlns="http://www.w3.org/2000/svg">
<g clip-path="url(#clip0_70_1693)">
<path d="M111 7.62939e-06C111 49.7071 151.517 90 201.5 90C251.483 90 292 49.7071 292 7.62939e-06H111Z" fill="white"/>
<path d="M201.468 0C226.45 0 246.702 20.252 246.702 45.234C246.702 70.2161 226.45 90.4681 201.468 90.4681C176.486 90.4681 156.234 70.2161 156.234 45.234C156.234 20.252 176.486 0 201.468 0Z" fill="#FF71EE"/>
<path d="M215.851 23.0634C209.689 22.6849 204.558 26.1547 201.362 31.1807C198.775 27.1221 194.759 23.8415 189.859 23.1686C179.323 21.7175 172.846 29.8348 173.33 39.8238C173.982 52.8199 185.106 59.6544 193.938 67.4773C196.399 69.6643 198.796 71.9355 201.236 74.1646L201.635 74.0595C206.745 68.9073 212.528 64.4701 217.891 59.5913C225.461 52.6937 230.193 47.0789 229.373 36.0805C228.847 28.9306 222.896 23.484 215.851 23.0424V23.0634Z" fill="white"/>
</g>
<g clip-path="url(#clip1_70_1693)">
<path d="M290 179.457V180H110V179.436C110.314 130.103 150.477 90.2141 200 90.2141C249.523 90.2141 289.728 130.124 290 179.457Z" fill="white"/>
<path d="M263.49 180H136.531C136.531 145.022 164.947 116.646 200 116.646C235.054 116.646 263.49 145.022 263.49 180Z" fill="#FFB600"/>
<path d="M228.311 180H171.689C171.689 164.412 184.358 151.771 199.979 151.771C215.601 151.771 228.29 164.412 228.29 180H228.311Z" fill="white"/>
</g>
<defs>
<clipPath id="clip0_70_1693">
<rect width="181" height="90" fill="white" transform="matrix(1 0 0 -1 111 90)"/>
</clipPath>
<clipPath id="clip1_70_1693">
<rect width="180" height="90" fill="white" transform="translate(110 90)"/>
</clipPath>
</defs>
</svg>
