<svg width="400" height="180" viewBox="0 0 400 180" fill="none" xmlns="http://www.w3.org/2000/svg">
<path d="M110 135C110 85.301 150.301 45 200 45C249.699 45 290 85.301 290 135L110 135Z" fill="white"/>
<path d="M200 45C175.147 45 155 65.1472 155 90C155 114.853 175.147 135 200 135C224.853 135 245 114.853 245 90C245 65.1472 224.853 45 200 45Z" fill="#010101"/>
<path d="M220.743 94.6566L221.759 97.1331L221.251 97.1331L221.294 97.0696C221.59 96.4981 221.971 96.0113 222.437 95.6091C222.902 95.2069 223.474 94.8894 224.13 94.6566C224.786 94.4238 225.527 94.3179 226.331 94.3179C227.622 94.3179 228.638 94.6989 229.421 95.4821C230.183 96.2653 230.564 97.5353 230.564 99.2921L230.564 111.188C230.564 112.944 230.162 114.214 229.358 114.998C228.554 115.781 227.495 116.162 226.183 116.162C225.125 116.162 224.172 115.929 223.347 115.484C222.521 115.04 221.95 114.574 221.653 114.13L221.59 114.024L222.098 114.024L222.098 121.75L217.018 121.75L217.018 94.6566L220.743 94.6566ZM224.236 112.204C225.061 112.204 225.484 111.632 225.484 110.468L225.484 100.181C225.484 99.5037 225.336 99.0169 225.04 98.7206C224.744 98.4243 224.299 98.2761 223.728 98.2761C223.177 98.2761 222.775 98.4454 222.5 98.7841C222.225 99.1227 222.098 99.5461 222.098 100.075L222.098 111.124C222.669 111.844 223.368 112.204 224.236 112.204ZM215.663 120.056L215.663 117.686L224.574 117.686L224.574 120.056L215.663 120.056Z" fill="white"/>
<path d="M200.762 94.6566L205.842 94.6566L205.842 96.9638L205.334 96.9638C205.588 96.4981 205.927 96.0536 206.392 95.6514C206.837 95.2493 207.408 94.9318 208.064 94.6778C208.721 94.4238 209.461 94.2968 210.287 94.2968C211.557 94.2968 212.531 94.6778 213.25 95.4398C213.97 96.2018 214.309 97.4929 214.309 99.2709L214.309 115.802L209.229 115.802L209.229 99.9906C209.229 98.8476 208.763 98.2549 207.832 98.2549C207.535 98.2549 207.218 98.3819 206.858 98.6571C206.498 98.9322 206.159 99.2709 205.842 99.6731L205.842 115.802L200.762 115.802L200.762 94.6354L200.762 94.6566ZM202.18 121.58L202.18 119.21L212.912 116.839L212.912 119.21L202.18 121.58Z" fill="white"/>
<path d="M198.73 115.823L193.65 115.823L193.65 113.347L194.158 113.347L193.925 113.643C193.396 114.278 192.698 114.849 191.787 115.379C190.877 115.908 189.904 116.162 188.866 116.162C187.618 116.162 186.707 115.781 186.094 115.019C185.48 114.257 185.183 112.987 185.183 111.166L185.183 94.6354L190.263 94.6354L190.263 110.447C190.263 111.59 190.687 112.182 191.512 112.182C192.338 112.182 193.079 111.823 193.65 111.103L193.65 94.6354L198.73 94.6354L198.73 115.802L198.73 115.823Z" fill="white"/>
<path d="M181.585 114.341C180.527 115.569 178.812 116.162 176.378 116.162L168.991 116.162L168.991 112.775L173.669 112.775L173.669 113.283C172.632 113.008 171.743 112.5 171.023 111.78C170.303 111.039 169.944 109.812 169.944 108.097L169.944 107.653C169.944 106.341 170.155 105.198 170.579 104.203C171.002 103.208 171.679 102.425 172.653 101.832C173.605 101.239 174.854 100.943 176.399 100.943L177.648 100.943C178.177 100.943 178.558 100.858 178.791 100.689C179.024 100.52 179.172 100.245 179.172 99.8636C179.172 99.1016 178.664 98.7206 177.648 98.7206L175.489 98.7206C173.161 98.7206 171.468 98.3184 170.388 97.5141C169.309 96.7098 168.779 95.3551 168.779 93.4713C168.779 91.3335 169.33 89.8095 170.452 88.8993C171.573 87.9892 173.14 87.5447 175.151 87.5447L177.627 87.5447C179.553 87.5447 181.077 87.9045 182.241 88.603C183.406 89.3015 183.977 90.3598 183.977 91.778C183.977 92.6035 183.829 93.3231 183.554 93.9158C183.279 94.5084 182.855 94.9741 182.284 95.3128C181.712 95.6726 181.014 95.8843 180.188 96.0113L180.188 95.5033C181.31 95.6514 182.136 96.0536 182.622 96.6886C183.13 97.3236 183.363 98.1279 183.363 99.1227C183.363 100.033 183.13 100.816 182.644 101.493C182.157 102.171 181.331 102.594 180.188 102.742L180.188 102.234C181.31 102.382 182.093 103.017 182.517 104.076C182.94 105.155 183.152 106.341 183.152 107.653L183.152 109.452C183.152 111.484 182.622 113.114 181.585 114.32L181.585 114.341ZM179.384 92.159C179.13 91.905 178.749 91.778 178.241 91.778L174.177 91.778C173.69 91.778 173.309 91.905 173.034 92.159C172.78 92.413 172.653 92.7516 172.653 93.175C172.653 93.6194 172.78 93.9581 173.034 94.1698C173.288 94.3814 173.669 94.4873 174.177 94.4873L178.241 94.4873C178.77 94.4873 179.151 94.3814 179.384 94.1698C179.638 93.9581 179.765 93.6194 179.765 93.175C179.765 92.7305 179.638 92.413 179.384 92.159ZM177.648 105.557C177.373 105.303 177.013 105.176 176.59 105.176C176.167 105.176 175.764 105.303 175.468 105.557C175.172 105.811 175.024 106.192 175.024 106.7L175.024 110.426C175.024 110.912 175.172 111.293 175.468 111.569C175.764 111.823 176.145 111.95 176.59 111.95C177.034 111.95 177.373 111.823 177.648 111.569C177.923 111.315 178.072 110.934 178.072 110.426L178.072 106.7C178.072 106.214 177.923 105.833 177.648 105.557Z" fill="white"/>
<path d="M225.019 60.8114C225.019 60.8114 225.019 60.8325 225.019 60.8537L225.019 87.8833L219.939 87.8833L219.939 60.7902L224.955 60.7902L224.998 60.7902L225.019 60.8114ZM219.939 65.0023L219.939 60.8114L220.616 60.8114L220.616 65.0023L219.939 65.0023Z" fill="white"/>
<path d="M216.51 80.475C215.452 81.7027 213.716 82.2954 211.303 82.2954C208.89 82.2954 207.154 81.6815 206.096 80.475C205.038 79.2474 204.53 77.6387 204.53 75.6067L204.53 67.1825C204.53 65.1505 205.059 63.5207 206.096 62.3142C207.154 61.0865 208.869 60.4939 211.303 60.4939C213.737 60.4939 215.452 61.1077 216.51 62.3142C217.568 63.5418 218.076 65.1505 218.076 67.1825L218.076 75.6067C218.076 77.6387 217.547 79.2686 216.51 80.475ZM212.573 65.0447C212.277 64.7907 211.874 64.6637 211.345 64.6637C210.816 64.6637 210.414 64.7907 210.096 65.0447C209.779 65.2987 209.631 65.6797 209.631 66.1877L209.631 76.5592C209.631 77.0461 209.8 77.4271 210.096 77.7022C210.414 77.9562 210.837 78.0832 211.345 78.0832C211.853 78.0832 212.277 77.9562 212.573 77.7022C212.869 77.4482 213.017 77.0672 213.017 76.5592L213.017 66.1877C213.017 65.7008 212.869 65.3198 212.573 65.0447Z" fill="white"/>
<path d="M201.27 80.475C200.212 81.7027 198.476 82.2954 196.063 82.2954C193.65 82.2954 191.914 81.6815 190.856 80.475C189.798 79.2474 189.29 77.6387 189.29 75.6067L189.29 67.1825C189.29 65.1505 189.819 63.5207 190.856 62.3142C191.914 61.0865 193.629 60.4939 196.063 60.4939C198.497 60.4939 200.212 61.1077 201.27 62.3142C202.328 63.5418 202.836 65.1505 202.836 67.1825L202.836 75.6067C202.836 77.6387 202.307 79.2686 201.27 80.475ZM197.333 65.0447C197.037 64.7907 196.634 64.6637 196.105 64.6637C195.576 64.6637 195.174 64.7907 194.856 65.0447C194.539 65.2987 194.391 65.6797 194.391 66.1877L194.391 76.5592C194.391 77.0461 194.56 77.4271 194.856 77.7022C195.174 77.9562 195.597 78.0832 196.105 78.0832C196.613 78.0832 197.037 77.9562 197.333 77.7022C197.629 77.4482 197.777 77.0672 197.777 76.5592L197.777 66.1877C197.777 65.7008 197.629 65.3198 197.333 65.0447Z" fill="white"/>
<path d="M187.427 87.8833L182.347 87.8833L182.347 74.2944L182.855 74.2944L178.579 81.9567L173.838 81.9567L176.759 75.2469C177.098 74.5061 177.415 73.9346 177.733 73.5748C178.05 73.1938 178.495 72.9398 179.087 72.7704C179.68 72.6011 180.527 72.5164 181.627 72.5164L181.627 73.0244C180.527 73.0244 179.68 72.9398 179.109 72.7704C178.537 72.6011 178.093 72.3259 177.796 71.9661C177.5 71.6063 177.204 71.0348 176.907 70.2304L173.245 60.7902L178.664 60.7902L182.834 70.8866L182.326 70.8866L182.326 60.7902L187.406 60.7902L187.406 87.8833L187.427 87.8833Z" fill="white"/>
</svg>
