<svg xmlns="http://www.w3.org/2000/svg" width="400" height="180" fill="none" viewBox="0 0 400 180"><g clip-path="url(#Eye_12_svg_a)"><path fill="#000" d="M207.894 8h-15.789v51.694h15.789zm-57.09 13.367-11.164 11.14 36.632 36.554 11.164-11.14zm109.562 11.126-11.164-11.14-36.632 36.553 11.164 11.14z"/><path fill="#fff" d="M290 134.457V135H110v-.564c.314-49.333 40.477-89.222 90-89.222s89.728 39.91 90 89.243"/><path fill="#5cb94b" d="M263.49 135H136.531c0-34.978 28.415-63.354 63.469-63.354 35.053 0 63.49 28.376 63.49 63.354"/><path fill="#fff" d="M228.311 135h-56.622c0-15.588 12.669-28.229 28.29-28.229S228.29 119.412 228.29 135z"/></g><defs><clipPath id="Eye_12_svg_a"><path fill="#fff" d="M110 8h180v127H110z"/></clipPath></defs></svg>