<svg xmlns="http://www.w3.org/2000/svg" width="400" height="180" fill="none" viewBox="0 0 400 180"><g clip-path="url(#Eye_42_svg_a)"><path fill="#fff" d="M371.438 79.014c-16.846 46.485-68.806 70.284-116.059 53.159S183.479 63.485 200.326 17z"/><path fill="#ffcf4b" d="M285.883 48.007c-23.626-8.562-49.607 3.338-58.03 26.58s3.901 49.024 27.527 57.586 49.607-3.338 58.03-26.58-3.901-49.024-27.527-57.586"/><path fill="#fff" d="M255.028 56.939s16.686 32.431 48.096 18.028c-31.429 14.396-16.679 47.697-16.679 47.697-13.667-28.592-45.957-19.024-45.957-19.024s28.195-18.135 14.527-46.728z"/></g><g clip-path="url(#Eye_42_svg_b)"><path fill="#fff" d="m31.186 79.074-.186-.51L200.145 17l.193.53c16.578 46.466-7.52 97.685-54.057 114.623-46.536 16.938-97.966-6.814-115.095-53.079"/><path fill="#1f69af" d="m55.91 69.497 119.303-43.423c11.963 32.87-5.034 69.252-37.974 81.241s-69.366-4.949-81.329-37.818"/><path fill="#fff" d="m88.968 57.465 53.207-19.366c5.331 14.648-2.25 30.86-16.929 36.203-14.679 5.342-30.927-2.197-36.258-16.844z"/></g><defs><clipPath id="Eye_42_svg_a"><path fill="#fff" d="m340.936 163.18-171.113-62.013 30.503-84.166L371.44 79.014z"/></clipPath><clipPath id="Eye_42_svg_b"><path fill="#fff" d="M230.926 101.572 61.781 163.136 31 78.563 200.144 17z"/></clipPath></defs></svg>