<svg xmlns="http://www.w3.org/2000/svg" width="400" height="180" fill="none" viewBox="0 0 400 180"><g clip-path="url(#a)"><path fill="#fff" d="M97.19 144.391c-26.61-41.974-14.153-97.59 27.822-124.201 41.974-26.611 97.59-14.153 124.201 27.821z"/><path fill="#010101" d="M125.011 20.19c-20.99 13.307-27.218 41.11-13.91 62.1s41.11 27.219 62.1 13.911c20.99-13.307 27.218-41.11 13.911-62.1S146.001 6.883 125.011 20.19"/><path fill="#fff" d="M303.367 36.376c26.299 42.171 13.427 97.693-28.744 123.991s-97.692 13.428-123.991-28.743z"/><path fill="#010101" d="M274.623 160.367c21.089-13.15 27.523-40.907 14.372-61.995S248.088 70.849 227 84s-27.523 40.907-14.372 61.996c13.151 21.088 40.907 27.522 61.995 14.371"/><path fill="#fff" d="m230.746 129.209-2.172-1.564.431-.269-.003.077a4.9 4.9 0 0 1-.197 1.844c-.182.587-.499 1.159-.932 1.704s-1.007 1.026-1.689 1.452c-1.096.683-2.159.898-3.238.647q-1.592-.391-2.986-2.628l-6.295-10.093q-1.394-2.236-.992-3.872c.268-1.09.964-1.973 2.078-2.667.898-.56 1.829-.867 2.765-.927.936-.059 1.667.034 2.154.254l.109.056-.431.269-4.088-6.556 4.311-2.688 14.336 22.99zm-12.248-13.041c-.701.437-.758 1.145-.142 2.133l5.444 8.729q.537.862 1.15 1.004c.408.095.864-.015 1.348-.317.467-.291.719-.648.773-1.081s-.062-.859-.342-1.308l-5.846-9.376c-.866-.308-1.649-.243-2.385.216m3.118-11.2 1.255 2.012-7.562 4.715-1.254-2.011zm26.085 13.668-4.311 2.688-1.22-1.958.431-.269c.03.53-.022 1.086-.204 1.674-.164.576-.481 1.148-.904 1.711q-.633.844-1.684 1.499c-1.077.672-2.105.864-3.119.598-1.014-.265-1.985-1.182-2.925-2.69l-8.748-14.027 4.311-2.689 8.366 13.417c.605.97 1.314 1.226 2.104.733.252-.156.454-.432.613-.856q.24-.636.325-1.4l-8.535-13.686 4.311-2.688 11.2 17.961zm-15.45-22.095 1.254 2.011-7.851 7.69-1.255-2.011zm5.974 3.059 4.31-2.688 1.311 2.101-.432.27.041-.375c.113-.82.404-1.674.896-2.604a5.7 5.7 0 0 1 2.064-2.21c1.06-.661 2.034-.82 2.958-.498s1.847 1.243 2.81 2.787l8.748 14.027-4.311 2.688-8.366-13.416c-.605-.97-1.278-1.249-1.978-.812-.701.437-1.139 1.134-1.243 2.047l8.714 13.973-4.311 2.688-11.2-17.96zm15.332-7.815c.248-1.602 1.389-3.012 3.455-4.3l6.268-3.909 1.792 2.874-3.969 2.475-.269-.43a5.8 5.8 0 0 1 3.04-.126q1.505.373 2.865 2.554l.235.377c.695 1.114 1.12 2.196 1.287 3.264s.007 2.091-.506 3.11q-.741 1.509-2.708 2.736l-1.06.661q-.673.42-.835.82c-.108.267-.088.579.113.902q.605.97 1.898.164l1.832-1.143c1.976-1.232 3.625-1.787 4.967-1.675s2.507.98 3.504 2.579c1.131 1.814 1.471 3.398 1.001 4.764s-1.565 2.572-3.271 3.636l-2.101 1.31c-1.635 1.02-3.118 1.521-4.475 1.544-1.358.023-2.403-.572-3.153-1.776-.437-.7-.692-1.389-.772-2.038a3.1 3.1 0 0 1 .338-1.857c.295-.608.775-1.157 1.409-1.701l.268.431c-1.03.468-1.943.563-2.692.282-.767-.27-1.391-.829-1.917-1.674-.482-.772-.698-1.56-.644-2.392.055-.832.531-1.628 1.423-2.359l.269.431c-1.031.468-2.031.344-2.95-.33-.931-.692-1.738-1.586-2.432-2.7l-.952-1.526c-1.075-1.724-1.489-3.387-1.247-4.96zm13.606 17.658q.524.121 1.171-.282l3.448-2.15q.62-.387.769-.928.121-.525-.215-1.064c-.235-.377-.522-.597-.849-.643q-.492-.067-1.138.336l-3.449 2.15q-.673.42-.802.875c-.103.314-.032.668.204 1.045.235.377.511.58.861.661m-5.618-12.288c.368.07.741-.012 1.1-.236s.633-.545.75-.917q.176-.559-.227-1.205l-1.972-3.161q-.385-.62-.982-.735c-.385-.059-.776.035-1.153.27s-.597.522-.696.884c-.1.36-.024.762.245 1.194l1.971 3.16c.258.414.585.658.964.746m-16.518 63.035-.022-.036-14.303-22.935 4.311-2.688 14.336 22.989-4.257 2.654-.036.023zm2.093-6.244 2.218 3.556-.575.358-2.218-3.556zm-5.277-14.944c.248-1.602 1.407-3.023 3.455-4.3s3.845-1.674 5.381-1.21c1.548.481 2.83 1.577 3.905 3.302l4.458 7.148c1.075 1.724 1.489 3.387 1.247 4.96-.248 1.601-1.39 3.011-3.455 4.299s-3.845 1.675-5.382 1.211c-1.547-.482-2.829-1.578-3.905-3.302l-4.457-7.148c-1.076-1.724-1.489-3.387-1.247-4.96m11.505 11.01c.386.059.795-.046 1.244-.326s.723-.601.858-.984c.135-.384.059-.786-.21-1.217l-5.488-8.8c-.258-.413-.603-.647-1-.724-.404-.047-.83.069-1.261.338-.432.269-.724.6-.841.973q-.175.558.228 1.205l5.488 8.8q.387.62.982.735m1.426-19.074c.248-1.602 1.407-3.023 3.455-4.3s3.845-1.674 5.381-1.211c1.548.482 2.83 1.578 3.905 3.302l4.458 7.149c1.075 1.724 1.489 3.387 1.247 4.959-.248 1.602-1.389 3.012-3.455 4.3s-3.845 1.675-5.381 1.211c-1.548-.482-2.83-1.578-3.906-3.302l-4.457-7.148c-1.075-1.725-1.489-3.387-1.247-4.96m11.505 11.01c.386.059.795-.047 1.244-.327s.723-.6.858-.984c.135-.383.059-.785-.21-1.216l-5.488-8.8c-.258-.414-.603-.647-1-.724-.404-.047-.83.069-1.261.338-.431.268-.723.6-.84.973q-.176.558.227 1.205l5.488 8.8q.387.62.982.735m-3.679-24.621 4.311-2.688 7.19 11.53-.431.269-.426-8.764 4.023-2.509 1.072 7.239c.104.808.137 1.461.058 1.934-.067.492-.31.942-.724 1.4q-.62.686-2.02 1.559l-.269-.431c.934-.582 1.697-.958 2.272-1.117s1.097-.161 1.539-.012c.442.148.995.477 1.672 1.002l8.103 6.073-4.598 2.867-8.881-6.36.431-.269 5.343 8.567-4.311 2.688-14.336-22.989z"/></g><defs><clipPath id="a"><path fill="#fff" d="M0 0h400v180H0z"/></clipPath></defs></svg>