<svg xmlns="http://www.w3.org/2000/svg" width="400" height="180" fill="none" viewBox="0 0 400 180"><g clip-path="url(#a)"><path fill="#fff" d="M111 45c0 49.155 39.845 89 89 89s89-39.845 89-89z"/><path fill="#ffcf4b" d="M200 45c24.577 0 44.5 19.923 44.5 44.5S224.577 134 200 134s-44.5-19.923-44.5-44.5S175.423 45 200 45"/><path fill="#fff" d="M225.384 62.15s-26.149 24.66-50.23.559c24.101 24.102-.559 50.231-.559 50.231 22.095-22.095 48.596-2.214 48.596-2.214s-19.881-26.501 2.214-48.596z"/></g><defs><clipPath id="a"><path fill="#fff" d="M111 134h178V45H111z"/></clipPath></defs></svg>