<svg width="400" height="180" viewBox="0 0 400 180" fill="none" xmlns="http://www.w3.org/2000/svg">
<g clip-path="url(#clip0_70_1589)">
<g clip-path="url(#clip1_70_1589)">
<path d="M94.6492 144.043C68.3325 102.526 81.2094 47.1876 123.412 20.4362C165.614 -6.31515 221.156 5.65358 247.473 47.1701L94.6492 144.043Z" fill="white"/>
<path d="M171.061 95.6064C192.162 82.2311 198.6 54.5609 185.442 33.8032C172.284 13.0455 144.512 7.06094 123.412 20.4362C102.311 33.8115 95.8727 61.4818 109.031 82.2394C122.189 102.997 149.961 108.982 171.061 95.6064Z" fill="#FFCF4B"/>
<path d="M182.797 65.9082C182.797 65.9082 147.143 59.3114 139.372 92.7733C147.161 59.3002 112 50.6521 112 50.6521C142.799 57.289 154.908 26.0744 154.908 26.0744C154.908 26.0744 152.027 59.2776 182.826 65.9144L182.797 65.9082Z" fill="white"/>
</g>
<g clip-path="url(#clip2_70_1589)">
<path d="M152.295 133.88L152.001 133.423L303.357 36L303.663 36.4744C330.1 78.1271 317.917 133.406 276.275 160.21C234.633 187.013 179.225 175.215 152.295 133.88Z" fill="white"/>
<path d="M174.292 119.075L281.048 50.3597C299.98 79.7719 291.444 119.012 261.969 137.984C232.493 156.956 193.224 148.487 174.292 119.075Z" fill="#5CB94B"/>
<path d="M203.874 100.035L251.485 69.3887C259.922 82.4959 256.111 99.9825 242.976 108.437C229.84 116.892 212.328 113.13 203.891 100.023L203.874 100.035Z" fill="white"/>
</g>
</g>
<defs>
<clipPath id="clip0_70_1589">
<rect width="400" height="180" fill="white"/>
</clipPath>
<clipPath id="clip1_70_1589">
<rect width="180.94" height="89" fill="white" transform="translate(47 68.8725) rotate(-32.37)"/>
</clipPath>
<clipPath id="clip2_70_1589">
<rect width="180" height="90" fill="white" transform="translate(352.068 111.678) rotate(147.232)"/>
</clipPath>
</defs>
</svg>
