<svg xmlns="http://www.w3.org/2000/svg" width="400" height="180" fill="none" viewBox="0 0 400 180"><g clip-path="url(#a)"><g clip-path="url(#b)"><path fill="#fff" d="M111 0c0 49.707 40.517 90 90.5 90S292 49.707 292 0z"/><path fill="#ff71ee" d="M201.468 0c24.982 0 45.234 20.252 45.234 45.234s-20.252 45.234-45.234 45.234-45.234-20.252-45.234-45.234S176.486 0 201.468 0"/><path fill="#fff" d="M215.851 23.063c-6.162-.378-11.293 3.092-14.489 8.118-2.587-4.059-6.603-7.34-11.503-8.012-10.536-1.451-17.013 6.666-16.529 16.655.652 12.996 11.776 19.83 20.608 27.653 2.461 2.187 4.858 4.459 7.298 6.688l.399-.106c5.11-5.152 10.893-9.589 16.256-14.468 7.57-6.897 12.302-12.512 11.482-23.51-.526-7.15-6.477-12.597-13.522-13.039z"/></g><g clip-path="url(#c)"><path fill="#fff" d="M110 90.543V90h180v.564c-.314 49.333-40.477 89.222-90 89.222s-89.728-39.91-90-89.243"/><path fill="#0065b1" d="M136.51 90h126.959c0 34.978-28.416 63.354-63.469 63.354-35.054 0-63.49-28.376-63.49-63.354"/><path fill="#fff" d="M171.689 90h56.622c0 15.588-12.669 28.229-28.29 28.229-15.622 0-28.311-12.641-28.311-28.229z"/></g></g><defs><clipPath id="a"><path fill="#fff" d="M0 0h400v180H0z"/></clipPath><clipPath id="b"><path fill="#fff" d="M111 90h181V0H111z"/></clipPath><clipPath id="c"><path fill="#fff" d="M290 180H110V90h180z"/></clipPath></defs></svg>