<svg width="400" height="180" viewBox="0 0 400 180" fill="none" xmlns="http://www.w3.org/2000/svg">
<g clip-path="url(#clip0_70_1571)">
<path d="M111 90C111 40.2929 151.517 0 201.5 0C251.483 0 292 40.2929 292 90H111Z" fill="white"/>
<path d="M201.5 90C226.491 90 246.75 69.8528 246.75 45C246.75 20.1472 226.491 0 201.5 0C176.509 0 156.25 20.1472 156.25 45C156.25 69.8528 176.509 90 201.5 90Z" fill="#FFCF4B"/>
<path d="M227.321 70.9888C227.321 70.9888 200.731 46.0516 176.244 70.424C200.752 46.0516 175.676 19.629 175.676 19.629C198.143 41.9721 225.091 21.8675 225.091 21.8675C225.091 21.8675 204.875 48.6667 227.342 71.0098L227.321 70.9888Z" fill="white"/>
</g>
<g clip-path="url(#clip1_70_1571)">
<path d="M290 179.457V180H110V179.436C110.314 130.103 150.477 90.2141 200 90.2141C249.523 90.2141 289.728 130.124 290 179.457Z" fill="white"/>
<path d="M263.49 180H136.531C136.531 145.022 164.947 116.646 200 116.646C235.054 116.646 263.49 145.022 263.49 180Z" fill="#5CB94B"/>
<path d="M228.311 180H171.689C171.689 164.412 184.358 151.771 199.979 151.771C215.601 151.771 228.29 164.412 228.29 180H228.311Z" fill="white"/>
</g>
<defs>
<clipPath id="clip0_70_1571">
<rect width="181" height="90" fill="white" transform="translate(111)"/>
</clipPath>
<clipPath id="clip1_70_1571">
<rect width="180" height="90" fill="white" transform="translate(110 90)"/>
</clipPath>
</defs>
</svg>
