<svg width="400" height="180" viewBox="0 0 400 180" fill="none" xmlns="http://www.w3.org/2000/svg">
<g clip-path="url(#clip0_70_851)">
<path d="M111 134C111 84.8452 150.845 45 200 45C249.155 45 289 84.8452 289 134H111Z" fill="white"/>
<path d="M200 134C224.577 134 244.5 114.077 244.5 89.5C244.5 64.9233 224.577 45 200 45C175.423 45 155.5 64.9233 155.5 89.5C155.5 114.077 175.423 134 200 134Z" fill="#FFCF4B"/>
<path d="M225.384 116.85C225.384 116.85 199.235 92.1894 175.154 116.291C199.255 92.1894 174.595 66.0604 174.595 66.0604C196.69 88.1553 223.191 68.2741 223.191 68.2741C223.191 68.2741 203.31 94.7755 225.405 116.87L225.384 116.85Z" fill="white"/>
</g>
<defs>
<clipPath id="clip0_70_851">
<rect width="178" height="89" fill="white" transform="translate(111 45)"/>
</clipPath>
</defs>
</svg>
