<svg width="400" height="180" viewBox="0 0 400 180" fill="none" xmlns="http://www.w3.org/2000/svg">
<path d="M200.063 17.2108C212.926 65.2163 184.429 114.575 136.424 127.438C88.4183 140.301 39.0598 111.804 26.1968 63.7982L200.063 17.2108Z" fill="white"/>
<path d="M136.424 127.438C160.43 121.005 174.676 96.3302 168.244 72.3243C161.811 48.3183 137.136 34.0721 113.13 40.5045C89.1243 46.9368 74.8781 71.612 81.3104 95.618C87.7428 119.624 112.418 133.87 136.424 127.438Z" fill="#010101"/>
<path d="M373.803 63.7982C360.94 111.804 311.582 140.301 263.576 127.438C215.571 114.575 187.073 65.2163 199.937 17.2108L373.803 63.7982Z" fill="white"/>
<path d="M263.576 127.438C287.582 133.87 312.257 119.624 318.69 95.618C325.122 71.612 310.876 46.9369 286.87 40.5045C262.864 34.0721 238.189 48.3183 231.756 72.3243C225.324 96.3303 239.57 121.005 263.576 127.438Z" fill="#010101"/>
<path d="M256.392 74.1044L256.051 71.4494L256.542 71.5809L256.485 71.6312C256.05 72.1066 255.556 72.4782 255.003 72.7461C254.449 73.0141 253.814 73.1728 253.12 73.2279C252.426 73.283 251.683 73.1935 250.906 72.9853C249.659 72.6511 248.776 72.0201 248.223 71.061C247.689 70.1073 247.65 68.7819 248.105 67.085L251.184 55.5947C251.638 53.8978 252.355 52.7752 253.335 52.2269C254.315 51.6786 255.436 51.5845 256.703 51.9241C257.725 52.198 258.585 52.6694 259.268 53.3124C259.95 53.9555 260.381 54.5532 260.553 55.0592L260.586 55.1779L260.096 55.0464L262.095 47.5839L267.002 48.8987L259.99 75.0686L256.392 74.1044ZM257.56 56.2514C256.762 56.0377 256.205 56.4802 255.904 57.6047L253.242 67.5411C253.066 68.1953 253.084 68.7039 253.293 69.0668C253.503 69.4298 253.894 69.6879 254.446 69.8358C254.977 69.9783 255.409 69.9188 255.763 69.6629C256.116 69.407 256.349 69.031 256.486 68.5198L259.345 57.8474C258.979 57.0043 258.398 56.476 257.56 56.2514ZM267.872 50.8849L267.259 53.1748L258.651 50.8684L259.265 48.5785L267.872 50.8849Z" fill="white"/>
<path d="M275.692 79.2759L270.785 77.9612L271.382 75.7326L271.873 75.8641C271.507 76.2482 271.065 76.5899 270.511 76.8578C269.978 77.1312 269.343 77.29 268.644 77.3655C267.944 77.441 267.196 77.3719 266.399 77.1583C265.172 76.8296 264.33 76.2096 263.832 75.2873C263.334 74.365 263.341 73.0302 263.801 71.3128L268.08 55.345L272.987 56.6598L268.894 71.9324C268.599 73.0365 268.895 73.7295 269.795 73.9705C270.081 74.0472 270.42 74.0067 270.839 73.834C271.258 73.6614 271.673 73.4219 272.084 73.1156L276.258 57.5363L281.165 58.8511L275.687 79.2964L275.692 79.2759ZM281.291 52.9025L280.677 55.1924L269.698 54.7048L270.311 52.4149L281.291 52.9025Z" fill="white"/>
<path d="M283.133 59.3566L288.04 60.6714L287.399 63.0635L286.908 62.932L287.21 62.706C287.885 62.2296 288.708 61.8584 289.724 61.5828C290.74 61.3073 291.746 61.3139 292.748 61.5823C293.954 61.9056 294.735 62.5091 295.131 63.404C295.526 64.2989 295.484 65.6024 295.013 67.3607L290.734 83.3284L285.827 82.0136L289.92 66.741C290.216 65.637 289.96 64.9549 289.163 64.7413C288.365 64.5276 287.557 64.6834 286.818 65.2307L282.556 81.1371L277.649 79.8223L283.128 59.377L283.133 59.3566Z" fill="white"/>
<path d="M299.31 65.2252C300.65 64.3133 302.46 64.1845 304.811 64.8145L311.946 66.7265L311.07 69.9977L306.551 68.787L306.683 68.2963C307.613 68.8305 308.341 69.5513 308.849 70.4327C309.353 71.3346 309.383 72.6135 308.939 74.2696L308.824 74.6989C308.484 75.9665 307.984 77.0158 307.318 77.8672C306.651 78.7185 305.794 79.2997 304.7 79.6202C303.627 79.9461 302.344 79.9091 300.851 79.5092L299.645 79.186C299.134 79.049 298.744 79.0322 298.475 79.1355C298.207 79.2388 297.992 79.4663 297.894 79.8343C297.697 80.5703 298.089 81.0698 299.07 81.3327L301.155 81.8915C303.404 82.4941 304.936 83.3209 305.77 84.3772C306.605 85.4335 306.765 86.879 306.278 88.6986C305.725 90.7636 304.799 92.0932 303.479 92.682C302.16 93.2708 300.532 93.2947 298.59 92.7743L296.198 92.1333C294.337 91.6348 292.958 90.8928 292.015 89.9168C291.071 88.9408 290.793 87.7706 291.16 86.4008C291.374 85.6034 291.703 84.9466 292.122 84.4454C292.541 83.9441 293.071 83.6039 293.71 83.4247C294.356 83.225 295.085 83.2014 295.915 83.2923L295.784 83.783C294.739 83.3496 294.045 82.7475 293.739 82.0081C293.413 81.2633 293.396 80.4261 293.654 79.4652C293.889 78.586 294.317 77.8898 294.963 77.3615C295.608 76.8333 296.515 76.638 297.657 76.7908L297.526 77.2814C296.481 76.848 295.889 76.0319 295.754 74.9001C295.624 73.7478 295.726 72.5481 296.066 71.2805L296.532 69.5426C297.058 67.5799 297.991 66.1426 299.305 65.2456L299.31 65.2252ZM295.695 87.2216C295.875 87.5326 296.21 87.7539 296.701 87.8854L300.626 88.9372C301.096 89.0632 301.497 89.0392 301.829 88.8651C302.14 88.6854 302.35 88.3912 302.46 87.9823C302.575 87.5529 302.54 87.1929 302.349 86.9228C302.159 86.6526 301.818 86.4517 301.327 86.3202L297.402 85.2684C296.891 85.1315 296.495 85.1351 296.216 85.2793C295.915 85.418 295.705 85.7122 295.59 86.1416C295.475 86.5709 295.516 86.9105 295.695 87.2216ZM300.839 74.7289C301.04 75.0455 301.354 75.2613 301.763 75.3709C302.172 75.4804 302.593 75.4618 302.945 75.2932C303.297 75.1245 303.539 74.7949 303.671 74.3042L304.635 70.7058C304.761 70.2356 304.716 69.8292 304.501 69.4867C304.281 69.1647 303.946 68.9434 303.516 68.8284C303.087 68.7133 302.727 68.7483 302.395 68.9225C302.064 69.0966 301.822 69.4263 301.691 69.9169L300.726 73.5153C300.6 73.9856 300.645 74.3919 300.839 74.7289Z" fill="white"/>
<path d="M243.502 105.69C243.502 105.69 243.507 105.669 243.513 105.649L250.509 79.5403L255.415 80.8551L248.403 107.025L243.558 105.727L243.517 105.716L243.502 105.69ZM249.493 102.956L248.409 107.005L247.754 106.829L248.839 102.781L249.493 102.956Z" fill="white"/>
<path d="M256.81 88.8984C258.15 87.9865 259.98 87.8633 262.311 88.4878C264.642 89.1123 266.159 90.1545 266.869 91.5938C267.574 93.0535 267.648 94.7388 267.122 96.7016L264.942 104.839C264.416 106.802 263.483 108.239 262.169 109.136C260.829 110.048 259.02 110.176 256.668 109.546C254.317 108.916 252.82 107.88 252.11 106.44C251.405 104.981 251.331 103.295 251.857 101.333L254.037 93.1954C254.563 91.2327 255.496 89.7954 256.81 88.8984ZM256.62 104.822C256.84 105.144 257.196 105.371 257.707 105.508C258.218 105.645 258.639 105.626 259.012 105.463C259.384 105.3 259.626 104.97 259.757 104.479L262.442 94.4613C262.568 93.991 262.503 93.5792 262.288 93.2367C262.047 92.9092 261.671 92.6769 261.18 92.5454C260.689 92.414 260.248 92.4271 259.896 92.5957C259.544 92.7644 259.302 93.094 259.17 93.5847L256.486 103.603C256.36 104.073 256.405 104.48 256.62 104.822Z" fill="white"/>
<path d="M271.531 92.8428C272.871 91.9309 274.701 91.8076 277.032 92.4322C279.362 93.0567 280.88 94.0988 281.59 95.5381C282.294 96.9979 282.369 98.6832 281.843 100.646L279.662 108.783C279.137 110.746 278.204 112.183 276.89 113.08C275.55 113.992 273.74 114.121 271.389 113.491C269.038 112.861 267.54 111.824 266.83 110.385C266.126 108.925 266.052 107.24 266.578 105.277L268.758 97.1398C269.284 95.1771 270.217 93.7397 271.531 92.8428ZM271.34 108.766C271.56 109.088 271.916 109.315 272.427 109.452C272.938 109.589 273.36 109.57 273.732 109.407C274.104 109.244 274.346 108.914 274.478 108.424L277.162 98.4056C277.288 97.9354 277.223 97.5235 277.008 97.1811C276.767 96.8535 276.391 96.6213 275.9 96.4898C275.41 96.3583 274.968 96.3714 274.616 96.5401C274.264 96.7087 274.022 97.0384 273.891 97.5291L271.206 107.547C271.08 108.018 271.125 108.424 271.34 108.766Z" fill="white"/>
<path d="M286.82 89.2698L291.726 90.5846L288.209 103.71L287.719 103.579L293.832 97.2844L298.412 98.5115L293.853 104.237C293.335 104.865 292.88 105.334 292.48 105.6C292.075 105.886 291.58 106.016 290.964 106.026C290.347 106.036 289.508 105.899 288.444 105.614L288.576 105.123C289.639 105.408 290.435 105.709 290.943 106.021C291.451 106.332 291.809 106.713 292.003 107.137C292.196 107.562 292.334 108.19 292.412 109.044L293.506 119.11L288.272 117.708L286.857 106.876L287.348 107.008L284.735 116.76L279.828 115.445L286.84 89.2752L286.82 89.2698Z" fill="white"/>
</svg>
