<svg xmlns="http://www.w3.org/2000/svg" width="400" height="180" fill="none" viewBox="0 0 400 180"><path fill="#fff" d="M200.566 17.26c-16.998 46.703 7.089 98.357 53.791 115.355s98.356-7.089 115.354-53.79z"/><path fill="#010101" d="M254.357 132.615c-23.354-8.5-35.396-34.323-26.895-57.677 8.5-23.354 34.323-35.396 57.677-26.896s35.395 34.324 26.895 57.678-34.323 35.395-57.677 26.895"/><path fill="#fff" d="M200.145 17c16.998 46.702-7.089 98.356-53.791 115.354S47.998 125.265 31 78.564z"/><path fill="#010101" d="M146.354 132.354c23.354-8.5 35.396-34.323 26.895-57.677-8.5-23.354-34.323-35.395-57.677-26.895s-35.395 34.323-26.895 57.677 34.323 35.395 57.677 26.895"/><path fill="#fff" d="m109.878 92.787-1.802-1.98.478-.174-.018.075a4.9 4.9 0 0 1-.575 1.763c-.3.537-.728 1.03-1.265 1.474s-1.197.796-1.953 1.071c-1.213.442-2.298.431-3.302-.037q-1.476-.712-2.377-3.189l-4.069-11.178q-.9-2.477-.17-3.993c.489-1.011 1.353-1.731 2.586-2.18.995-.362 1.97-.469 2.897-.333.928.135 1.624.377 2.055.693l.096.078-.478.174-2.642-7.26 4.773-1.737 9.267 25.459zm-9.283-15.294c-.776.282-.978.964-.58 2.058l3.518 9.666q.348.955.918 1.22c.379.178.848.165 1.385-.03.517-.189.837-.486.98-.898.142-.412.117-.853-.064-1.35l-3.779-10.383c-.783-.481-1.563-.58-2.378-.283m5.37-10.312.81 2.228-8.373 3.048-.811-2.228z"/><path fill="#fff" d="m128.654 85.953-4.773 1.737-.789-2.168.477-.174a4.7 4.7 0 0 1-.546 1.596c-.28.53-.708 1.023-1.238 1.486q-.794.695-1.958 1.119c-1.193.434-2.239.41-3.176-.06-.936-.47-1.696-1.568-2.304-3.239l-5.654-15.534 4.773-1.737 5.408 14.857c.391 1.074 1.031 1.472 1.906 1.154.279-.102.534-.33.778-.711q.366-.573.607-1.303l-5.516-15.156 4.773-1.737 7.24 19.89zm-10.541-24.815.811 2.227-9.273 5.898-.811-2.227z"/><path fill="#fff" d="m123.324 65.368 4.774-1.738.847 2.327-.477.174.117-.358c.28-.777.741-1.553 1.415-2.362a5.7 5.7 0 0 1 2.477-1.735c1.174-.427 2.159-.38 2.997.126.837.506 1.55 1.598 2.173 3.309l5.654 15.534-4.774 1.737-5.408-14.858c-.391-1.074-.991-1.486-1.767-1.204s-1.349.874-1.64 1.746l5.633 15.474-4.774 1.738-7.239-19.89z"/><path fill="#fff" d="M139.942 60.896c.575-1.515 1.983-2.659 4.27-3.491l6.942-2.527 1.158 3.183-4.395 1.6-.174-.478a5.8 5.8 0 0 1 3 .508q1.395.675 2.274 3.091l.152.418c.449 1.233.641 2.38.583 3.46-.057 1.079-.426 2.046-1.138 2.936q-1.039 1.324-3.216 2.117l-1.174.427q-.745.272-.987.63c-.161.239-.206.548-.076.906q.391 1.074 1.823.553l2.029-.739c2.188-.796 3.917-.997 5.206-.61 1.29.386 2.25 1.478 2.894 3.248.732 2.009.736 3.63-.007 4.868-.743 1.24-2.063 2.193-3.952 2.88l-2.328.847c-1.81.659-3.365.842-4.698.584-1.332-.258-2.231-1.057-2.716-2.39-.283-.776-.39-1.503-.334-2.154a3.12 3.12 0 0 1 .716-1.747c.414-.533.998-.971 1.73-1.373l.174.478c-1.105.244-2.018.148-2.693-.282-.695-.423-1.188-1.099-1.529-2.034-.311-.855-.36-1.67-.134-2.474.226-.803.856-1.483 1.88-2.013l.174.478c-1.105.244-2.058-.085-2.818-.934-.767-.87-1.371-1.912-1.82-3.145l-.616-1.69c-.695-1.91-.755-3.622-.193-5.11zm9.655 20.092q.489.227 1.205-.033l3.819-1.39q.686-.25.943-.749.228-.488.011-1.085c-.152-.417-.387-.692-.698-.804q-.467-.168-1.183.092l-3.819 1.39q-.746.272-.965.69c-.167.285-.17.647-.018 1.065s.38.672.705.824m-2.951-13.184c.345.145.727.14 1.125-.004.397-.145.732-.401.923-.742q.288-.51.027-1.226l-1.274-3.5q-.25-.687-.808-.922c-.366-.138-.767-.127-1.185.025s-.692.387-.864.72-.181.742-.007 1.22l1.274 3.5c.167.457.436.765.789.93"/><path fill="#fff" d="m117.436 126.053-.014-.039-9.245-25.4 4.774-1.738 9.266 25.46-4.714 1.715-.039.015zm3.341-5.675 1.433 3.938-.636.232-1.434-3.939z"/><path fill="#fff" d="M118.707 104.665c.574-1.515 2.003-2.666 4.27-3.491 2.268-.825 4.108-.842 5.516-.071 1.414.792 2.442 2.13 3.137 4.039l2.881 7.917c.695 1.909.755 3.622.193 5.11-.575 1.516-1.983 2.659-4.27 3.492-2.288.832-4.109.842-5.516.07-1.414-.792-2.442-2.13-3.137-4.039l-2.881-7.916c-.695-1.91-.755-3.622-.193-5.111m8.977 13.154c.365.137.786.119 1.284-.062.497-.181.831-.438 1.043-.785s.22-.756.047-1.234l-3.548-9.746c-.166-.457-.456-.757-.828-.915-.385-.13-.827-.104-1.304.069-.477.174-.832.438-1.023.778q-.288.51-.027 1.226l3.547 9.747q.25.685.809.922"/><path fill="#fff" d="M133.028 99.453c.574-1.516 2.002-2.666 4.27-3.492 2.267-.825 4.108-.842 5.515-.07 1.415.792 2.442 2.13 3.137 4.04l2.882 7.915c.695 1.91.755 3.622.193 5.111-.575 1.515-1.983 2.659-4.271 3.491s-4.108.842-5.515.071c-1.414-.792-2.442-2.13-3.137-4.039l-2.881-7.917c-.695-1.909-.755-3.622-.193-5.11m8.977 13.153c.365.138.786.119 1.284-.062.497-.181.831-.438 1.043-.785s.22-.756.046-1.233l-3.547-9.746c-.166-.458-.456-.758-.828-.915-.386-.13-.827-.105-1.304.07-.478.173-.832.437-1.024.777q-.287.51-.026 1.226l3.547 9.746q.25.687.809.922"/><path fill="#fff" d="m143.501 87.757 4.774-1.738 4.648 12.77-.478.174 1.398-8.663 4.455-1.622-.45 7.305c-.065.811-.168 1.457-.343 1.904-.168.466-.499.857-.998 1.219q-.749.543-2.3 1.107l-.174-.477c1.035-.376 1.859-.586 2.454-.623.595-.036 1.107.07 1.508.307.402.237.876.673 1.429 1.327l6.67 7.619-5.092 1.853-7.371-8.061.477-.174 3.453 9.487-4.773 1.738-9.267-25.46z"/></svg>