<svg xmlns="http://www.w3.org/2000/svg" width="400" height="180" fill="none" viewBox="0 0 400 180"><g clip-path="url(#Eye_34_svg_clip0_70_1422)"><path fill="#fff" d="M110 180c0-49.699 40.301-90 90-90s90 40.301 90 90z"/><path fill="#010101" d="M200 180c24.853 0 45-20.147 45-45s-20.147-45-45-45-45 20.147-45 45 20.147 45 45 45"/><path fill="#fff" d="m179.257 130.343-1.016-2.476h.508l-.043.063a4.9 4.9 0 0 1-1.143 1.461c-.465.402-1.037.72-1.693.952-.656.233-1.397.339-2.201.339-1.291 0-2.307-.381-3.09-1.164q-1.143-1.174-1.143-3.81v-11.896q0-2.634 1.206-3.81c.804-.783 1.863-1.164 3.175-1.164 1.058 0 2.011.233 2.836.678.826.444 1.397.91 1.694 1.354l.063.106h-.508v-7.726h5.08v27.093zm-3.493-17.547c-.825 0-1.248.572-1.248 1.736v10.287q0 1.016.444 1.46c.296.297.741.445 1.312.445.551 0 .953-.169 1.228-.508s.402-.762.402-1.291v-11.049c-.571-.72-1.27-1.08-2.138-1.08m8.573-7.852v2.37h-8.911v-2.37z"/><path fill="#fff" d="M199.238 130.343h-5.08v-2.307h.508c-.254.466-.593.91-1.058 1.313-.445.402-1.016.719-1.672.973q-.985.381-2.223.381c-1.27 0-2.244-.381-2.963-1.143-.72-.762-1.059-2.053-1.059-3.831v-16.531h5.08v15.811c0 1.143.466 1.736 1.397 1.736.297 0 .614-.127.974-.402q.54-.413 1.016-1.016v-16.129h5.08v21.167zm-1.418-26.923v2.37l-10.732 2.371v-2.371z"/><path fill="#fff" d="M201.27 109.177h5.079v2.476h-.508l.233-.296c.529-.635 1.228-1.206 2.138-1.736a5.7 5.7 0 0 1 2.921-.783c1.249 0 2.159.381 2.773 1.143s.91 2.032.91 3.853v16.531h-5.08v-15.812c0-1.143-.423-1.735-1.249-1.735-.825 0-1.566.359-2.138 1.079v16.468h-5.079v-21.188"/><path fill="#fff" d="M218.415 110.659c1.059-1.228 2.773-1.821 5.207-1.821h7.387v3.387h-4.677v-.508a5.77 5.77 0 0 1 2.645 1.503q1.08 1.111 1.08 3.683v.444c0 1.312-.212 2.455-.635 3.45s-1.101 1.778-2.074 2.371q-1.43.89-3.747.889h-1.249q-.793 0-1.143.254c-.233.169-.381.444-.381.825q0 1.143 1.524 1.143h2.159c2.329 0 4.022.403 5.101 1.207 1.08.804 1.609 2.159 1.609 4.043 0 2.138-.55 3.662-1.672 4.572s-2.688 1.354-4.699 1.354h-2.477c-1.926 0-3.45-.359-4.614-1.058-1.164-.698-1.736-1.757-1.736-3.175 0-.825.149-1.545.424-2.138a3.1 3.1 0 0 1 1.27-1.397c.571-.36 1.27-.571 2.095-.698v.508c-1.122-.148-1.947-.551-2.434-1.186-.508-.635-.741-1.439-.741-2.434 0-.91.233-1.693.72-2.37.487-.678 1.312-1.101 2.455-1.249v.508c-1.122-.148-1.905-.783-2.328-1.842-.423-1.079-.635-2.265-.635-3.577v-1.799c0-2.032.529-3.662 1.566-4.868zm2.202 22.182q.381.381 1.143.381h4.064q.729 0 1.143-.381.381-.381.381-1.016c0-.444-.127-.783-.381-.995q-.381-.317-1.143-.317h-4.064q-.795 0-1.143.317c-.254.212-.381.551-.381.995 0 .445.127.762.381 1.016m1.735-13.398c.275.254.635.381 1.059.381s.825-.127 1.121-.381q.445-.381.445-1.143v-3.726q0-.729-.445-1.143c-.296-.254-.677-.381-1.121-.381-.445 0-.784.127-1.059.381s-.423.635-.423 1.143v3.726c0 .486.148.867.423 1.143"/><path fill="#fff" d="M174.981 164.189v-27.072h5.08v27.093h-5.058zm5.08-4.191v4.191h-.677v-4.191z"/><path fill="#fff" d="M183.49 144.525c1.058-1.228 2.794-1.82 5.207-1.82s4.149.613 5.207 1.82c1.058 1.228 1.566 2.836 1.566 4.868v8.425c0 2.031-.529 3.661-1.566 4.868-1.058 1.227-2.773 1.82-5.207 1.82s-4.149-.614-5.207-1.82c-1.058-1.228-1.566-2.837-1.566-4.868v-8.425c0-2.032.529-3.662 1.566-4.868m3.937 15.43c.296.254.699.381 1.228.381s.931-.127 1.249-.381c.317-.254.465-.635.465-1.143v-10.371c0-.487-.169-.868-.465-1.143-.318-.254-.741-.381-1.249-.381s-.932.127-1.228.381q-.444.381-.444 1.143v10.371q0 .73.444 1.143"/><path fill="#fff" d="M198.73 144.525c1.059-1.228 2.794-1.82 5.207-1.82s4.149.613 5.207 1.82c1.059 1.228 1.567 2.836 1.567 4.868v8.425c0 2.031-.53 3.661-1.567 4.868-1.058 1.227-2.773 1.82-5.207 1.82s-4.148-.614-5.207-1.82c-1.058-1.228-1.566-2.837-1.566-4.868v-8.425c0-2.032.529-3.662 1.566-4.868m3.937 15.43c.297.254.699.381 1.228.381s.931-.127 1.249-.381c.317-.254.465-.635.465-1.143v-10.371c0-.487-.169-.868-.465-1.143-.318-.254-.741-.381-1.249-.381s-.931.127-1.228.381q-.444.381-.444 1.143v10.371q0 .73.444 1.143"/><path fill="#fff" d="M212.573 137.117h5.08v13.589h-.508l4.276-7.663h4.741l-2.921 6.71c-.338.741-.656 1.312-.973 1.672-.318.381-.762.635-1.355.805q-.889.254-2.54.254v-.508c1.101 0 1.947.084 2.519.254.571.169 1.016.444 1.312.804s.593.931.889 1.736l3.662 9.44h-5.419l-4.17-10.097h.508v10.097h-5.08v-27.093z"/><g clip-path="url(#Eye_34_svg_clip1_70_1422)"><path fill="#fff" d="M111 90c0-49.707 40.517-90 90.5-90S292 40.293 292 90z"/><path fill="#ffcf4b" d="M201.5 90c24.991 0 45.25-20.147 45.25-45S226.491 0 201.5 0s-45.25 20.147-45.25 45 20.259 45 45.25 45"/><path fill="#fff" d="M227.321 70.989s-26.59-24.937-51.077-.565c24.508-24.372-.568-50.795-.568-50.795 22.467 22.343 49.415 2.238 49.415 2.238s-20.216 26.8 2.251 49.143z"/></g></g><defs><clipPath id="Eye_34_svg_clip0_70_1422"><rect width="400" height="180" fill="#fff"/></clipPath><clipPath id="Eye_34_svg_clip1_70_1422"><rect width="181" height="90" fill="#fff" transform="translate(111)"/></clipPath></defs></svg>