<svg xmlns="http://www.w3.org/2000/svg" width="140" height="140" fill="none" viewBox="0 0 140 140"><path fill="#e03c96" d="M70.06 57.14c.53-1.94 1.24-3.6 2.32-5.1 2.68-3.73 6.29-5.44 10.89-4.92 3.57.4 6.48 2.17 9.04 4.57 1.84 1.73 3.59 3.55 5.38 5.32 2.31 2.29 4.94 4.08 7.96 5.34 3.26 1.37 6.58 2.56 9.92 3.7.22.07.53.09.54.39 0 .24-.25.33-.44.44-3.78 2.29-7.19 5.06-10.32 8.15-2.75 2.71-5.4 5.53-8.15 8.24-3.5 3.44-7.45 6.24-12.09 7.92-3.15 1.14-6.44 1.72-9.78 2.04-3.26.31-6.53.37-9.78.09-4.51-.38-8.95-1.22-13.09-3.2-3.24-1.55-6.1-3.63-8.71-6.07-2.98-2.79-5.7-5.84-8.62-8.68-3.26-3.17-6.74-6.08-10.63-8.46-.2-.12-.51-.2-.5-.47.01-.33.37-.34.61-.41 2.67-.88 5.29-1.89 7.93-2.85 4.58-1.66 8.39-4.39 11.68-7.94 1.88-2.02 3.81-4 6.11-5.58 3.22-2.21 6.75-3.21 10.59-2.36 3.33.74 5.77 2.83 7.48 5.78.71 1.23 1.2 2.54 1.66 4.06"/></svg>