<svg width="140" height="140" viewBox="0 0 140 140" fill="none" xmlns="http://www.w3.org/2000/svg">
<path d="M112.736 26.3108C117.183 29.788 116.252 37.4249 114.826 42.2044C111.381 53.7866 99.146 70.8654 86.2835 72.1849C82.268 72.5945 77.6884 70.9723 73.81 72.4183C69.1731 74.1429 51.2453 96.3607 38.3295 110.489C34.8967 113.307 30.8325 115.915 27.0039 112.158C20.5342 105.807 31.9743 98.1792 36.1111 94.4768C46.5772 85.1145 65.1656 71.3503 67.3016 66.2113C68.9188 62.3076 67.4692 57.4851 67.9078 53.358C69.3165 40.0761 89.2119 26.5685 101.644 24.6396C105.012 24.1124 109.941 24.1226 112.736 26.3108Z" fill="#E03C96"/>
</svg>
