<svg width="140" height="140" viewBox="0 0 140 140" fill="none" xmlns="http://www.w3.org/2000/svg">
<path d="M70.06 57.14C70.59 55.2 71.3 53.54 72.38 52.04C75.06 48.31 78.67 46.6 83.27 47.12C86.84 47.52 89.75 49.29 92.31 51.69C94.15 53.42 95.9 55.24 97.69 57.01C100 59.3 102.63 61.09 105.65 62.35C108.91 63.72 112.23 64.91 115.57 66.05C115.79 66.12 116.1 66.14 116.11 66.44C116.11 66.68 115.86 66.77 115.67 66.88C111.89 69.17 108.48 71.94 105.35 75.03C102.6 77.74 99.95 80.56 97.2 83.27C93.7 86.71 89.75 89.51 85.11 91.19C81.96 92.33 78.67 92.91 75.33 93.23C72.07 93.54 68.8 93.6 65.55 93.32C61.04 92.94 56.6 92.1 52.46 90.12C49.22 88.57 46.36 86.49 43.75 84.05C40.77 81.26 38.05 78.21 35.13 75.37C31.87 72.2 28.39 69.29 24.5 66.91C24.3 66.79 23.99 66.71 24 66.44C24.01 66.11 24.37 66.1 24.61 66.03C27.28 65.15 29.9 64.14 32.54 63.18C37.12 61.52 40.93 58.79 44.22 55.24C46.1 53.22 48.03 51.24 50.33 49.66C53.55 47.45 57.08 46.45 60.92 47.3C64.25 48.04 66.69 50.13 68.4 53.08C69.11 54.31 69.6 55.62 70.06 57.14Z" fill="#E03C96"/>
</svg>
